<svg width="330" height="330">
    <rect fill="#101010" x="0" y="0" width="330" height="330"></rect>
    <text x="180" y="35" fill="#b9b9b9" text-anchor="middle" alignment-baseline="central" font-size="24">Grayscale (dark)</text>
    <text x="10" y="75" fill="#b9b9b9" text-anchor="start"  alignment-baseline="baseline" font-size="14">FG: #b9b9b9. BG: #101010</text>

<rect id="#box-1" x="5" y="85"  width="74" height="54" fill= "#101010" stroke="#101010" stroke-width="1px" /><rect id="#box-1" x="5" y="133"  width="74" height="6" fill= "#000000" stroke="#000000" stroke-width="1px" /><text id="#box-text-1" x="15" y="126" fill="#101010" font-size="12" font-family="Droid Sans Mono, Times, serif">#101010</text><text id="#box-text-1" x="35" y="108" fill="#101010" font-size="18" font-family="Droid Sans Mono, Times, serif">1</text>
<rect id="#box-2" x="5" y="145"  width="74" height="54" fill= "#7c7c7c" stroke="#7c7c7c" stroke-width="1px" /><rect id="#box-2" x="5" y="193"  width="74" height="6" fill= "#636363" stroke="#636363" stroke-width="1px" /><text id="#box-text-2" x="15" y="186" fill="#7C7C7C" font-size="12" font-family="Droid Sans Mono, Times, serif">#7c7c7c</text><text id="#box-text-2" x="35" y="168" fill="#7C7C7C" font-size="18" font-family="Droid Sans Mono, Times, serif">2</text>
<rect id="#box-3" x="5" y="205"  width="74" height="54" fill= "#8e8e8e" stroke="#8e8e8e" stroke-width="1px" /><rect id="#box-3" x="5" y="253"  width="74" height="6" fill= "#757575" stroke="#757575" stroke-width="1px" /><text id="#box-text-3" x="15" y="246" fill="#8E8E8E" font-size="12" font-family="Droid Sans Mono, Times, serif">#8e8e8e</text><text id="#box-text-3" x="35" y="228" fill="#8E8E8E" font-size="18" font-family="Droid Sans Mono, Times, serif">3</text>
<rect id="#box-4" x="5" y="265"  width="74" height="54" fill= "#a0a0a0" stroke="#a0a0a0" stroke-width="1px" /><rect id="#box-4" x="5" y="313"  width="74" height="6" fill= "#878787" stroke="#878787" stroke-width="1px" /><text id="#box-text-4" x="15" y="306" fill="#A0A0A0" font-size="12" font-family="Droid Sans Mono, Times, serif">#a0a0a0</text><text id="#box-text-4" x="35" y="288" fill="#A0A0A0" font-size="18" font-family="Droid Sans Mono, Times, serif">4</text>
<rect id="#box-5" x="85" y="85"  width="74" height="54" fill= "#686868" stroke="#686868" stroke-width="1px" /><rect id="#box-5" x="85" y="133"  width="74" height="6" fill= "#4F4F4F" stroke="#4F4F4F" stroke-width="1px" /><text id="#box-text-5" x="95" y="126" fill="#686868" font-size="12" font-family="Droid Sans Mono, Times, serif">#686868</text><text id="#box-text-5" x="115" y="108" fill="#686868" font-size="18" font-family="Droid Sans Mono, Times, serif">5</text>
<rect id="#box-6" x="85" y="145"  width="74" height="54" fill= "#747474" stroke="#747474" stroke-width="1px" /><rect id="#box-6" x="85" y="193"  width="74" height="6" fill= "#5B5B5B" stroke="#5B5B5B" stroke-width="1px" /><text id="#box-text-6" x="95" y="186" fill="#747474" font-size="12" font-family="Droid Sans Mono, Times, serif">#747474</text><text id="#box-text-6" x="115" y="168" fill="#747474" font-size="18" font-family="Droid Sans Mono, Times, serif">6</text>
<rect id="#box-7" x="85" y="205"  width="74" height="54" fill= "#868686" stroke="#868686" stroke-width="1px" /><rect id="#box-7" x="85" y="253"  width="74" height="6" fill= "#6D6D6D" stroke="#6D6D6D" stroke-width="1px" /><text id="#box-text-7" x="95" y="246" fill="#868686" font-size="12" font-family="Droid Sans Mono, Times, serif">#868686</text><text id="#box-text-7" x="115" y="228" fill="#868686" font-size="18" font-family="Droid Sans Mono, Times, serif">7</text>
<rect id="#box-8" x="85" y="265"  width="74" height="54" fill= "#b9b9b9" stroke="#b9b9b9" stroke-width="1px" /><rect id="#box-8" x="85" y="313"  width="74" height="6" fill= "#A0A0A0" stroke="#A0A0A0" stroke-width="1px" /><text id="#box-text-8" x="95" y="306" fill="#B9B9B9" font-size="12" font-family="Droid Sans Mono, Times, serif">#b9b9b9</text><text id="#box-text-8" x="115" y="288" fill="#B9B9B9" font-size="18" font-family="Droid Sans Mono, Times, serif">8</text>
<rect id="#box-9" x="165" y="85"  width="74" height="54" fill= "#525252" stroke="#525252" stroke-width="1px" /><rect id="#box-9" x="165" y="133"  width="74" height="6" fill= "#393939" stroke="#393939" stroke-width="1px" /><text id="#box-text-9" x="175" y="126" fill="#525252" font-size="12" font-family="Droid Sans Mono, Times, serif">#525252</text><text id="#box-text-9" x="195" y="108" fill="#525252" font-size="18" font-family="Droid Sans Mono, Times, serif">9</text>
<rect id="#box-10" x="165" y="145"  width="74" height="54" fill= "#7c7c7c" stroke="#7c7c7c" stroke-width="1px" /><rect id="#box-10" x="165" y="193"  width="74" height="6" fill= "#636363" stroke="#636363" stroke-width="1px" /><text id="#box-text-10" x="175" y="186" fill="#7C7C7C" font-size="12" font-family="Droid Sans Mono, Times, serif">#7c7c7c</text><text id="#box-text-10" x="195" y="168" fill="#7C7C7C" font-size="18" font-family="Droid Sans Mono, Times, serif">10</text>
<rect id="#box-11" x="165" y="205"  width="74" height="54" fill= "#8e8e8e" stroke="#8e8e8e" stroke-width="1px" /><rect id="#box-11" x="165" y="253"  width="74" height="6" fill= "#757575" stroke="#757575" stroke-width="1px" /><text id="#box-text-11" x="175" y="246" fill="#8E8E8E" font-size="12" font-family="Droid Sans Mono, Times, serif">#8e8e8e</text><text id="#box-text-11" x="195" y="228" fill="#8E8E8E" font-size="18" font-family="Droid Sans Mono, Times, serif">11</text>
<rect id="#box-12" x="165" y="265"  width="74" height="54" fill= "#a0a0a0" stroke="#a0a0a0" stroke-width="1px" /><rect id="#box-12" x="165" y="313"  width="74" height="6" fill= "#878787" stroke="#878787" stroke-width="1px" /><text id="#box-text-12" x="175" y="306" fill="#A0A0A0" font-size="12" font-family="Droid Sans Mono, Times, serif">#a0a0a0</text><text id="#box-text-12" x="195" y="288" fill="#A0A0A0" font-size="18" font-family="Droid Sans Mono, Times, serif">12</text>
<rect id="#box-13" x="245" y="85"  width="74" height="54" fill= "#686868" stroke="#686868" stroke-width="1px" /><rect id="#box-13" x="245" y="133"  width="74" height="6" fill= "#4F4F4F" stroke="#4F4F4F" stroke-width="1px" /><text id="#box-text-13" x="255" y="126" fill="#686868" font-size="12" font-family="Droid Sans Mono, Times, serif">#686868</text><text id="#box-text-13" x="275" y="108" fill="#686868" font-size="18" font-family="Droid Sans Mono, Times, serif">13</text>
<rect id="#box-14" x="245" y="145"  width="74" height="54" fill= "#747474" stroke="#747474" stroke-width="1px" /><rect id="#box-14" x="245" y="193"  width="74" height="6" fill= "#5B5B5B" stroke="#5B5B5B" stroke-width="1px" /><text id="#box-text-14" x="255" y="186" fill="#747474" font-size="12" font-family="Droid Sans Mono, Times, serif">#747474</text><text id="#box-text-14" x="275" y="168" fill="#747474" font-size="18" font-family="Droid Sans Mono, Times, serif">14</text>
<rect id="#box-15" x="245" y="205"  width="74" height="54" fill= "#868686" stroke="#868686" stroke-width="1px" /><rect id="#box-15" x="245" y="253"  width="74" height="6" fill= "#6D6D6D" stroke="#6D6D6D" stroke-width="1px" /><text id="#box-text-15" x="255" y="246" fill="#868686" font-size="12" font-family="Droid Sans Mono, Times, serif">#868686</text><text id="#box-text-15" x="275" y="228" fill="#868686" font-size="18" font-family="Droid Sans Mono, Times, serif">15</text>
<rect id="#box-16" x="245" y="265"  width="74" height="54" fill= "#f7f7f7" stroke="#f7f7f7" stroke-width="1px" /><rect id="#box-16" x="245" y="313"  width="74" height="6" fill= "#DEDEDE" stroke="#DEDEDE" stroke-width="1px" /><text id="#box-text-16" x="255" y="306" fill="#F7F7F7" font-size="12" font-family="Droid Sans Mono, Times, serif">#f7f7f7</text><text id="#box-text-16" x="275" y="288" fill="#F7F7F7" font-size="18" font-family="Droid Sans Mono, Times, serif">16</text>
</svg>