<svg width="330" height="330">
    <rect fill="#231f20" x="0" y="0" width="330" height="330"></rect>
    <text x="180" y="35" fill="#d9d8d8" text-anchor="middle" alignment-baseline="central" font-size="24">Londontube (dark)</text>
    <text x="10" y="75" fill="#d9d8d8" text-anchor="start"  alignment-baseline="baseline" font-size="14">FG: #d9d8d8. BG: #231f20</text>

<rect id="#box-1" x="5" y="85"  width="74" height="54" fill= "#231f20" stroke="#231f20" stroke-width="1px" /><rect id="#box-1" x="5" y="133"  width="74" height="6" fill= "#080707" stroke="#080707" stroke-width="1px" /><text id="#box-text-1" x="15" y="126" fill="#1F2322" font-size="12" font-family="Droid Sans Mono, Times, serif">#231f20</text><text id="#box-text-1" x="35" y="108" fill="#1F2322" font-size="18" font-family="Droid Sans Mono, Times, serif">1</text>
<rect id="#box-2" x="5" y="145"  width="74" height="54" fill= "#ee2e24" stroke="#ee2e24" stroke-width="1px" /><rect id="#box-2" x="5" y="193"  width="74" height="6" fill= "#CF1A10" stroke="#CF1A10" stroke-width="1px" /><text id="#box-text-2" x="15" y="186" fill="#24E4EE" font-size="12" font-family="Droid Sans Mono, Times, serif">#ee2e24</text><text id="#box-text-2" x="35" y="168" fill="#24E4EE" font-size="18" font-family="Droid Sans Mono, Times, serif">2</text>
<rect id="#box-3" x="5" y="205"  width="74" height="54" fill= "#00853e" stroke="#00853e" stroke-width="1px" /><rect id="#box-3" x="5" y="253"  width="74" height="6" fill= "#005226" stroke="#005226" stroke-width="1px" /><text id="#box-text-3" x="15" y="246" fill="#850047" font-size="12" font-family="Droid Sans Mono, Times, serif">#00853e</text><text id="#box-text-3" x="35" y="228" fill="#850047" font-size="18" font-family="Droid Sans Mono, Times, serif">3</text>
<rect id="#box-4" x="5" y="265"  width="74" height="54" fill= "#ffd204" stroke="#ffd204" stroke-width="1px" /><rect id="#box-4" x="5" y="313"  width="74" height="6" fill= "#D0AB00" stroke="#D0AB00" stroke-width="1px" /><text id="#box-text-4" x="15" y="306" fill="#0431FF" font-size="12" font-family="Droid Sans Mono, Times, serif">#ffd204</text><text id="#box-text-4" x="35" y="288" fill="#0431FF" font-size="18" font-family="Droid Sans Mono, Times, serif">4</text>
<rect id="#box-5" x="85" y="85"  width="74" height="54" fill= "#009ddc" stroke="#009ddc" stroke-width="1px" /><rect id="#box-5" x="85" y="133"  width="74" height="6" fill= "#0079A9" stroke="#0079A9" stroke-width="1px" /><text id="#box-text-5" x="95" y="126" fill="#DC3F00" font-size="12" font-family="Droid Sans Mono, Times, serif">#009ddc</text><text id="#box-text-5" x="115" y="108" fill="#DC3F00" font-size="18" font-family="Droid Sans Mono, Times, serif">5</text>
<rect id="#box-6" x="85" y="145"  width="74" height="54" fill= "#98005d" stroke="#98005d" stroke-width="1px" /><rect id="#box-6" x="85" y="193"  width="74" height="6" fill= "#65003E" stroke="#65003E" stroke-width="1px" /><text id="#box-text-6" x="95" y="186" fill="#00983B" font-size="12" font-family="Droid Sans Mono, Times, serif">#98005d</text><text id="#box-text-6" x="115" y="168" fill="#00983B" font-size="18" font-family="Droid Sans Mono, Times, serif">6</text>
<rect id="#box-7" x="85" y="205"  width="74" height="54" fill= "#85cebc" stroke="#85cebc" stroke-width="1px" /><rect id="#box-7" x="85" y="253"  width="74" height="6" fill= "#61BFA8" stroke="#61BFA8" stroke-width="1px" /><text id="#box-text-7" x="95" y="246" fill="#CE8597" font-size="12" font-family="Droid Sans Mono, Times, serif">#85cebc</text><text id="#box-text-7" x="115" y="228" fill="#CE8597" font-size="18" font-family="Droid Sans Mono, Times, serif">7</text>
<rect id="#box-8" x="85" y="265"  width="74" height="54" fill= "#d9d8d8" stroke="#d9d8d8" stroke-width="1px" /><rect id="#box-8" x="85" y="313"  width="74" height="6" fill= "#C0BEBE" stroke="#C0BEBE" stroke-width="1px" /><text id="#box-text-8" x="95" y="306" fill="#D8D9D9" font-size="12" font-family="Droid Sans Mono, Times, serif">#d9d8d8</text><text id="#box-text-8" x="115" y="288" fill="#D8D9D9" font-size="18" font-family="Droid Sans Mono, Times, serif">8</text>
<rect id="#box-9" x="165" y="85"  width="74" height="54" fill= "#737171" stroke="#737171" stroke-width="1px" /><rect id="#box-9" x="165" y="133"  width="74" height="6" fill= "#595858" stroke="#595858" stroke-width="1px" /><text id="#box-text-9" x="175" y="126" fill="#717373" font-size="12" font-family="Droid Sans Mono, Times, serif">#737171</text><text id="#box-text-9" x="195" y="108" fill="#717373" font-size="18" font-family="Droid Sans Mono, Times, serif">9</text>
<rect id="#box-10" x="165" y="145"  width="74" height="54" fill= "#ee2e24" stroke="#ee2e24" stroke-width="1px" /><rect id="#box-10" x="165" y="193"  width="74" height="6" fill= "#CF1A10" stroke="#CF1A10" stroke-width="1px" /><text id="#box-text-10" x="175" y="186" fill="#24E4EE" font-size="12" font-family="Droid Sans Mono, Times, serif">#ee2e24</text><text id="#box-text-10" x="195" y="168" fill="#24E4EE" font-size="18" font-family="Droid Sans Mono, Times, serif">10</text>
<rect id="#box-11" x="165" y="205"  width="74" height="54" fill= "#00853e" stroke="#00853e" stroke-width="1px" /><rect id="#box-11" x="165" y="253"  width="74" height="6" fill= "#005226" stroke="#005226" stroke-width="1px" /><text id="#box-text-11" x="175" y="246" fill="#850047" font-size="12" font-family="Droid Sans Mono, Times, serif">#00853e</text><text id="#box-text-11" x="195" y="228" fill="#850047" font-size="18" font-family="Droid Sans Mono, Times, serif">11</text>
<rect id="#box-12" x="165" y="265"  width="74" height="54" fill= "#ffd204" stroke="#ffd204" stroke-width="1px" /><rect id="#box-12" x="165" y="313"  width="74" height="6" fill= "#D0AB00" stroke="#D0AB00" stroke-width="1px" /><text id="#box-text-12" x="175" y="306" fill="#0431FF" font-size="12" font-family="Droid Sans Mono, Times, serif">#ffd204</text><text id="#box-text-12" x="195" y="288" fill="#0431FF" font-size="18" font-family="Droid Sans Mono, Times, serif">12</text>
<rect id="#box-13" x="245" y="85"  width="74" height="54" fill= "#009ddc" stroke="#009ddc" stroke-width="1px" /><rect id="#box-13" x="245" y="133"  width="74" height="6" fill= "#0079A9" stroke="#0079A9" stroke-width="1px" /><text id="#box-text-13" x="255" y="126" fill="#DC3F00" font-size="12" font-family="Droid Sans Mono, Times, serif">#009ddc</text><text id="#box-text-13" x="275" y="108" fill="#DC3F00" font-size="18" font-family="Droid Sans Mono, Times, serif">13</text>
<rect id="#box-14" x="245" y="145"  width="74" height="54" fill= "#98005d" stroke="#98005d" stroke-width="1px" /><rect id="#box-14" x="245" y="193"  width="74" height="6" fill= "#65003E" stroke="#65003E" stroke-width="1px" /><text id="#box-text-14" x="255" y="186" fill="#00983B" font-size="12" font-family="Droid Sans Mono, Times, serif">#98005d</text><text id="#box-text-14" x="275" y="168" fill="#00983B" font-size="18" font-family="Droid Sans Mono, Times, serif">14</text>
<rect id="#box-15" x="245" y="205"  width="74" height="54" fill= "#85cebc" stroke="#85cebc" stroke-width="1px" /><rect id="#box-15" x="245" y="253"  width="74" height="6" fill= "#61BFA8" stroke="#61BFA8" stroke-width="1px" /><text id="#box-text-15" x="255" y="246" fill="#CE8597" font-size="12" font-family="Droid Sans Mono, Times, serif">#85cebc</text><text id="#box-text-15" x="275" y="228" fill="#CE8597" font-size="18" font-family="Droid Sans Mono, Times, serif">15</text>
<rect id="#box-16" x="245" y="265"  width="74" height="54" fill= "#ffffff" stroke="#ffffff" stroke-width="1px" /><rect id="#box-16" x="245" y="313"  width="74" height="6" fill= "#E6E6E6" stroke="#E6E6E6" stroke-width="1px" /><text id="#box-text-16" x="255" y="306" fill="#FFFFFF" font-size="12" font-family="Droid Sans Mono, Times, serif">#ffffff</text><text id="#box-text-16" x="275" y="288" fill="#FFFFFF" font-size="18" font-family="Droid Sans Mono, Times, serif">16</text>
</svg>