<svg width="330" height="330">
    <rect fill="#ffffff" x="0" y="0" width="330" height="330"></rect>
    <text x="180" y="35" fill="#606060" text-anchor="middle" alignment-baseline="central" font-size="24">Isotope (light)</text>
    <text x="10" y="75" fill="#606060" text-anchor="start"  alignment-baseline="baseline" font-size="14">FG: #606060. BG: #ffffff</text>

<rect id="#box-1" x="5" y="85"  width="74" height="54" fill= "#000000" stroke="#000000" stroke-width="1px" /><rect id="#box-1" x="5" y="133"  width="74" height="6" fill= "#000000" stroke="#000000" stroke-width="1px" /><text id="#box-text-1" x="15" y="126" fill="#000000" font-size="12" font-family="Droid Sans Mono, Times, serif">#000000</text><text id="#box-text-1" x="35" y="108" fill="#000000" font-size="18" font-family="Droid Sans Mono, Times, serif">1</text>
<rect id="#box-2" x="5" y="145"  width="74" height="54" fill= "#ff0000" stroke="#ff0000" stroke-width="1px" /><rect id="#box-2" x="5" y="193"  width="74" height="6" fill= "#CC0000" stroke="#CC0000" stroke-width="1px" /><text id="#box-text-2" x="15" y="186" fill="#00FFFF" font-size="12" font-family="Droid Sans Mono, Times, serif">#ff0000</text><text id="#box-text-2" x="35" y="168" fill="#00FFFF" font-size="18" font-family="Droid Sans Mono, Times, serif">2</text>
<rect id="#box-3" x="5" y="205"  width="74" height="54" fill= "#33ff00" stroke="#33ff00" stroke-width="1px" /><rect id="#box-3" x="5" y="253"  width="74" height="6" fill= "#29CC00" stroke="#29CC00" stroke-width="1px" /><text id="#box-text-3" x="15" y="246" fill="#CC00FF" font-size="12" font-family="Droid Sans Mono, Times, serif">#33ff00</text><text id="#box-text-3" x="35" y="228" fill="#CC00FF" font-size="18" font-family="Droid Sans Mono, Times, serif">3</text>
<rect id="#box-4" x="5" y="265"  width="74" height="54" fill= "#ff0099" stroke="#ff0099" stroke-width="1px" /><rect id="#box-4" x="5" y="313"  width="74" height="6" fill= "#CC007A" stroke="#CC007A" stroke-width="1px" /><text id="#box-text-4" x="15" y="306" fill="#00FF66" font-size="12" font-family="Droid Sans Mono, Times, serif">#ff0099</text><text id="#box-text-4" x="35" y="288" fill="#00FF66" font-size="18" font-family="Droid Sans Mono, Times, serif">4</text>
<rect id="#box-5" x="85" y="85"  width="74" height="54" fill= "#0066ff" stroke="#0066ff" stroke-width="1px" /><rect id="#box-5" x="85" y="133"  width="74" height="6" fill= "#0052CC" stroke="#0052CC" stroke-width="1px" /><text id="#box-text-5" x="95" y="126" fill="#FF9900" font-size="12" font-family="Droid Sans Mono, Times, serif">#0066ff</text><text id="#box-text-5" x="115" y="108" fill="#FF9900" font-size="18" font-family="Droid Sans Mono, Times, serif">5</text>
<rect id="#box-6" x="85" y="145"  width="74" height="54" fill= "#cc00ff" stroke="#cc00ff" stroke-width="1px" /><rect id="#box-6" x="85" y="193"  width="74" height="6" fill= "#A300CC" stroke="#A300CC" stroke-width="1px" /><text id="#box-text-6" x="95" y="186" fill="#33FF00" font-size="12" font-family="Droid Sans Mono, Times, serif">#cc00ff</text><text id="#box-text-6" x="115" y="168" fill="#33FF00" font-size="18" font-family="Droid Sans Mono, Times, serif">6</text>
<rect id="#box-7" x="85" y="205"  width="74" height="54" fill= "#00ffff" stroke="#00ffff" stroke-width="1px" /><rect id="#box-7" x="85" y="253"  width="74" height="6" fill= "#00CCCC" stroke="#00CCCC" stroke-width="1px" /><text id="#box-text-7" x="95" y="246" fill="#FF0000" font-size="12" font-family="Droid Sans Mono, Times, serif">#00ffff</text><text id="#box-text-7" x="115" y="228" fill="#FF0000" font-size="18" font-family="Droid Sans Mono, Times, serif">7</text>
<rect id="#box-8" x="85" y="265"  width="74" height="54" fill= "#d0d0d0" stroke="#d0d0d0" stroke-width="1px" /><rect id="#box-8" x="85" y="313"  width="74" height="6" fill= "#B7B7B7" stroke="#B7B7B7" stroke-width="1px" /><text id="#box-text-8" x="95" y="306" fill="#D0D0D0" font-size="12" font-family="Droid Sans Mono, Times, serif">#d0d0d0</text><text id="#box-text-8" x="115" y="288" fill="#D0D0D0" font-size="18" font-family="Droid Sans Mono, Times, serif">8</text>
<rect id="#box-9" x="165" y="85"  width="74" height="54" fill= "#808080" stroke="#808080" stroke-width="1px" /><rect id="#box-9" x="165" y="133"  width="74" height="6" fill= "#676767" stroke="#676767" stroke-width="1px" /><text id="#box-text-9" x="175" y="126" fill="#808080" font-size="12" font-family="Droid Sans Mono, Times, serif">#808080</text><text id="#box-text-9" x="195" y="108" fill="#808080" font-size="18" font-family="Droid Sans Mono, Times, serif">9</text>
<rect id="#box-10" x="165" y="145"  width="74" height="54" fill= "#ff0000" stroke="#ff0000" stroke-width="1px" /><rect id="#box-10" x="165" y="193"  width="74" height="6" fill= "#CC0000" stroke="#CC0000" stroke-width="1px" /><text id="#box-text-10" x="175" y="186" fill="#00FFFF" font-size="12" font-family="Droid Sans Mono, Times, serif">#ff0000</text><text id="#box-text-10" x="195" y="168" fill="#00FFFF" font-size="18" font-family="Droid Sans Mono, Times, serif">10</text>
<rect id="#box-11" x="165" y="205"  width="74" height="54" fill= "#33ff00" stroke="#33ff00" stroke-width="1px" /><rect id="#box-11" x="165" y="253"  width="74" height="6" fill= "#29CC00" stroke="#29CC00" stroke-width="1px" /><text id="#box-text-11" x="175" y="246" fill="#CC00FF" font-size="12" font-family="Droid Sans Mono, Times, serif">#33ff00</text><text id="#box-text-11" x="195" y="228" fill="#CC00FF" font-size="18" font-family="Droid Sans Mono, Times, serif">11</text>
<rect id="#box-12" x="165" y="265"  width="74" height="54" fill= "#ff0099" stroke="#ff0099" stroke-width="1px" /><rect id="#box-12" x="165" y="313"  width="74" height="6" fill= "#CC007A" stroke="#CC007A" stroke-width="1px" /><text id="#box-text-12" x="175" y="306" fill="#00FF66" font-size="12" font-family="Droid Sans Mono, Times, serif">#ff0099</text><text id="#box-text-12" x="195" y="288" fill="#00FF66" font-size="18" font-family="Droid Sans Mono, Times, serif">12</text>
<rect id="#box-13" x="245" y="85"  width="74" height="54" fill= "#0066ff" stroke="#0066ff" stroke-width="1px" /><rect id="#box-13" x="245" y="133"  width="74" height="6" fill= "#0052CC" stroke="#0052CC" stroke-width="1px" /><text id="#box-text-13" x="255" y="126" fill="#FF9900" font-size="12" font-family="Droid Sans Mono, Times, serif">#0066ff</text><text id="#box-text-13" x="275" y="108" fill="#FF9900" font-size="18" font-family="Droid Sans Mono, Times, serif">13</text>
<rect id="#box-14" x="245" y="145"  width="74" height="54" fill= "#cc00ff" stroke="#cc00ff" stroke-width="1px" /><rect id="#box-14" x="245" y="193"  width="74" height="6" fill= "#A300CC" stroke="#A300CC" stroke-width="1px" /><text id="#box-text-14" x="255" y="186" fill="#33FF00" font-size="12" font-family="Droid Sans Mono, Times, serif">#cc00ff</text><text id="#box-text-14" x="275" y="168" fill="#33FF00" font-size="18" font-family="Droid Sans Mono, Times, serif">14</text>
<rect id="#box-15" x="245" y="205"  width="74" height="54" fill= "#00ffff" stroke="#00ffff" stroke-width="1px" /><rect id="#box-15" x="245" y="253"  width="74" height="6" fill= "#00CCCC" stroke="#00CCCC" stroke-width="1px" /><text id="#box-text-15" x="255" y="246" fill="#FF0000" font-size="12" font-family="Droid Sans Mono, Times, serif">#00ffff</text><text id="#box-text-15" x="275" y="228" fill="#FF0000" font-size="18" font-family="Droid Sans Mono, Times, serif">15</text>
<rect id="#box-16" x="245" y="265"  width="74" height="54" fill= "#ffffff" stroke="#ffffff" stroke-width="1px" /><rect id="#box-16" x="245" y="313"  width="74" height="6" fill= "#E6E6E6" stroke="#E6E6E6" stroke-width="1px" /><text id="#box-text-16" x="255" y="306" fill="#FFFFFF" font-size="12" font-family="Droid Sans Mono, Times, serif">#ffffff</text><text id="#box-text-16" x="275" y="288" fill="#FFFFFF" font-size="18" font-family="Droid Sans Mono, Times, serif">16</text>
</svg>