<svg width="330" height="330">
    <rect fill="#fcfdfe" x="0" y="0" width="330" height="330"></rect>
    <text x="180" y="35" fill="#515253" text-anchor="middle" alignment-baseline="central" font-size="24">Brewer (light)</text>
    <text x="10" y="75" fill="#515253" text-anchor="start"  alignment-baseline="baseline" font-size="14">FG: #515253. BG: #fcfdfe</text>

<rect id="#box-1" x="5" y="85"  width="74" height="54" fill= "#0c0d0e" stroke="#0c0d0e" stroke-width="1px" /><rect id="#box-1" x="5" y="133"  width="74" height="6" fill= "#000000" stroke="#000000" stroke-width="1px" /><text id="#box-text-1" x="15" y="126" fill="#0E0D0C" font-size="12" font-family="Droid Sans Mono, Times, serif">#0c0d0e</text><text id="#box-text-1" x="35" y="108" fill="#0E0D0C" font-size="18" font-family="Droid Sans Mono, Times, serif">1</text>
<rect id="#box-2" x="5" y="145"  width="74" height="54" fill= "#e31a1c" stroke="#e31a1c" stroke-width="1px" /><rect id="#box-2" x="5" y="193"  width="74" height="6" fill= "#B51516" stroke="#B51516" stroke-width="1px" /><text id="#box-text-2" x="15" y="186" fill="#1AE3E1" font-size="12" font-family="Droid Sans Mono, Times, serif">#e31a1c</text><text id="#box-text-2" x="35" y="168" fill="#1AE3E1" font-size="18" font-family="Droid Sans Mono, Times, serif">2</text>
<rect id="#box-3" x="5" y="205"  width="74" height="54" fill= "#31a354" stroke="#31a354" stroke-width="1px" /><rect id="#box-3" x="5" y="253"  width="74" height="6" fill= "#257C40" stroke="#257C40" stroke-width="1px" /><text id="#box-text-3" x="15" y="246" fill="#A33180" font-size="12" font-family="Droid Sans Mono, Times, serif">#31a354</text><text id="#box-text-3" x="35" y="228" fill="#A33180" font-size="18" font-family="Droid Sans Mono, Times, serif">3</text>
<rect id="#box-4" x="5" y="265"  width="74" height="54" fill= "#dca060" stroke="#dca060" stroke-width="1px" /><rect id="#box-4" x="5" y="313"  width="74" height="6" fill= "#D38736" stroke="#D38736" stroke-width="1px" /><text id="#box-text-4" x="15" y="306" fill="#609CDC" font-size="12" font-family="Droid Sans Mono, Times, serif">#dca060</text><text id="#box-text-4" x="35" y="288" fill="#609CDC" font-size="18" font-family="Droid Sans Mono, Times, serif">4</text>
<rect id="#box-5" x="85" y="85"  width="74" height="54" fill= "#3182bd" stroke="#3182bd" stroke-width="1px" /><rect id="#box-5" x="85" y="133"  width="74" height="6" fill= "#266695" stroke="#266695" stroke-width="1px" /><text id="#box-text-5" x="95" y="126" fill="#BD6C31" font-size="12" font-family="Droid Sans Mono, Times, serif">#3182bd</text><text id="#box-text-5" x="115" y="108" fill="#BD6C31" font-size="18" font-family="Droid Sans Mono, Times, serif">5</text>
<rect id="#box-6" x="85" y="145"  width="74" height="54" fill= "#756bb1" stroke="#756bb1" stroke-width="1px" /><rect id="#box-6" x="85" y="193"  width="74" height="6" fill= "#5B5099" stroke="#5B5099" stroke-width="1px" /><text id="#box-text-6" x="95" y="186" fill="#A7B16B" font-size="12" font-family="Droid Sans Mono, Times, serif">#756bb1</text><text id="#box-text-6" x="115" y="168" fill="#A7B16B" font-size="18" font-family="Droid Sans Mono, Times, serif">6</text>
<rect id="#box-7" x="85" y="205"  width="74" height="54" fill= "#80b1d3" stroke="#80b1d3" stroke-width="1px" /><rect id="#box-7" x="85" y="253"  width="74" height="6" fill= "#5A9AC6" stroke="#5A9AC6" stroke-width="1px" /><text id="#box-text-7" x="95" y="246" fill="#D3A280" font-size="12" font-family="Droid Sans Mono, Times, serif">#80b1d3</text><text id="#box-text-7" x="115" y="228" fill="#D3A280" font-size="18" font-family="Droid Sans Mono, Times, serif">7</text>
<rect id="#box-8" x="85" y="265"  width="74" height="54" fill= "#b7b8b9" stroke="#b7b8b9" stroke-width="1px" /><rect id="#box-8" x="85" y="313"  width="74" height="6" fill= "#9D9FA0" stroke="#9D9FA0" stroke-width="1px" /><text id="#box-text-8" x="95" y="306" fill="#B9B8B7" font-size="12" font-family="Droid Sans Mono, Times, serif">#b7b8b9</text><text id="#box-text-8" x="115" y="288" fill="#B9B8B7" font-size="18" font-family="Droid Sans Mono, Times, serif">8</text>
<rect id="#box-9" x="165" y="85"  width="74" height="54" fill= "#737475" stroke="#737475" stroke-width="1px" /><rect id="#box-9" x="165" y="133"  width="74" height="6" fill= "#5A5B5B" stroke="#5A5B5B" stroke-width="1px" /><text id="#box-text-9" x="175" y="126" fill="#757473" font-size="12" font-family="Droid Sans Mono, Times, serif">#737475</text><text id="#box-text-9" x="195" y="108" fill="#757473" font-size="18" font-family="Droid Sans Mono, Times, serif">9</text>
<rect id="#box-10" x="165" y="145"  width="74" height="54" fill= "#e31a1c" stroke="#e31a1c" stroke-width="1px" /><rect id="#box-10" x="165" y="193"  width="74" height="6" fill= "#B51516" stroke="#B51516" stroke-width="1px" /><text id="#box-text-10" x="175" y="186" fill="#1AE3E1" font-size="12" font-family="Droid Sans Mono, Times, serif">#e31a1c</text><text id="#box-text-10" x="195" y="168" fill="#1AE3E1" font-size="18" font-family="Droid Sans Mono, Times, serif">10</text>
<rect id="#box-11" x="165" y="205"  width="74" height="54" fill= "#31a354" stroke="#31a354" stroke-width="1px" /><rect id="#box-11" x="165" y="253"  width="74" height="6" fill= "#257C40" stroke="#257C40" stroke-width="1px" /><text id="#box-text-11" x="175" y="246" fill="#A33180" font-size="12" font-family="Droid Sans Mono, Times, serif">#31a354</text><text id="#box-text-11" x="195" y="228" fill="#A33180" font-size="18" font-family="Droid Sans Mono, Times, serif">11</text>
<rect id="#box-12" x="165" y="265"  width="74" height="54" fill= "#dca060" stroke="#dca060" stroke-width="1px" /><rect id="#box-12" x="165" y="313"  width="74" height="6" fill= "#D38736" stroke="#D38736" stroke-width="1px" /><text id="#box-text-12" x="175" y="306" fill="#609CDC" font-size="12" font-family="Droid Sans Mono, Times, serif">#dca060</text><text id="#box-text-12" x="195" y="288" fill="#609CDC" font-size="18" font-family="Droid Sans Mono, Times, serif">12</text>
<rect id="#box-13" x="245" y="85"  width="74" height="54" fill= "#3182bd" stroke="#3182bd" stroke-width="1px" /><rect id="#box-13" x="245" y="133"  width="74" height="6" fill= "#266695" stroke="#266695" stroke-width="1px" /><text id="#box-text-13" x="255" y="126" fill="#BD6C31" font-size="12" font-family="Droid Sans Mono, Times, serif">#3182bd</text><text id="#box-text-13" x="275" y="108" fill="#BD6C31" font-size="18" font-family="Droid Sans Mono, Times, serif">13</text>
<rect id="#box-14" x="245" y="145"  width="74" height="54" fill= "#756bb1" stroke="#756bb1" stroke-width="1px" /><rect id="#box-14" x="245" y="193"  width="74" height="6" fill= "#5B5099" stroke="#5B5099" stroke-width="1px" /><text id="#box-text-14" x="255" y="186" fill="#A7B16B" font-size="12" font-family="Droid Sans Mono, Times, serif">#756bb1</text><text id="#box-text-14" x="275" y="168" fill="#A7B16B" font-size="18" font-family="Droid Sans Mono, Times, serif">14</text>
<rect id="#box-15" x="245" y="205"  width="74" height="54" fill= "#80b1d3" stroke="#80b1d3" stroke-width="1px" /><rect id="#box-15" x="245" y="253"  width="74" height="6" fill= "#5A9AC6" stroke="#5A9AC6" stroke-width="1px" /><text id="#box-text-15" x="255" y="246" fill="#D3A280" font-size="12" font-family="Droid Sans Mono, Times, serif">#80b1d3</text><text id="#box-text-15" x="275" y="228" fill="#D3A280" font-size="18" font-family="Droid Sans Mono, Times, serif">15</text>
<rect id="#box-16" x="245" y="265"  width="74" height="54" fill= "#fcfdfe" stroke="#fcfdfe" stroke-width="1px" /><rect id="#box-16" x="245" y="313"  width="74" height="6" fill= "#D6E4F1" stroke="#D6E4F1" stroke-width="1px" /><text id="#box-text-16" x="255" y="306" fill="#FEFDFC" font-size="12" font-family="Droid Sans Mono, Times, serif">#fcfdfe</text><text id="#box-text-16" x="275" y="288" fill="#FEFDFC" font-size="18" font-family="Droid Sans Mono, Times, serif">16</text>
</svg>