<svg width="330" height="330">
    <rect fill="#1c2023" x="0" y="0" width="330" height="330"></rect>
    <text x="180" y="35" fill="#c7ccd1" text-anchor="middle" alignment-baseline="central" font-size="24">Ashes (dark)</text>
    <text x="10" y="75" fill="#c7ccd1" text-anchor="start"  alignment-baseline="baseline" font-size="14">FG: #c7ccd1. BG: #1c2023</text>

<rect id="#box-1" x="5" y="85"  width="74" height="54" fill= "#1c2023" stroke="#1c2023" stroke-width="1px" /><rect id="#box-1" x="5" y="133"  width="74" height="6" fill= "#050607" stroke="#050607" stroke-width="1px" /><text id="#box-text-1" x="15" y="126" fill="#231F1C" font-size="12" font-family="Droid Sans Mono, Times, serif">#1c2023</text><text id="#box-text-1" x="35" y="108" fill="#231F1C" font-size="18" font-family="Droid Sans Mono, Times, serif">1</text>
<rect id="#box-2" x="5" y="145"  width="74" height="54" fill= "#c7ae95" stroke="#c7ae95" stroke-width="1px" /><rect id="#box-2" x="5" y="193"  width="74" height="6" fill= "#B59574" stroke="#B59574" stroke-width="1px" /><text id="#box-text-2" x="15" y="186" fill="#95AEC7" font-size="12" font-family="Droid Sans Mono, Times, serif">#c7ae95</text><text id="#box-text-2" x="35" y="168" fill="#95AEC7" font-size="18" font-family="Droid Sans Mono, Times, serif">2</text>
<rect id="#box-3" x="5" y="205"  width="74" height="54" fill= "#95c7ae" stroke="#95c7ae" stroke-width="1px" /><rect id="#box-3" x="5" y="253"  width="74" height="6" fill= "#74B595" stroke="#74B595" stroke-width="1px" /><text id="#box-text-3" x="15" y="246" fill="#C795AE" font-size="12" font-family="Droid Sans Mono, Times, serif">#95c7ae</text><text id="#box-text-3" x="35" y="228" fill="#C795AE" font-size="18" font-family="Droid Sans Mono, Times, serif">3</text>
<rect id="#box-4" x="5" y="265"  width="74" height="54" fill= "#aec795" stroke="#aec795" stroke-width="1px" /><rect id="#box-4" x="5" y="313"  width="74" height="6" fill= "#95B574" stroke="#95B574" stroke-width="1px" /><text id="#box-text-4" x="15" y="306" fill="#AE95C7" font-size="12" font-family="Droid Sans Mono, Times, serif">#aec795</text><text id="#box-text-4" x="35" y="288" fill="#AE95C7" font-size="18" font-family="Droid Sans Mono, Times, serif">4</text>
<rect id="#box-5" x="85" y="85"  width="74" height="54" fill= "#ae95c7" stroke="#ae95c7" stroke-width="1px" /><rect id="#box-5" x="85" y="133"  width="74" height="6" fill= "#9574B5" stroke="#9574B5" stroke-width="1px" /><text id="#box-text-5" x="95" y="126" fill="#AEC795" font-size="12" font-family="Droid Sans Mono, Times, serif">#ae95c7</text><text id="#box-text-5" x="115" y="108" fill="#AEC795" font-size="18" font-family="Droid Sans Mono, Times, serif">5</text>
<rect id="#box-6" x="85" y="145"  width="74" height="54" fill= "#c795ae" stroke="#c795ae" stroke-width="1px" /><rect id="#box-6" x="85" y="193"  width="74" height="6" fill= "#B57495" stroke="#B57495" stroke-width="1px" /><text id="#box-text-6" x="95" y="186" fill="#95C7AE" font-size="12" font-family="Droid Sans Mono, Times, serif">#c795ae</text><text id="#box-text-6" x="115" y="168" fill="#95C7AE" font-size="18" font-family="Droid Sans Mono, Times, serif">6</text>
<rect id="#box-7" x="85" y="205"  width="74" height="54" fill= "#95aec7" stroke="#95aec7" stroke-width="1px" /><rect id="#box-7" x="85" y="253"  width="74" height="6" fill= "#7495B5" stroke="#7495B5" stroke-width="1px" /><text id="#box-text-7" x="95" y="246" fill="#C7AE95" font-size="12" font-family="Droid Sans Mono, Times, serif">#95aec7</text><text id="#box-text-7" x="115" y="228" fill="#C7AE95" font-size="18" font-family="Droid Sans Mono, Times, serif">7</text>
<rect id="#box-8" x="85" y="265"  width="74" height="54" fill= "#c7ccd1" stroke="#c7ccd1" stroke-width="1px" /><rect id="#box-8" x="85" y="313"  width="74" height="6" fill= "#ABB3BA" stroke="#ABB3BA" stroke-width="1px" /><text id="#box-text-8" x="95" y="306" fill="#D1CCC7" font-size="12" font-family="Droid Sans Mono, Times, serif">#c7ccd1</text><text id="#box-text-8" x="115" y="288" fill="#D1CCC7" font-size="18" font-family="Droid Sans Mono, Times, serif">8</text>
<rect id="#box-9" x="165" y="85"  width="74" height="54" fill= "#747c84" stroke="#747c84" stroke-width="1px" /><rect id="#box-9" x="165" y="133"  width="74" height="6" fill= "#5C6369" stroke="#5C6369" stroke-width="1px" /><text id="#box-text-9" x="175" y="126" fill="#847C74" font-size="12" font-family="Droid Sans Mono, Times, serif">#747c84</text><text id="#box-text-9" x="195" y="108" fill="#847C74" font-size="18" font-family="Droid Sans Mono, Times, serif">9</text>
<rect id="#box-10" x="165" y="145"  width="74" height="54" fill= "#c7ae95" stroke="#c7ae95" stroke-width="1px" /><rect id="#box-10" x="165" y="193"  width="74" height="6" fill= "#B59574" stroke="#B59574" stroke-width="1px" /><text id="#box-text-10" x="175" y="186" fill="#95AEC7" font-size="12" font-family="Droid Sans Mono, Times, serif">#c7ae95</text><text id="#box-text-10" x="195" y="168" fill="#95AEC7" font-size="18" font-family="Droid Sans Mono, Times, serif">10</text>
<rect id="#box-11" x="165" y="205"  width="74" height="54" fill= "#95c7ae" stroke="#95c7ae" stroke-width="1px" /><rect id="#box-11" x="165" y="253"  width="74" height="6" fill= "#74B595" stroke="#74B595" stroke-width="1px" /><text id="#box-text-11" x="175" y="246" fill="#C795AE" font-size="12" font-family="Droid Sans Mono, Times, serif">#95c7ae</text><text id="#box-text-11" x="195" y="228" fill="#C795AE" font-size="18" font-family="Droid Sans Mono, Times, serif">11</text>
<rect id="#box-12" x="165" y="265"  width="74" height="54" fill= "#aec795" stroke="#aec795" stroke-width="1px" /><rect id="#box-12" x="165" y="313"  width="74" height="6" fill= "#95B574" stroke="#95B574" stroke-width="1px" /><text id="#box-text-12" x="175" y="306" fill="#AE95C7" font-size="12" font-family="Droid Sans Mono, Times, serif">#aec795</text><text id="#box-text-12" x="195" y="288" fill="#AE95C7" font-size="18" font-family="Droid Sans Mono, Times, serif">12</text>
<rect id="#box-13" x="245" y="85"  width="74" height="54" fill= "#ae95c7" stroke="#ae95c7" stroke-width="1px" /><rect id="#box-13" x="245" y="133"  width="74" height="6" fill= "#9574B5" stroke="#9574B5" stroke-width="1px" /><text id="#box-text-13" x="255" y="126" fill="#AEC795" font-size="12" font-family="Droid Sans Mono, Times, serif">#ae95c7</text><text id="#box-text-13" x="275" y="108" fill="#AEC795" font-size="18" font-family="Droid Sans Mono, Times, serif">13</text>
<rect id="#box-14" x="245" y="145"  width="74" height="54" fill= "#c795ae" stroke="#c795ae" stroke-width="1px" /><rect id="#box-14" x="245" y="193"  width="74" height="6" fill= "#B57495" stroke="#B57495" stroke-width="1px" /><text id="#box-text-14" x="255" y="186" fill="#95C7AE" font-size="12" font-family="Droid Sans Mono, Times, serif">#c795ae</text><text id="#box-text-14" x="275" y="168" fill="#95C7AE" font-size="18" font-family="Droid Sans Mono, Times, serif">14</text>
<rect id="#box-15" x="245" y="205"  width="74" height="54" fill= "#95aec7" stroke="#95aec7" stroke-width="1px" /><rect id="#box-15" x="245" y="253"  width="74" height="6" fill= "#7495B5" stroke="#7495B5" stroke-width="1px" /><text id="#box-text-15" x="255" y="246" fill="#C7AE95" font-size="12" font-family="Droid Sans Mono, Times, serif">#95aec7</text><text id="#box-text-15" x="275" y="228" fill="#C7AE95" font-size="18" font-family="Droid Sans Mono, Times, serif">15</text>
<rect id="#box-16" x="245" y="265"  width="74" height="54" fill= "#f3f4f5" stroke="#f3f4f5" stroke-width="1px" /><rect id="#box-16" x="245" y="313"  width="74" height="6" fill= "#D7DBDE" stroke="#D7DBDE" stroke-width="1px" /><text id="#box-text-16" x="255" y="306" fill="#F5F4F3" font-size="12" font-family="Droid Sans Mono, Times, serif">#f3f4f5</text><text id="#box-text-16" x="275" y="288" fill="#F5F4F3" font-size="18" font-family="Droid Sans Mono, Times, serif">16</text>
</svg>