<svg width="330" height="330">
    <rect fill="#151515" x="0" y="0" width="330" height="330"></rect>
    <text x="180" y="35" fill="#d0d0d0" text-anchor="middle" alignment-baseline="central" font-size="24">Default (dark)</text>
    <text x="10" y="75" fill="#d0d0d0" text-anchor="start"  alignment-baseline="baseline" font-size="14">FG: #d0d0d0. BG: #151515</text>

<rect id="#box-1" x="5" y="85"  width="74" height="54" fill= "#151515" stroke="#151515" stroke-width="1px" /><rect id="#box-1" x="5" y="133"  width="74" height="6" fill= "#000000" stroke="#000000" stroke-width="1px" /><text id="#box-text-1" x="15" y="126" fill="#151515" font-size="12" font-family="Droid Sans Mono, Times, serif">#151515</text><text id="#box-text-1" x="35" y="108" fill="#151515" font-size="18" font-family="Droid Sans Mono, Times, serif">1</text>
<rect id="#box-2" x="5" y="145"  width="74" height="54" fill= "#ac4142" stroke="#ac4142" stroke-width="1px" /><rect id="#box-2" x="5" y="193"  width="74" height="6" fill= "#873334" stroke="#873334" stroke-width="1px" /><text id="#box-text-2" x="15" y="186" fill="#41ACAB" font-size="12" font-family="Droid Sans Mono, Times, serif">#ac4142</text><text id="#box-text-2" x="35" y="168" fill="#41ACAB" font-size="18" font-family="Droid Sans Mono, Times, serif">2</text>
<rect id="#box-3" x="5" y="205"  width="74" height="54" fill= "#90a959" stroke="#90a959" stroke-width="1px" /><rect id="#box-3" x="5" y="253"  width="74" height="6" fill= "#748847" stroke="#748847" stroke-width="1px" /><text id="#box-text-3" x="15" y="246" fill="#7259A9" font-size="12" font-family="Droid Sans Mono, Times, serif">#90a959</text><text id="#box-text-3" x="35" y="228" fill="#7259A9" font-size="18" font-family="Droid Sans Mono, Times, serif">3</text>
<rect id="#box-4" x="5" y="265"  width="74" height="54" fill= "#f4bf75" stroke="#f4bf75" stroke-width="1px" /><rect id="#box-4" x="5" y="313"  width="74" height="6" fill= "#F0A946" stroke="#F0A946" stroke-width="1px" /><text id="#box-text-4" x="15" y="306" fill="#75AAF4" font-size="12" font-family="Droid Sans Mono, Times, serif">#f4bf75</text><text id="#box-text-4" x="35" y="288" fill="#75AAF4" font-size="18" font-family="Droid Sans Mono, Times, serif">4</text>
<rect id="#box-5" x="85" y="85"  width="74" height="54" fill= "#6a9fb5" stroke="#6a9fb5" stroke-width="1px" /><rect id="#box-5" x="85" y="133"  width="74" height="6" fill= "#4E869E" stroke="#4E869E" stroke-width="1px" /><text id="#box-text-5" x="95" y="126" fill="#B5806A" font-size="12" font-family="Droid Sans Mono, Times, serif">#6a9fb5</text><text id="#box-text-5" x="115" y="108" fill="#B5806A" font-size="18" font-family="Droid Sans Mono, Times, serif">5</text>
<rect id="#box-6" x="85" y="145"  width="74" height="54" fill= "#aa759f" stroke="#aa759f" stroke-width="1px" /><rect id="#box-6" x="85" y="193"  width="74" height="6" fill= "#925A86" stroke="#925A86" stroke-width="1px" /><text id="#box-text-6" x="95" y="186" fill="#75AA80" font-size="12" font-family="Droid Sans Mono, Times, serif">#aa759f</text><text id="#box-text-6" x="115" y="168" fill="#75AA80" font-size="18" font-family="Droid Sans Mono, Times, serif">6</text>
<rect id="#box-7" x="85" y="205"  width="74" height="54" fill= "#75b5aa" stroke="#75b5aa" stroke-width="1px" /><rect id="#box-7" x="85" y="253"  width="74" height="6" fill= "#56A194" stroke="#56A194" stroke-width="1px" /><text id="#box-text-7" x="95" y="246" fill="#B57580" font-size="12" font-family="Droid Sans Mono, Times, serif">#75b5aa</text><text id="#box-text-7" x="115" y="228" fill="#B57580" font-size="18" font-family="Droid Sans Mono, Times, serif">7</text>
<rect id="#box-8" x="85" y="265"  width="74" height="54" fill= "#d0d0d0" stroke="#d0d0d0" stroke-width="1px" /><rect id="#box-8" x="85" y="313"  width="74" height="6" fill= "#B7B7B7" stroke="#B7B7B7" stroke-width="1px" /><text id="#box-text-8" x="95" y="306" fill="#D0D0D0" font-size="12" font-family="Droid Sans Mono, Times, serif">#d0d0d0</text><text id="#box-text-8" x="115" y="288" fill="#D0D0D0" font-size="18" font-family="Droid Sans Mono, Times, serif">8</text>
<rect id="#box-9" x="165" y="85"  width="74" height="54" fill= "#505050" stroke="#505050" stroke-width="1px" /><rect id="#box-9" x="165" y="133"  width="74" height="6" fill= "#373737" stroke="#373737" stroke-width="1px" /><text id="#box-text-9" x="175" y="126" fill="#505050" font-size="12" font-family="Droid Sans Mono, Times, serif">#505050</text><text id="#box-text-9" x="195" y="108" fill="#505050" font-size="18" font-family="Droid Sans Mono, Times, serif">9</text>
<rect id="#box-10" x="165" y="145"  width="74" height="54" fill= "#ac4142" stroke="#ac4142" stroke-width="1px" /><rect id="#box-10" x="165" y="193"  width="74" height="6" fill= "#873334" stroke="#873334" stroke-width="1px" /><text id="#box-text-10" x="175" y="186" fill="#41ACAB" font-size="12" font-family="Droid Sans Mono, Times, serif">#ac4142</text><text id="#box-text-10" x="195" y="168" fill="#41ACAB" font-size="18" font-family="Droid Sans Mono, Times, serif">10</text>
<rect id="#box-11" x="165" y="205"  width="74" height="54" fill= "#90a959" stroke="#90a959" stroke-width="1px" /><rect id="#box-11" x="165" y="253"  width="74" height="6" fill= "#748847" stroke="#748847" stroke-width="1px" /><text id="#box-text-11" x="175" y="246" fill="#7259A9" font-size="12" font-family="Droid Sans Mono, Times, serif">#90a959</text><text id="#box-text-11" x="195" y="228" fill="#7259A9" font-size="18" font-family="Droid Sans Mono, Times, serif">11</text>
<rect id="#box-12" x="165" y="265"  width="74" height="54" fill= "#f4bf75" stroke="#f4bf75" stroke-width="1px" /><rect id="#box-12" x="165" y="313"  width="74" height="6" fill= "#F0A946" stroke="#F0A946" stroke-width="1px" /><text id="#box-text-12" x="175" y="306" fill="#75AAF4" font-size="12" font-family="Droid Sans Mono, Times, serif">#f4bf75</text><text id="#box-text-12" x="195" y="288" fill="#75AAF4" font-size="18" font-family="Droid Sans Mono, Times, serif">12</text>
<rect id="#box-13" x="245" y="85"  width="74" height="54" fill= "#6a9fb5" stroke="#6a9fb5" stroke-width="1px" /><rect id="#box-13" x="245" y="133"  width="74" height="6" fill= "#4E869E" stroke="#4E869E" stroke-width="1px" /><text id="#box-text-13" x="255" y="126" fill="#B5806A" font-size="12" font-family="Droid Sans Mono, Times, serif">#6a9fb5</text><text id="#box-text-13" x="275" y="108" fill="#B5806A" font-size="18" font-family="Droid Sans Mono, Times, serif">13</text>
<rect id="#box-14" x="245" y="145"  width="74" height="54" fill= "#aa759f" stroke="#aa759f" stroke-width="1px" /><rect id="#box-14" x="245" y="193"  width="74" height="6" fill= "#925A86" stroke="#925A86" stroke-width="1px" /><text id="#box-text-14" x="255" y="186" fill="#75AA80" font-size="12" font-family="Droid Sans Mono, Times, serif">#aa759f</text><text id="#box-text-14" x="275" y="168" fill="#75AA80" font-size="18" font-family="Droid Sans Mono, Times, serif">14</text>
<rect id="#box-15" x="245" y="205"  width="74" height="54" fill= "#75b5aa" stroke="#75b5aa" stroke-width="1px" /><rect id="#box-15" x="245" y="253"  width="74" height="6" fill= "#56A194" stroke="#56A194" stroke-width="1px" /><text id="#box-text-15" x="255" y="246" fill="#B57580" font-size="12" font-family="Droid Sans Mono, Times, serif">#75b5aa</text><text id="#box-text-15" x="275" y="228" fill="#B57580" font-size="18" font-family="Droid Sans Mono, Times, serif">15</text>
<rect id="#box-16" x="245" y="265"  width="74" height="54" fill= "#f5f5f5" stroke="#f5f5f5" stroke-width="1px" /><rect id="#box-16" x="245" y="313"  width="74" height="6" fill= "#DCDCDC" stroke="#DCDCDC" stroke-width="1px" /><text id="#box-text-16" x="255" y="306" fill="#F5F5F5" font-size="12" font-family="Droid Sans Mono, Times, serif">#f5f5f5</text><text id="#box-text-16" x="275" y="288" fill="#F5F5F5" font-size="18" font-family="Droid Sans Mono, Times, serif">16</text>
</svg>