<svg width="330" height="330">
    <rect fill="#fdf6e3" x="0" y="0" width="330" height="330"></rect>
    <text x="180" y="35" fill="#586e75" text-anchor="middle" alignment-baseline="central" font-size="24">Solarized (light)</text>
    <text x="10" y="75" fill="#586e75" text-anchor="start"  alignment-baseline="baseline" font-size="14">FG: #586e75. BG: #fdf6e3</text>

<rect id="#box-1" x="5" y="85"  width="74" height="54" fill= "#002b36" stroke="#002b36" stroke-width="1px" /><rect id="#box-1" x="5" y="133"  width="74" height="6" fill= "#000203" stroke="#000203" stroke-width="1px" /><text id="#box-text-1" x="15" y="126" fill="#360B00" font-size="12" font-family="Droid Sans Mono, Times, serif">#002b36</text><text id="#box-text-1" x="35" y="108" fill="#360B00" font-size="18" font-family="Droid Sans Mono, Times, serif">1</text>
<rect id="#box-2" x="5" y="145"  width="74" height="54" fill= "#dc322f" stroke="#dc322f" stroke-width="1px" /><rect id="#box-2" x="5" y="193"  width="74" height="6" fill= "#B9221F" stroke="#B9221F" stroke-width="1px" /><text id="#box-text-2" x="15" y="186" fill="#2FD9DC" font-size="12" font-family="Droid Sans Mono, Times, serif">#dc322f</text><text id="#box-text-2" x="35" y="168" fill="#2FD9DC" font-size="18" font-family="Droid Sans Mono, Times, serif">2</text>
<rect id="#box-3" x="5" y="205"  width="74" height="54" fill= "#859900" stroke="#859900" stroke-width="1px" /><rect id="#box-3" x="5" y="253"  width="74" height="6" fill= "#596600" stroke="#596600" stroke-width="1px" /><text id="#box-text-3" x="15" y="246" fill="#140099" font-size="12" font-family="Droid Sans Mono, Times, serif">#859900</text><text id="#box-text-3" x="35" y="228" fill="#140099" font-size="18" font-family="Droid Sans Mono, Times, serif">3</text>
<rect id="#box-4" x="5" y="265"  width="74" height="54" fill= "#b58900" stroke="#b58900" stroke-width="1px" /><rect id="#box-4" x="5" y="313"  width="74" height="6" fill= "#826200" stroke="#826200" stroke-width="1px" /><text id="#box-text-4" x="15" y="306" fill="#002CB5" font-size="12" font-family="Droid Sans Mono, Times, serif">#b58900</text><text id="#box-text-4" x="35" y="288" fill="#002CB5" font-size="18" font-family="Droid Sans Mono, Times, serif">4</text>
<rect id="#box-5" x="85" y="85"  width="74" height="54" fill= "#268bd2" stroke="#268bd2" stroke-width="1px" /><rect id="#box-5" x="85" y="133"  width="74" height="6" fill= "#1E6EA7" stroke="#1E6EA7" stroke-width="1px" /><text id="#box-text-5" x="95" y="126" fill="#D26D26" font-size="12" font-family="Droid Sans Mono, Times, serif">#268bd2</text><text id="#box-text-5" x="115" y="108" fill="#D26D26" font-size="18" font-family="Droid Sans Mono, Times, serif">5</text>
<rect id="#box-6" x="85" y="145"  width="74" height="54" fill= "#6c71c4" stroke="#6c71c4" stroke-width="1px" /><rect id="#box-6" x="85" y="193"  width="74" height="6" fill= "#484FB5" stroke="#484FB5" stroke-width="1px" /><text id="#box-text-6" x="95" y="186" fill="#C4BF6C" font-size="12" font-family="Droid Sans Mono, Times, serif">#6c71c4</text><text id="#box-text-6" x="115" y="168" fill="#C4BF6C" font-size="18" font-family="Droid Sans Mono, Times, serif">6</text>
<rect id="#box-7" x="85" y="205"  width="74" height="54" fill= "#2aa198" stroke="#2aa198" stroke-width="1px" /><rect id="#box-7" x="85" y="253"  width="74" height="6" fill= "#1F7972" stroke="#1F7972" stroke-width="1px" /><text id="#box-text-7" x="95" y="246" fill="#A12A33" font-size="12" font-family="Droid Sans Mono, Times, serif">#2aa198</text><text id="#box-text-7" x="115" y="228" fill="#A12A33" font-size="18" font-family="Droid Sans Mono, Times, serif">7</text>
<rect id="#box-8" x="85" y="265"  width="74" height="54" fill= "#93a1a1" stroke="#93a1a1" stroke-width="1px" /><rect id="#box-8" x="85" y="313"  width="74" height="6" fill= "#788989" stroke="#788989" stroke-width="1px" /><text id="#box-text-8" x="95" y="306" fill="#A19393" font-size="12" font-family="Droid Sans Mono, Times, serif">#93a1a1</text><text id="#box-text-8" x="115" y="288" fill="#A19393" font-size="18" font-family="Droid Sans Mono, Times, serif">8</text>
<rect id="#box-9" x="165" y="85"  width="74" height="54" fill= "#657b83" stroke="#657b83" stroke-width="1px" /><rect id="#box-9" x="165" y="133"  width="74" height="6" fill= "#4F6066" stroke="#4F6066" stroke-width="1px" /><text id="#box-text-9" x="175" y="126" fill="#836D65" font-size="12" font-family="Droid Sans Mono, Times, serif">#657b83</text><text id="#box-text-9" x="195" y="108" fill="#836D65" font-size="18" font-family="Droid Sans Mono, Times, serif">9</text>
<rect id="#box-10" x="165" y="145"  width="74" height="54" fill= "#dc322f" stroke="#dc322f" stroke-width="1px" /><rect id="#box-10" x="165" y="193"  width="74" height="6" fill= "#B9221F" stroke="#B9221F" stroke-width="1px" /><text id="#box-text-10" x="175" y="186" fill="#2FD9DC" font-size="12" font-family="Droid Sans Mono, Times, serif">#dc322f</text><text id="#box-text-10" x="195" y="168" fill="#2FD9DC" font-size="18" font-family="Droid Sans Mono, Times, serif">10</text>
<rect id="#box-11" x="165" y="205"  width="74" height="54" fill= "#859900" stroke="#859900" stroke-width="1px" /><rect id="#box-11" x="165" y="253"  width="74" height="6" fill= "#596600" stroke="#596600" stroke-width="1px" /><text id="#box-text-11" x="175" y="246" fill="#140099" font-size="12" font-family="Droid Sans Mono, Times, serif">#859900</text><text id="#box-text-11" x="195" y="228" fill="#140099" font-size="18" font-family="Droid Sans Mono, Times, serif">11</text>
<rect id="#box-12" x="165" y="265"  width="74" height="54" fill= "#b58900" stroke="#b58900" stroke-width="1px" /><rect id="#box-12" x="165" y="313"  width="74" height="6" fill= "#826200" stroke="#826200" stroke-width="1px" /><text id="#box-text-12" x="175" y="306" fill="#002CB5" font-size="12" font-family="Droid Sans Mono, Times, serif">#b58900</text><text id="#box-text-12" x="195" y="288" fill="#002CB5" font-size="18" font-family="Droid Sans Mono, Times, serif">12</text>
<rect id="#box-13" x="245" y="85"  width="74" height="54" fill= "#268bd2" stroke="#268bd2" stroke-width="1px" /><rect id="#box-13" x="245" y="133"  width="74" height="6" fill= "#1E6EA7" stroke="#1E6EA7" stroke-width="1px" /><text id="#box-text-13" x="255" y="126" fill="#D26D26" font-size="12" font-family="Droid Sans Mono, Times, serif">#268bd2</text><text id="#box-text-13" x="275" y="108" fill="#D26D26" font-size="18" font-family="Droid Sans Mono, Times, serif">13</text>
<rect id="#box-14" x="245" y="145"  width="74" height="54" fill= "#6c71c4" stroke="#6c71c4" stroke-width="1px" /><rect id="#box-14" x="245" y="193"  width="74" height="6" fill= "#484FB5" stroke="#484FB5" stroke-width="1px" /><text id="#box-text-14" x="255" y="186" fill="#C4BF6C" font-size="12" font-family="Droid Sans Mono, Times, serif">#6c71c4</text><text id="#box-text-14" x="275" y="168" fill="#C4BF6C" font-size="18" font-family="Droid Sans Mono, Times, serif">14</text>
<rect id="#box-15" x="245" y="205"  width="74" height="54" fill= "#2aa198" stroke="#2aa198" stroke-width="1px" /><rect id="#box-15" x="245" y="253"  width="74" height="6" fill= "#1F7972" stroke="#1F7972" stroke-width="1px" /><text id="#box-text-15" x="255" y="246" fill="#A12A33" font-size="12" font-family="Droid Sans Mono, Times, serif">#2aa198</text><text id="#box-text-15" x="275" y="228" fill="#A12A33" font-size="18" font-family="Droid Sans Mono, Times, serif">15</text>
<rect id="#box-16" x="245" y="265"  width="74" height="54" fill= "#fdf6e3" stroke="#fdf6e3" stroke-width="1px" /><rect id="#box-16" x="245" y="313"  width="74" height="6" fill= "#FAE7B3" stroke="#FAE7B3" stroke-width="1px" /><text id="#box-text-16" x="255" y="306" fill="#E3EAFD" font-size="12" font-family="Droid Sans Mono, Times, serif">#fdf6e3</text><text id="#box-text-16" x="275" y="288" fill="#E3EAFD" font-size="18" font-family="Droid Sans Mono, Times, serif">16</text>
</svg>