<svg width="330" height="330">
    <rect fill="#ebf8ff" x="0" y="0" width="330" height="330"></rect>
    <text x="180" y="35" fill="#516d7b" text-anchor="middle" alignment-baseline="central" font-size="24">Atelierlakeside (light)</text>
    <text x="10" y="75" fill="#516d7b" text-anchor="start"  alignment-baseline="baseline" font-size="14">FG: #516d7b. BG: #ebf8ff</text>

<rect id="#box-1" x="5" y="85"  width="74" height="54" fill= "#161b1d" stroke="#161b1d" stroke-width="1px" /><rect id="#box-1" x="5" y="133"  width="74" height="6" fill= "#000000" stroke="#000000" stroke-width="1px" /><text id="#box-text-1" x="15" y="126" fill="#1D1816" font-size="12" font-family="Droid Sans Mono, Times, serif">#161b1d</text><text id="#box-text-1" x="35" y="108" fill="#1D1816" font-size="18" font-family="Droid Sans Mono, Times, serif">1</text>
<rect id="#box-2" x="5" y="145"  width="74" height="54" fill= "#d22d72" stroke="#d22d72" stroke-width="1px" /><rect id="#box-2" x="5" y="193"  width="74" height="6" fill= "#A8245B" stroke="#A8245B" stroke-width="1px" /><text id="#box-text-2" x="15" y="186" fill="#2DD28D" font-size="12" font-family="Droid Sans Mono, Times, serif">#d22d72</text><text id="#box-text-2" x="35" y="168" fill="#2DD28D" font-size="18" font-family="Droid Sans Mono, Times, serif">2</text>
<rect id="#box-3" x="5" y="205"  width="74" height="54" fill= "#568c3b" stroke="#568c3b" stroke-width="1px" /><rect id="#box-3" x="5" y="253"  width="74" height="6" fill= "#40682C" stroke="#40682C" stroke-width="1px" /><text id="#box-text-3" x="15" y="246" fill="#713B8C" font-size="12" font-family="Droid Sans Mono, Times, serif">#568c3b</text><text id="#box-text-3" x="35" y="228" fill="#713B8C" font-size="18" font-family="Droid Sans Mono, Times, serif">3</text>
<rect id="#box-4" x="5" y="265"  width="74" height="54" fill= "#8a8a0f" stroke="#8a8a0f" stroke-width="1px" /><rect id="#box-4" x="5" y="313"  width="74" height="6" fill= "#5C5C0A" stroke="#5C5C0A" stroke-width="1px" /><text id="#box-text-4" x="15" y="306" fill="#0F0F8A" font-size="12" font-family="Droid Sans Mono, Times, serif">#8a8a0f</text><text id="#box-text-4" x="35" y="288" fill="#0F0F8A" font-size="18" font-family="Droid Sans Mono, Times, serif">4</text>
<rect id="#box-5" x="85" y="85"  width="74" height="54" fill= "#257fad" stroke="#257fad" stroke-width="1px" /><rect id="#box-5" x="85" y="133"  width="74" height="6" fill= "#1C6083" stroke="#1C6083" stroke-width="1px" /><text id="#box-text-5" x="95" y="126" fill="#AD5325" font-size="12" font-family="Droid Sans Mono, Times, serif">#257fad</text><text id="#box-text-5" x="115" y="108" fill="#AD5325" font-size="18" font-family="Droid Sans Mono, Times, serif">5</text>
<rect id="#box-6" x="85" y="145"  width="74" height="54" fill= "#5d5db1" stroke="#5d5db1" stroke-width="1px" /><rect id="#box-6" x="85" y="193"  width="74" height="6" fill= "#474794" stroke="#474794" stroke-width="1px" /><text id="#box-text-6" x="95" y="186" fill="#B1B15D" font-size="12" font-family="Droid Sans Mono, Times, serif">#5d5db1</text><text id="#box-text-6" x="115" y="168" fill="#B1B15D" font-size="18" font-family="Droid Sans Mono, Times, serif">6</text>
<rect id="#box-7" x="85" y="205"  width="74" height="54" fill= "#2d8f6f" stroke="#2d8f6f" stroke-width="1px" /><rect id="#box-7" x="85" y="253"  width="74" height="6" fill= "#216851" stroke="#216851" stroke-width="1px" /><text id="#box-text-7" x="95" y="246" fill="#8F2D4D" font-size="12" font-family="Droid Sans Mono, Times, serif">#2d8f6f</text><text id="#box-text-7" x="115" y="228" fill="#8F2D4D" font-size="18" font-family="Droid Sans Mono, Times, serif">7</text>
<rect id="#box-8" x="85" y="265"  width="74" height="54" fill= "#7ea2b4" stroke="#7ea2b4" stroke-width="1px" /><rect id="#box-8" x="85" y="313"  width="74" height="6" fill= "#5E8BA1" stroke="#5E8BA1" stroke-width="1px" /><text id="#box-text-8" x="95" y="306" fill="#B4907E" font-size="12" font-family="Droid Sans Mono, Times, serif">#7ea2b4</text><text id="#box-text-8" x="115" y="288" fill="#B4907E" font-size="18" font-family="Droid Sans Mono, Times, serif">8</text>
<rect id="#box-9" x="165" y="85"  width="74" height="54" fill= "#5a7b8c" stroke="#5a7b8c" stroke-width="1px" /><rect id="#box-9" x="165" y="133"  width="74" height="6" fill= "#46606D" stroke="#46606D" stroke-width="1px" /><text id="#box-text-9" x="175" y="126" fill="#8C6B5A" font-size="12" font-family="Droid Sans Mono, Times, serif">#5a7b8c</text><text id="#box-text-9" x="195" y="108" fill="#8C6B5A" font-size="18" font-family="Droid Sans Mono, Times, serif">9</text>
<rect id="#box-10" x="165" y="145"  width="74" height="54" fill= "#d22d72" stroke="#d22d72" stroke-width="1px" /><rect id="#box-10" x="165" y="193"  width="74" height="6" fill= "#A8245B" stroke="#A8245B" stroke-width="1px" /><text id="#box-text-10" x="175" y="186" fill="#2DD28D" font-size="12" font-family="Droid Sans Mono, Times, serif">#d22d72</text><text id="#box-text-10" x="195" y="168" fill="#2DD28D" font-size="18" font-family="Droid Sans Mono, Times, serif">10</text>
<rect id="#box-11" x="165" y="205"  width="74" height="54" fill= "#568c3b" stroke="#568c3b" stroke-width="1px" /><rect id="#box-11" x="165" y="253"  width="74" height="6" fill= "#40682C" stroke="#40682C" stroke-width="1px" /><text id="#box-text-11" x="175" y="246" fill="#713B8C" font-size="12" font-family="Droid Sans Mono, Times, serif">#568c3b</text><text id="#box-text-11" x="195" y="228" fill="#713B8C" font-size="18" font-family="Droid Sans Mono, Times, serif">11</text>
<rect id="#box-12" x="165" y="265"  width="74" height="54" fill= "#8a8a0f" stroke="#8a8a0f" stroke-width="1px" /><rect id="#box-12" x="165" y="313"  width="74" height="6" fill= "#5C5C0A" stroke="#5C5C0A" stroke-width="1px" /><text id="#box-text-12" x="175" y="306" fill="#0F0F8A" font-size="12" font-family="Droid Sans Mono, Times, serif">#8a8a0f</text><text id="#box-text-12" x="195" y="288" fill="#0F0F8A" font-size="18" font-family="Droid Sans Mono, Times, serif">12</text>
<rect id="#box-13" x="245" y="85"  width="74" height="54" fill= "#257fad" stroke="#257fad" stroke-width="1px" /><rect id="#box-13" x="245" y="133"  width="74" height="6" fill= "#1C6083" stroke="#1C6083" stroke-width="1px" /><text id="#box-text-13" x="255" y="126" fill="#AD5325" font-size="12" font-family="Droid Sans Mono, Times, serif">#257fad</text><text id="#box-text-13" x="275" y="108" fill="#AD5325" font-size="18" font-family="Droid Sans Mono, Times, serif">13</text>
<rect id="#box-14" x="245" y="145"  width="74" height="54" fill= "#5d5db1" stroke="#5d5db1" stroke-width="1px" /><rect id="#box-14" x="245" y="193"  width="74" height="6" fill= "#474794" stroke="#474794" stroke-width="1px" /><text id="#box-text-14" x="255" y="186" fill="#B1B15D" font-size="12" font-family="Droid Sans Mono, Times, serif">#5d5db1</text><text id="#box-text-14" x="275" y="168" fill="#B1B15D" font-size="18" font-family="Droid Sans Mono, Times, serif">14</text>
<rect id="#box-15" x="245" y="205"  width="74" height="54" fill= "#2d8f6f" stroke="#2d8f6f" stroke-width="1px" /><rect id="#box-15" x="245" y="253"  width="74" height="6" fill= "#216851" stroke="#216851" stroke-width="1px" /><text id="#box-text-15" x="255" y="246" fill="#8F2D4D" font-size="12" font-family="Droid Sans Mono, Times, serif">#2d8f6f</text><text id="#box-text-15" x="275" y="228" fill="#8F2D4D" font-size="18" font-family="Droid Sans Mono, Times, serif">15</text>
<rect id="#box-16" x="245" y="265"  width="74" height="54" fill= "#ebf8ff" stroke="#ebf8ff" stroke-width="1px" /><rect id="#box-16" x="245" y="313"  width="74" height="6" fill= "#B8E6FF" stroke="#B8E6FF" stroke-width="1px" /><text id="#box-text-16" x="255" y="306" fill="#FFF2EB" font-size="12" font-family="Droid Sans Mono, Times, serif">#ebf8ff</text><text id="#box-text-16" x="275" y="288" fill="#FFF2EB" font-size="18" font-family="Droid Sans Mono, Times, serif">16</text>
</svg>