<svg width="330" height="330">
    <rect fill="#f7f3f7" x="0" y="0" width="330" height="330"></rect>
    <text x="180" y="35" fill="#695d69" text-anchor="middle" alignment-baseline="central" font-size="24">Atelierheath (light)</text>
    <text x="10" y="75" fill="#695d69" text-anchor="start"  alignment-baseline="baseline" font-size="14">FG: #695d69. BG: #f7f3f7</text>

<rect id="#box-1" x="5" y="85"  width="74" height="54" fill= "#1b181b" stroke="#1b181b" stroke-width="1px" /><rect id="#box-1" x="5" y="133"  width="74" height="6" fill= "#000000" stroke="#000000" stroke-width="1px" /><text id="#box-text-1" x="15" y="126" fill="#181B18" font-size="12" font-family="Droid Sans Mono, Times, serif">#1b181b</text><text id="#box-text-1" x="35" y="108" fill="#181B18" font-size="18" font-family="Droid Sans Mono, Times, serif">1</text>
<rect id="#box-2" x="5" y="145"  width="74" height="54" fill= "#ca402b" stroke="#ca402b" stroke-width="1px" /><rect id="#box-2" x="5" y="193"  width="74" height="6" fill= "#A03322" stroke="#A03322" stroke-width="1px" /><text id="#box-text-2" x="15" y="186" fill="#2BB5CA" font-size="12" font-family="Droid Sans Mono, Times, serif">#ca402b</text><text id="#box-text-2" x="35" y="168" fill="#2BB5CA" font-size="18" font-family="Droid Sans Mono, Times, serif">2</text>
<rect id="#box-3" x="5" y="205"  width="74" height="54" fill= "#379a37" stroke="#379a37" stroke-width="1px" /><rect id="#box-3" x="5" y="253"  width="74" height="6" fill= "#2A742A" stroke="#2A742A" stroke-width="1px" /><text id="#box-text-3" x="15" y="246" fill="#9A379A" font-size="12" font-family="Droid Sans Mono, Times, serif">#379a37</text><text id="#box-text-3" x="35" y="228" fill="#9A379A" font-size="18" font-family="Droid Sans Mono, Times, serif">3</text>
<rect id="#box-4" x="5" y="265"  width="74" height="54" fill= "#bb8a35" stroke="#bb8a35" stroke-width="1px" /><rect id="#box-4" x="5" y="313"  width="74" height="6" fill= "#936D2A" stroke="#936D2A" stroke-width="1px" /><text id="#box-text-4" x="15" y="306" fill="#3566BB" font-size="12" font-family="Droid Sans Mono, Times, serif">#bb8a35</text><text id="#box-text-4" x="35" y="288" fill="#3566BB" font-size="18" font-family="Droid Sans Mono, Times, serif">4</text>
<rect id="#box-5" x="85" y="85"  width="74" height="54" fill= "#516aec" stroke="#516aec" stroke-width="1px" /><rect id="#box-5" x="85" y="133"  width="74" height="6" fill= "#2343E7" stroke="#2343E7" stroke-width="1px" /><text id="#box-text-5" x="95" y="126" fill="#ECD351" font-size="12" font-family="Droid Sans Mono, Times, serif">#516aec</text><text id="#box-text-5" x="115" y="108" fill="#ECD351" font-size="18" font-family="Droid Sans Mono, Times, serif">5</text>
<rect id="#box-6" x="85" y="145"  width="74" height="54" fill= "#7b59c0" stroke="#7b59c0" stroke-width="1px" /><rect id="#box-6" x="85" y="193"  width="74" height="6" fill= "#613FA7" stroke="#613FA7" stroke-width="1px" /><text id="#box-text-6" x="95" y="186" fill="#9EC059" font-size="12" font-family="Droid Sans Mono, Times, serif">#7b59c0</text><text id="#box-text-6" x="115" y="168" fill="#9EC059" font-size="18" font-family="Droid Sans Mono, Times, serif">6</text>
<rect id="#box-7" x="85" y="205"  width="74" height="54" fill= "#159393" stroke="#159393" stroke-width="1px" /><rect id="#box-7" x="85" y="253"  width="74" height="6" fill= "#0F6666" stroke="#0F6666" stroke-width="1px" /><text id="#box-text-7" x="95" y="246" fill="#931515" font-size="12" font-family="Droid Sans Mono, Times, serif">#159393</text><text id="#box-text-7" x="115" y="228" fill="#931515" font-size="18" font-family="Droid Sans Mono, Times, serif">7</text>
<rect id="#box-8" x="85" y="265"  width="74" height="54" fill= "#ab9bab" stroke="#ab9bab" stroke-width="1px" /><rect id="#box-8" x="85" y="313"  width="74" height="6" fill= "#947F94" stroke="#947F94" stroke-width="1px" /><text id="#box-text-8" x="95" y="306" fill="#9BAB9B" font-size="12" font-family="Droid Sans Mono, Times, serif">#ab9bab</text><text id="#box-text-8" x="115" y="288" fill="#9BAB9B" font-size="18" font-family="Droid Sans Mono, Times, serif">8</text>
<rect id="#box-9" x="165" y="85"  width="74" height="54" fill= "#776977" stroke="#776977" stroke-width="1px" /><rect id="#box-9" x="165" y="133"  width="74" height="6" fill= "#5C515C" stroke="#5C515C" stroke-width="1px" /><text id="#box-text-9" x="175" y="126" fill="#697769" font-size="12" font-family="Droid Sans Mono, Times, serif">#776977</text><text id="#box-text-9" x="195" y="108" fill="#697769" font-size="18" font-family="Droid Sans Mono, Times, serif">9</text>
<rect id="#box-10" x="165" y="145"  width="74" height="54" fill= "#ca402b" stroke="#ca402b" stroke-width="1px" /><rect id="#box-10" x="165" y="193"  width="74" height="6" fill= "#A03322" stroke="#A03322" stroke-width="1px" /><text id="#box-text-10" x="175" y="186" fill="#2BB5CA" font-size="12" font-family="Droid Sans Mono, Times, serif">#ca402b</text><text id="#box-text-10" x="195" y="168" fill="#2BB5CA" font-size="18" font-family="Droid Sans Mono, Times, serif">10</text>
<rect id="#box-11" x="165" y="205"  width="74" height="54" fill= "#379a37" stroke="#379a37" stroke-width="1px" /><rect id="#box-11" x="165" y="253"  width="74" height="6" fill= "#2A742A" stroke="#2A742A" stroke-width="1px" /><text id="#box-text-11" x="175" y="246" fill="#9A379A" font-size="12" font-family="Droid Sans Mono, Times, serif">#379a37</text><text id="#box-text-11" x="195" y="228" fill="#9A379A" font-size="18" font-family="Droid Sans Mono, Times, serif">11</text>
<rect id="#box-12" x="165" y="265"  width="74" height="54" fill= "#bb8a35" stroke="#bb8a35" stroke-width="1px" /><rect id="#box-12" x="165" y="313"  width="74" height="6" fill= "#936D2A" stroke="#936D2A" stroke-width="1px" /><text id="#box-text-12" x="175" y="306" fill="#3566BB" font-size="12" font-family="Droid Sans Mono, Times, serif">#bb8a35</text><text id="#box-text-12" x="195" y="288" fill="#3566BB" font-size="18" font-family="Droid Sans Mono, Times, serif">12</text>
<rect id="#box-13" x="245" y="85"  width="74" height="54" fill= "#516aec" stroke="#516aec" stroke-width="1px" /><rect id="#box-13" x="245" y="133"  width="74" height="6" fill= "#2343E7" stroke="#2343E7" stroke-width="1px" /><text id="#box-text-13" x="255" y="126" fill="#ECD351" font-size="12" font-family="Droid Sans Mono, Times, serif">#516aec</text><text id="#box-text-13" x="275" y="108" fill="#ECD351" font-size="18" font-family="Droid Sans Mono, Times, serif">13</text>
<rect id="#box-14" x="245" y="145"  width="74" height="54" fill= "#7b59c0" stroke="#7b59c0" stroke-width="1px" /><rect id="#box-14" x="245" y="193"  width="74" height="6" fill= "#613FA7" stroke="#613FA7" stroke-width="1px" /><text id="#box-text-14" x="255" y="186" fill="#9EC059" font-size="12" font-family="Droid Sans Mono, Times, serif">#7b59c0</text><text id="#box-text-14" x="275" y="168" fill="#9EC059" font-size="18" font-family="Droid Sans Mono, Times, serif">14</text>
<rect id="#box-15" x="245" y="205"  width="74" height="54" fill= "#159393" stroke="#159393" stroke-width="1px" /><rect id="#box-15" x="245" y="253"  width="74" height="6" fill= "#0F6666" stroke="#0F6666" stroke-width="1px" /><text id="#box-text-15" x="255" y="246" fill="#931515" font-size="12" font-family="Droid Sans Mono, Times, serif">#159393</text><text id="#box-text-15" x="275" y="228" fill="#931515" font-size="18" font-family="Droid Sans Mono, Times, serif">15</text>
<rect id="#box-16" x="245" y="265"  width="74" height="54" fill= "#f7f3f7" stroke="#f7f3f7" stroke-width="1px" /><rect id="#box-16" x="245" y="313"  width="74" height="6" fill= "#E3D4E3" stroke="#E3D4E3" stroke-width="1px" /><text id="#box-text-16" x="255" y="306" fill="#F3F7F3" font-size="12" font-family="Droid Sans Mono, Times, serif">#f7f3f7</text><text id="#box-text-16" x="275" y="288" fill="#F3F7F3" font-size="18" font-family="Droid Sans Mono, Times, serif">16</text>
</svg>