<svg width="330" height="330">
    <rect fill="#2b303b" x="0" y="0" width="330" height="330"></rect>
    <text x="180" y="35" fill="#c0c5ce" text-anchor="middle" alignment-baseline="central" font-size="24">Ocean (dark)</text>
    <text x="10" y="75" fill="#c0c5ce" text-anchor="start"  alignment-baseline="baseline" font-size="14">FG: #c0c5ce. BG: #2b303b</text>

<rect id="#box-1" x="5" y="85"  width="74" height="54" fill= "#2b303b" stroke="#2b303b" stroke-width="1px" /><rect id="#box-1" x="5" y="133"  width="74" height="6" fill= "#16181E" stroke="#16181E" stroke-width="1px" /><text id="#box-text-1" x="15" y="126" fill="#3B362B" font-size="12" font-family="Droid Sans Mono, Times, serif">#2b303b</text><text id="#box-text-1" x="35" y="108" fill="#3B362B" font-size="18" font-family="Droid Sans Mono, Times, serif">1</text>
<rect id="#box-2" x="5" y="145"  width="74" height="54" fill= "#bf616a" stroke="#bf616a" stroke-width="1px" /><rect id="#box-2" x="5" y="193"  width="74" height="6" fill= "#A9444E" stroke="#A9444E" stroke-width="1px" /><text id="#box-text-2" x="15" y="186" fill="#61BFB6" font-size="12" font-family="Droid Sans Mono, Times, serif">#bf616a</text><text id="#box-text-2" x="35" y="168" fill="#61BFB6" font-size="18" font-family="Droid Sans Mono, Times, serif">2</text>
<rect id="#box-3" x="5" y="205"  width="74" height="54" fill= "#a3be8c" stroke="#a3be8c" stroke-width="1px" /><rect id="#box-3" x="5" y="253"  width="74" height="6" fill= "#89AC6B" stroke="#89AC6B" stroke-width="1px" /><text id="#box-text-3" x="15" y="246" fill="#A78CBE" font-size="12" font-family="Droid Sans Mono, Times, serif">#a3be8c</text><text id="#box-text-3" x="35" y="228" fill="#A78CBE" font-size="18" font-family="Droid Sans Mono, Times, serif">3</text>
<rect id="#box-4" x="5" y="265"  width="74" height="54" fill= "#ebcb8b" stroke="#ebcb8b" stroke-width="1px" /><rect id="#box-4" x="5" y="313"  width="74" height="6" fill= "#E4B85F" stroke="#E4B85F" stroke-width="1px" /><text id="#box-text-4" x="15" y="306" fill="#8BABEB" font-size="12" font-family="Droid Sans Mono, Times, serif">#ebcb8b</text><text id="#box-text-4" x="35" y="288" fill="#8BABEB" font-size="18" font-family="Droid Sans Mono, Times, serif">4</text>
<rect id="#box-5" x="85" y="85"  width="74" height="54" fill= "#8fa1b3" stroke="#8fa1b3" stroke-width="1px" /><rect id="#box-5" x="85" y="133"  width="74" height="6" fill= "#71889E" stroke="#71889E" stroke-width="1px" /><text id="#box-text-5" x="95" y="126" fill="#B3A18F" font-size="12" font-family="Droid Sans Mono, Times, serif">#8fa1b3</text><text id="#box-text-5" x="115" y="108" fill="#B3A18F" font-size="18" font-family="Droid Sans Mono, Times, serif">5</text>
<rect id="#box-6" x="85" y="145"  width="74" height="54" fill= "#b48ead" stroke="#b48ead" stroke-width="1px" /><rect id="#box-6" x="85" y="193"  width="74" height="6" fill= "#A06F97" stroke="#A06F97" stroke-width="1px" /><text id="#box-text-6" x="95" y="186" fill="#8EB495" font-size="12" font-family="Droid Sans Mono, Times, serif">#b48ead</text><text id="#box-text-6" x="115" y="168" fill="#8EB495" font-size="18" font-family="Droid Sans Mono, Times, serif">6</text>
<rect id="#box-7" x="85" y="205"  width="74" height="54" fill= "#96b5b4" stroke="#96b5b4" stroke-width="1px" /><rect id="#box-7" x="85" y="253"  width="74" height="6" fill= "#78A09F" stroke="#78A09F" stroke-width="1px" /><text id="#box-text-7" x="95" y="246" fill="#B59697" font-size="12" font-family="Droid Sans Mono, Times, serif">#96b5b4</text><text id="#box-text-7" x="115" y="228" fill="#B59697" font-size="18" font-family="Droid Sans Mono, Times, serif">7</text>
<rect id="#box-8" x="85" y="265"  width="74" height="54" fill= "#c0c5ce" stroke="#c0c5ce" stroke-width="1px" /><rect id="#box-8" x="85" y="313"  width="74" height="6" fill= "#A3ABB8" stroke="#A3ABB8" stroke-width="1px" /><text id="#box-text-8" x="95" y="306" fill="#CEC9C0" font-size="12" font-family="Droid Sans Mono, Times, serif">#c0c5ce</text><text id="#box-text-8" x="115" y="288" fill="#CEC9C0" font-size="18" font-family="Droid Sans Mono, Times, serif">8</text>
<rect id="#box-9" x="165" y="85"  width="74" height="54" fill= "#65737e" stroke="#65737e" stroke-width="1px" /><rect id="#box-9" x="165" y="133"  width="74" height="6" fill= "#4E5962" stroke="#4E5962" stroke-width="1px" /><text id="#box-text-9" x="175" y="126" fill="#7E7065" font-size="12" font-family="Droid Sans Mono, Times, serif">#65737e</text><text id="#box-text-9" x="195" y="108" fill="#7E7065" font-size="18" font-family="Droid Sans Mono, Times, serif">9</text>
<rect id="#box-10" x="165" y="145"  width="74" height="54" fill= "#bf616a" stroke="#bf616a" stroke-width="1px" /><rect id="#box-10" x="165" y="193"  width="74" height="6" fill= "#A9444E" stroke="#A9444E" stroke-width="1px" /><text id="#box-text-10" x="175" y="186" fill="#61BFB6" font-size="12" font-family="Droid Sans Mono, Times, serif">#bf616a</text><text id="#box-text-10" x="195" y="168" fill="#61BFB6" font-size="18" font-family="Droid Sans Mono, Times, serif">10</text>
<rect id="#box-11" x="165" y="205"  width="74" height="54" fill= "#a3be8c" stroke="#a3be8c" stroke-width="1px" /><rect id="#box-11" x="165" y="253"  width="74" height="6" fill= "#89AC6B" stroke="#89AC6B" stroke-width="1px" /><text id="#box-text-11" x="175" y="246" fill="#A78CBE" font-size="12" font-family="Droid Sans Mono, Times, serif">#a3be8c</text><text id="#box-text-11" x="195" y="228" fill="#A78CBE" font-size="18" font-family="Droid Sans Mono, Times, serif">11</text>
<rect id="#box-12" x="165" y="265"  width="74" height="54" fill= "#ebcb8b" stroke="#ebcb8b" stroke-width="1px" /><rect id="#box-12" x="165" y="313"  width="74" height="6" fill= "#E4B85F" stroke="#E4B85F" stroke-width="1px" /><text id="#box-text-12" x="175" y="306" fill="#8BABEB" font-size="12" font-family="Droid Sans Mono, Times, serif">#ebcb8b</text><text id="#box-text-12" x="195" y="288" fill="#8BABEB" font-size="18" font-family="Droid Sans Mono, Times, serif">12</text>
<rect id="#box-13" x="245" y="85"  width="74" height="54" fill= "#8fa1b3" stroke="#8fa1b3" stroke-width="1px" /><rect id="#box-13" x="245" y="133"  width="74" height="6" fill= "#71889E" stroke="#71889E" stroke-width="1px" /><text id="#box-text-13" x="255" y="126" fill="#B3A18F" font-size="12" font-family="Droid Sans Mono, Times, serif">#8fa1b3</text><text id="#box-text-13" x="275" y="108" fill="#B3A18F" font-size="18" font-family="Droid Sans Mono, Times, serif">13</text>
<rect id="#box-14" x="245" y="145"  width="74" height="54" fill= "#b48ead" stroke="#b48ead" stroke-width="1px" /><rect id="#box-14" x="245" y="193"  width="74" height="6" fill= "#A06F97" stroke="#A06F97" stroke-width="1px" /><text id="#box-text-14" x="255" y="186" fill="#8EB495" font-size="12" font-family="Droid Sans Mono, Times, serif">#b48ead</text><text id="#box-text-14" x="275" y="168" fill="#8EB495" font-size="18" font-family="Droid Sans Mono, Times, serif">14</text>
<rect id="#box-15" x="245" y="205"  width="74" height="54" fill= "#96b5b4" stroke="#96b5b4" stroke-width="1px" /><rect id="#box-15" x="245" y="253"  width="74" height="6" fill= "#78A09F" stroke="#78A09F" stroke-width="1px" /><text id="#box-text-15" x="255" y="246" fill="#B59697" font-size="12" font-family="Droid Sans Mono, Times, serif">#96b5b4</text><text id="#box-text-15" x="275" y="228" fill="#B59697" font-size="18" font-family="Droid Sans Mono, Times, serif">15</text>
<rect id="#box-16" x="245" y="265"  width="74" height="54" fill= "#eff1f5" stroke="#eff1f5" stroke-width="1px" /><rect id="#box-16" x="245" y="313"  width="74" height="6" fill= "#D0D6E1" stroke="#D0D6E1" stroke-width="1px" /><text id="#box-text-16" x="255" y="306" fill="#F5F3EF" font-size="12" font-family="Droid Sans Mono, Times, serif">#eff1f5</text><text id="#box-text-16" x="275" y="288" fill="#F5F3EF" font-size="18" font-family="Droid Sans Mono, Times, serif">16</text>
</svg>