<?xml version="1.0" encoding="UTF-8" standalone="no"?>
<svg
        xmlns="http://www.w3.org/2000/svg"
        version="1.1"
        width="330" height="330"
>
    <rect fill="#2f1e2e" x="0" y="0" width="330" height="330"></rect>
    <text x="180" y="35" fill="#a39e9b" text-anchor="middle" alignment-baseline="central" font-size="24">Paraiso (dark)</text>
    <text x="10" y="75" fill="#a39e9b" text-anchor="start"  alignment-baseline="baseline" font-size="14">FG: #a39e9b. BG: #2f1e2e</text>

<rect id="#box-1" x="5" y="85"  width="74" height="54" fill= "#2f1e2e" stroke="#2f1e2e" stroke-width="1px" /><rect id="#box-1" x="5" y="133"  width="74" height="6" fill= "#100A10" stroke="#100A10" stroke-width="1px" /><text id="#box-text-1" x="15" y="126" fill="#1E2F1F" font-size="12" font-family="Droid Sans Mono, Times, serif">#2f1e2e</text><text id="#box-text-1" x="35" y="108" fill="#1E2F1F" font-size="18" font-family="Droid Sans Mono, Times, serif">1</text>
<rect id="#box-2" x="5" y="145"  width="74" height="54" fill= "#ef6155" stroke="#ef6155" stroke-width="1px" /><rect id="#box-2" x="5" y="193"  width="74" height="6" fill= "#EB3626" stroke="#EB3626" stroke-width="1px" /><text id="#box-text-2" x="15" y="186" fill="#55E3EF" font-size="12" font-family="Droid Sans Mono, Times, serif">#ef6155</text><text id="#box-text-2" x="35" y="168" fill="#55E3EF" font-size="18" font-family="Droid Sans Mono, Times, serif">2</text>
<rect id="#box-3" x="5" y="205"  width="74" height="54" fill= "#48b685" stroke="#48b685" stroke-width="1px" /><rect id="#box-3" x="5" y="253"  width="74" height="6" fill= "#3A916A" stroke="#3A916A" stroke-width="1px" /><text id="#box-text-3" x="15" y="246" fill="#B64879" font-size="12" font-family="Droid Sans Mono, Times, serif">#48b685</text><text id="#box-text-3" x="35" y="228" fill="#B64879" font-size="18" font-family="Droid Sans Mono, Times, serif">3</text>
<rect id="#box-4" x="5" y="265"  width="74" height="54" fill= "#fec418" stroke="#fec418" stroke-width="1px" /><rect id="#box-4" x="5" y="313"  width="74" height="6" fill= "#E2A901" stroke="#E2A901" stroke-width="1px" /><text id="#box-text-4" x="15" y="306" fill="#1852FE" font-size="12" font-family="Droid Sans Mono, Times, serif">#fec418</text><text id="#box-text-4" x="35" y="288" fill="#1852FE" font-size="18" font-family="Droid Sans Mono, Times, serif">4</text>
<rect id="#box-5" x="85" y="85"  width="74" height="54" fill= "#06b6ef" stroke="#06b6ef" stroke-width="1px" /><rect id="#box-5" x="85" y="133"  width="74" height="6" fill= "#0590BD" stroke="#0590BD" stroke-width="1px" /><text id="#box-text-5" x="95" y="126" fill="#EF3F06" font-size="12" font-family="Droid Sans Mono, Times, serif">#06b6ef</text><text id="#box-text-5" x="115" y="108" fill="#EF3F06" font-size="18" font-family="Droid Sans Mono, Times, serif">5</text>
<rect id="#box-6" x="85" y="145"  width="74" height="54" fill= "#815ba4" stroke="#815ba4" stroke-width="1px" /><rect id="#box-6" x="85" y="193"  width="74" height="6" fill= "#674983" stroke="#674983" stroke-width="1px" /><text id="#box-text-6" x="95" y="186" fill="#7EA45B" font-size="12" font-family="Droid Sans Mono, Times, serif">#815ba4</text><text id="#box-text-6" x="115" y="168" fill="#7EA45B" font-size="18" font-family="Droid Sans Mono, Times, serif">6</text>
<rect id="#box-7" x="85" y="205"  width="74" height="54" fill= "#5bc4bf" stroke="#5bc4bf" stroke-width="1px" /><rect id="#box-7" x="85" y="253"  width="74" height="6" fill= "#3EAEA8" stroke="#3EAEA8" stroke-width="1px" /><text id="#box-text-7" x="95" y="246" fill="#C45B60" font-size="12" font-family="Droid Sans Mono, Times, serif">#5bc4bf</text><text id="#box-text-7" x="115" y="228" fill="#C45B60" font-size="18" font-family="Droid Sans Mono, Times, serif">7</text>
<rect id="#box-8" x="85" y="265"  width="74" height="54" fill= "#a39e9b" stroke="#a39e9b" stroke-width="1px" /><rect id="#box-8" x="85" y="313"  width="74" height="6" fill= "#8B8480" stroke="#8B8480" stroke-width="1px" /><text id="#box-text-8" x="95" y="306" fill="#9BA0A3" font-size="12" font-family="Droid Sans Mono, Times, serif">#a39e9b</text><text id="#box-text-8" x="115" y="288" fill="#9BA0A3" font-size="18" font-family="Droid Sans Mono, Times, serif">8</text>
<rect id="#box-9" x="165" y="85"  width="74" height="54" fill= "#776e71" stroke="#776e71" stroke-width="1px" /><rect id="#box-9" x="165" y="133"  width="74" height="6" fill= "#5C5658" stroke="#5C5658" stroke-width="1px" /><text id="#box-text-9" x="175" y="126" fill="#6E7774" font-size="12" font-family="Droid Sans Mono, Times, serif">#776e71</text><text id="#box-text-9" x="195" y="108" fill="#6E7774" font-size="18" font-family="Droid Sans Mono, Times, serif">9</text>
<rect id="#box-10" x="165" y="145"  width="74" height="54" fill= "#ef6155" stroke="#ef6155" stroke-width="1px" /><rect id="#box-10" x="165" y="193"  width="74" height="6" fill= "#EB3626" stroke="#EB3626" stroke-width="1px" /><text id="#box-text-10" x="175" y="186" fill="#55E3EF" font-size="12" font-family="Droid Sans Mono, Times, serif">#ef6155</text><text id="#box-text-10" x="195" y="168" fill="#55E3EF" font-size="18" font-family="Droid Sans Mono, Times, serif">10</text>
<rect id="#box-11" x="165" y="205"  width="74" height="54" fill= "#48b685" stroke="#48b685" stroke-width="1px" /><rect id="#box-11" x="165" y="253"  width="74" height="6" fill= "#3A916A" stroke="#3A916A" stroke-width="1px" /><text id="#box-text-11" x="175" y="246" fill="#B64879" font-size="12" font-family="Droid Sans Mono, Times, serif">#48b685</text><text id="#box-text-11" x="195" y="228" fill="#B64879" font-size="18" font-family="Droid Sans Mono, Times, serif">11</text>
<rect id="#box-12" x="165" y="265"  width="74" height="54" fill= "#fec418" stroke="#fec418" stroke-width="1px" /><rect id="#box-12" x="165" y="313"  width="74" height="6" fill= "#E2A901" stroke="#E2A901" stroke-width="1px" /><text id="#box-text-12" x="175" y="306" fill="#1852FE" font-size="12" font-family="Droid Sans Mono, Times, serif">#fec418</text><text id="#box-text-12" x="195" y="288" fill="#1852FE" font-size="18" font-family="Droid Sans Mono, Times, serif">12</text>
<rect id="#box-13" x="245" y="85"  width="74" height="54" fill= "#06b6ef" stroke="#06b6ef" stroke-width="1px" /><rect id="#box-13" x="245" y="133"  width="74" height="6" fill= "#0590BD" stroke="#0590BD" stroke-width="1px" /><text id="#box-text-13" x="255" y="126" fill="#EF3F06" font-size="12" font-family="Droid Sans Mono, Times, serif">#06b6ef</text><text id="#box-text-13" x="275" y="108" fill="#EF3F06" font-size="18" font-family="Droid Sans Mono, Times, serif">13</text>
<rect id="#box-14" x="245" y="145"  width="74" height="54" fill= "#815ba4" stroke="#815ba4" stroke-width="1px" /><rect id="#box-14" x="245" y="193"  width="74" height="6" fill= "#674983" stroke="#674983" stroke-width="1px" /><text id="#box-text-14" x="255" y="186" fill="#7EA45B" font-size="12" font-family="Droid Sans Mono, Times, serif">#815ba4</text><text id="#box-text-14" x="275" y="168" fill="#7EA45B" font-size="18" font-family="Droid Sans Mono, Times, serif">14</text>
<rect id="#box-15" x="245" y="205"  width="74" height="54" fill= "#5bc4bf" stroke="#5bc4bf" stroke-width="1px" /><rect id="#box-15" x="245" y="253"  width="74" height="6" fill= "#3EAEA8" stroke="#3EAEA8" stroke-width="1px" /><text id="#box-text-15" x="255" y="246" fill="#C45B60" font-size="12" font-family="Droid Sans Mono, Times, serif">#5bc4bf</text><text id="#box-text-15" x="275" y="228" fill="#C45B60" font-size="18" font-family="Droid Sans Mono, Times, serif">15</text>
<rect id="#box-16" x="245" y="265"  width="74" height="54" fill= "#e7e9db" stroke="#e7e9db" stroke-width="1px" /><rect id="#box-16" x="245" y="313"  width="74" height="6" fill= "#D2D6BB" stroke="#D2D6BB" stroke-width="1px" /><text id="#box-text-16" x="255" y="306" fill="#DDDBE9" font-size="12" font-family="Droid Sans Mono, Times, serif">#e7e9db</text><text id="#box-text-16" x="275" y="288" fill="#DDDBE9" font-size="18" font-family="Droid Sans Mono, Times, serif">16</text>
    <g>
        <path
                style="fill:#ef6155;stroke-width:0.0625"
                d="m 30.83227,12.787278 c -5.43694,0 -9.84125,4.4045 -9.84125,9.841252 0,5.43675 4.4045,9.84625 9.84125,9.84625 -2.71844,-4.7085 -1.10494,-10.72625 3.60356,-13.445002 1.55363,-0.897 3.25175,-1.32362 4.92538,-1.32175 -1.70244,-2.94138 -4.88594,-4.92069 -8.52875,-4.92069 z"/>
        <path
                style="fill:#48b685;stroke-width:0.0625"
                d="m 47.88227,22.63103 c -2.71844,-4.708502 -8.735,-6.320632 -13.44375,-3.602192 -4.70875,2.718442 -6.325,8.737502 -3.60625,13.446252 2.71844,-4.7085 8.73687,-6.32 13.44562,-3.60168 1.55363,0.897 2.77213,2.15431 3.60738,3.60456 1.69606,-2.94506 1.8185,-6.69188 -0.003,-9.84688 z"/>
        <path
                style="fill:#fec418;stroke-width:0.0625"
                d="m 47.88227,42.31853 c 2.71844,-4.7085 1.10631,-10.725 -3.60219,-13.44375 -4.7085,-2.71875 -10.72937,-1.10862 -13.4475,3.59987 5.43694,0 9.84188,4.40638 9.84188,9.84313 0,1.794 -0.4796,3.47787 -1.318,4.92637 3.3985,-0.004 6.70437,-1.771 8.52562,-4.92593 z"/>
        <path
                style="fill:#06b6ef;stroke-width:0.0625"
                d="m 30.83227,52.16228 c 5.43694,0 9.84125,-4.4045 9.84125,-9.84125 0,-5.43675 -4.4045,-9.84625 -9.84125,-9.84625 2.71844,4.7085 1.10494,10.72625 -3.60356,13.445 -1.55363,0.897 -3.25175,1.32362 -4.92538,1.32175 1.70244,2.94137 4.88594,4.92069 8.52875,4.92069 z"/>
        <path
                style="fill:#815ba4;stroke-width:0.0625"
                d="m 13.78258,42.31853 c 2.71844,4.7085 8.735,6.32062 13.44375,3.60219 4.70875,-2.71844 6.325,-8.7375 3.60625,-13.44625 -2.71844,4.7085 -8.73687,6.32 -13.44562,3.60168 -1.55363,-0.897 -2.77213,-2.15431 -3.60738,-3.60456 -1.69606,2.94506 -1.8185,6.69188 0.003,9.84688 z"/>
        <path
                style="fill:#5bc4bf;stroke-width:0.0625"
                d="m 13.78258,22.63103 c -2.71844,4.7085 -1.10631,10.725 3.60219,13.44375 4.7085,2.71875 10.72937,1.10862 13.4475,-3.59987 -5.43694,0 -9.84188,-4.40638 -9.84188,-9.84313 0,-1.794 0.4796,-3.477882 1.318,-4.926372 -3.3985,0.004 -6.70437,1.77099 -8.52562,4.925932 z"/>
    </g>
</svg>