<svg width="330" height="330">
    <rect fill="#f9f7f3" x="0" y="0" width="330" height="330"></rect>
    <text x="180" y="35" fill="#3a4055" text-anchor="middle" alignment-baseline="central" font-size="24">Railscasts (light)</text>
    <text x="10" y="75" fill="#3a4055" text-anchor="start"  alignment-baseline="baseline" font-size="14">FG: #3a4055. BG: #f9f7f3</text>

<rect id="#box-1" x="5" y="85"  width="74" height="54" fill= "#2b2b2b" stroke="#2b2b2b" stroke-width="1px" /><rect id="#box-1" x="5" y="133"  width="74" height="6" fill= "#121212" stroke="#121212" stroke-width="1px" /><text id="#box-text-1" x="15" y="126" fill="#2B2B2B" font-size="12" font-family="Droid Sans Mono, Times, serif">#2b2b2b</text><text id="#box-text-1" x="35" y="108" fill="#2B2B2B" font-size="18" font-family="Droid Sans Mono, Times, serif">1</text>
<rect id="#box-2" x="5" y="145"  width="74" height="54" fill= "#da4939" stroke="#da4939" stroke-width="1px" /><rect id="#box-2" x="5" y="193"  width="74" height="6" fill= "#BD3323" stroke="#BD3323" stroke-width="1px" /><text id="#box-text-2" x="15" y="186" fill="#39CADA" font-size="12" font-family="Droid Sans Mono, Times, serif">#da4939</text><text id="#box-text-2" x="35" y="168" fill="#39CADA" font-size="18" font-family="Droid Sans Mono, Times, serif">2</text>
<rect id="#box-3" x="5" y="205"  width="74" height="54" fill= "#a5c261" stroke="#a5c261" stroke-width="1px" /><rect id="#box-3" x="5" y="253"  width="74" height="6" fill= "#8DAD43" stroke="#8DAD43" stroke-width="1px" /><text id="#box-text-3" x="15" y="246" fill="#7E61C2" font-size="12" font-family="Droid Sans Mono, Times, serif">#a5c261</text><text id="#box-text-3" x="35" y="228" fill="#7E61C2" font-size="18" font-family="Droid Sans Mono, Times, serif">3</text>
<rect id="#box-4" x="5" y="265"  width="74" height="54" fill= "#ffc66d" stroke="#ffc66d" stroke-width="1px" /><rect id="#box-4" x="5" y="313"  width="74" height="6" fill= "#FFB23A" stroke="#FFB23A" stroke-width="1px" /><text id="#box-text-4" x="15" y="306" fill="#6DA6FF" font-size="12" font-family="Droid Sans Mono, Times, serif">#ffc66d</text><text id="#box-text-4" x="35" y="288" fill="#6DA6FF" font-size="18" font-family="Droid Sans Mono, Times, serif">4</text>
<rect id="#box-5" x="85" y="85"  width="74" height="54" fill= "#6d9cbe" stroke="#6d9cbe" stroke-width="1px" /><rect id="#box-5" x="85" y="133"  width="74" height="6" fill= "#4C84AC" stroke="#4C84AC" stroke-width="1px" /><text id="#box-text-5" x="95" y="126" fill="#BE8F6D" font-size="12" font-family="Droid Sans Mono, Times, serif">#6d9cbe</text><text id="#box-text-5" x="115" y="108" fill="#BE8F6D" font-size="18" font-family="Droid Sans Mono, Times, serif">5</text>
<rect id="#box-6" x="85" y="145"  width="74" height="54" fill= "#b6b3eb" stroke="#b6b3eb" stroke-width="1px" /><rect id="#box-6" x="85" y="193"  width="74" height="6" fill= "#8F8BE0" stroke="#8F8BE0" stroke-width="1px" /><text id="#box-text-6" x="95" y="186" fill="#E8EBB3" font-size="12" font-family="Droid Sans Mono, Times, serif">#b6b3eb</text><text id="#box-text-6" x="115" y="168" fill="#E8EBB3" font-size="18" font-family="Droid Sans Mono, Times, serif">6</text>
<rect id="#box-7" x="85" y="205"  width="74" height="54" fill= "#519f50" stroke="#519f50" stroke-width="1px" /><rect id="#box-7" x="85" y="253"  width="74" height="6" fill= "#407D3F" stroke="#407D3F" stroke-width="1px" /><text id="#box-text-7" x="95" y="246" fill="#9E509F" font-size="12" font-family="Droid Sans Mono, Times, serif">#519f50</text><text id="#box-text-7" x="115" y="228" fill="#9E509F" font-size="18" font-family="Droid Sans Mono, Times, serif">7</text>
<rect id="#box-8" x="85" y="265"  width="74" height="54" fill= "#e6e1dc" stroke="#e6e1dc" stroke-width="1px" /><rect id="#box-8" x="85" y="313"  width="74" height="6" fill= "#D1C8BE" stroke="#D1C8BE" stroke-width="1px" /><text id="#box-text-8" x="95" y="306" fill="#DCE1E6" font-size="12" font-family="Droid Sans Mono, Times, serif">#e6e1dc</text><text id="#box-text-8" x="115" y="288" fill="#DCE1E6" font-size="18" font-family="Droid Sans Mono, Times, serif">8</text>
<rect id="#box-9" x="165" y="85"  width="74" height="54" fill= "#5a647e" stroke="#5a647e" stroke-width="1px" /><rect id="#box-9" x="165" y="133"  width="74" height="6" fill= "#454C60" stroke="#454C60" stroke-width="1px" /><text id="#box-text-9" x="175" y="126" fill="#7E745A" font-size="12" font-family="Droid Sans Mono, Times, serif">#5a647e</text><text id="#box-text-9" x="195" y="108" fill="#7E745A" font-size="18" font-family="Droid Sans Mono, Times, serif">9</text>
<rect id="#box-10" x="165" y="145"  width="74" height="54" fill= "#da4939" stroke="#da4939" stroke-width="1px" /><rect id="#box-10" x="165" y="193"  width="74" height="6" fill= "#BD3323" stroke="#BD3323" stroke-width="1px" /><text id="#box-text-10" x="175" y="186" fill="#39CADA" font-size="12" font-family="Droid Sans Mono, Times, serif">#da4939</text><text id="#box-text-10" x="195" y="168" fill="#39CADA" font-size="18" font-family="Droid Sans Mono, Times, serif">10</text>
<rect id="#box-11" x="165" y="205"  width="74" height="54" fill= "#a5c261" stroke="#a5c261" stroke-width="1px" /><rect id="#box-11" x="165" y="253"  width="74" height="6" fill= "#8DAD43" stroke="#8DAD43" stroke-width="1px" /><text id="#box-text-11" x="175" y="246" fill="#7E61C2" font-size="12" font-family="Droid Sans Mono, Times, serif">#a5c261</text><text id="#box-text-11" x="195" y="228" fill="#7E61C2" font-size="18" font-family="Droid Sans Mono, Times, serif">11</text>
<rect id="#box-12" x="165" y="265"  width="74" height="54" fill= "#ffc66d" stroke="#ffc66d" stroke-width="1px" /><rect id="#box-12" x="165" y="313"  width="74" height="6" fill= "#FFB23A" stroke="#FFB23A" stroke-width="1px" /><text id="#box-text-12" x="175" y="306" fill="#6DA6FF" font-size="12" font-family="Droid Sans Mono, Times, serif">#ffc66d</text><text id="#box-text-12" x="195" y="288" fill="#6DA6FF" font-size="18" font-family="Droid Sans Mono, Times, serif">12</text>
<rect id="#box-13" x="245" y="85"  width="74" height="54" fill= "#6d9cbe" stroke="#6d9cbe" stroke-width="1px" /><rect id="#box-13" x="245" y="133"  width="74" height="6" fill= "#4C84AC" stroke="#4C84AC" stroke-width="1px" /><text id="#box-text-13" x="255" y="126" fill="#BE8F6D" font-size="12" font-family="Droid Sans Mono, Times, serif">#6d9cbe</text><text id="#box-text-13" x="275" y="108" fill="#BE8F6D" font-size="18" font-family="Droid Sans Mono, Times, serif">13</text>
<rect id="#box-14" x="245" y="145"  width="74" height="54" fill= "#b6b3eb" stroke="#b6b3eb" stroke-width="1px" /><rect id="#box-14" x="245" y="193"  width="74" height="6" fill= "#8F8BE0" stroke="#8F8BE0" stroke-width="1px" /><text id="#box-text-14" x="255" y="186" fill="#E8EBB3" font-size="12" font-family="Droid Sans Mono, Times, serif">#b6b3eb</text><text id="#box-text-14" x="275" y="168" fill="#E8EBB3" font-size="18" font-family="Droid Sans Mono, Times, serif">14</text>
<rect id="#box-15" x="245" y="205"  width="74" height="54" fill= "#519f50" stroke="#519f50" stroke-width="1px" /><rect id="#box-15" x="245" y="253"  width="74" height="6" fill= "#407D3F" stroke="#407D3F" stroke-width="1px" /><text id="#box-text-15" x="255" y="246" fill="#9E509F" font-size="12" font-family="Droid Sans Mono, Times, serif">#519f50</text><text id="#box-text-15" x="275" y="228" fill="#9E509F" font-size="18" font-family="Droid Sans Mono, Times, serif">15</text>
<rect id="#box-16" x="245" y="265"  width="74" height="54" fill= "#f9f7f3" stroke="#f9f7f3" stroke-width="1px" /><rect id="#box-16" x="245" y="313"  width="74" height="6" fill= "#E8E0D1" stroke="#E8E0D1" stroke-width="1px" /><text id="#box-text-16" x="255" y="306" fill="#F3F5F9" font-size="12" font-family="Droid Sans Mono, Times, serif">#f9f7f3</text><text id="#box-text-16" x="275" y="288" fill="#F3F5F9" font-size="18" font-family="Droid Sans Mono, Times, serif">16</text>
</svg>