<svg width="330" height="330">
    <rect fill="#baae9e" x="0" y="0" width="330" height="330"></rect>
    <text x="180" y="35" fill="#5e5d5c" text-anchor="middle" alignment-baseline="central" font-size="24">Bespin (light)</text>
    <text x="10" y="75" fill="#5e5d5c" text-anchor="start"  alignment-baseline="baseline" font-size="14">FG: #5e5d5c. BG: #baae9e</text>

<rect id="#box-1" x="5" y="85"  width="74" height="54" fill= "#28211c" stroke="#28211c" stroke-width="1px" /><rect id="#box-1" x="5" y="133"  width="74" height="6" fill= "#0A0807" stroke="#0A0807" stroke-width="1px" /><text id="#box-text-1" x="15" y="126" fill="#1C2328" font-size="12" font-family="Droid Sans Mono, Times, serif">#28211c</text><text id="#box-text-1" x="35" y="108" fill="#1C2328" font-size="18" font-family="Droid Sans Mono, Times, serif">1</text>
<rect id="#box-2" x="5" y="145"  width="74" height="54" fill= "#cf6a4c" stroke="#cf6a4c" stroke-width="1px" /><rect id="#box-2" x="5" y="193"  width="74" height="6" fill= "#B75031" stroke="#B75031" stroke-width="1px" /><text id="#box-text-2" x="15" y="186" fill="#4CB1CF" font-size="12" font-family="Droid Sans Mono, Times, serif">#cf6a4c</text><text id="#box-text-2" x="35" y="168" fill="#4CB1CF" font-size="18" font-family="Droid Sans Mono, Times, serif">2</text>
<rect id="#box-3" x="5" y="205"  width="74" height="54" fill= "#54be0d" stroke="#54be0d" stroke-width="1px" /><rect id="#box-3" x="5" y="253"  width="74" height="6" fill= "#3F8E0A" stroke="#3F8E0A" stroke-width="1px" /><text id="#box-text-3" x="15" y="246" fill="#770DBE" font-size="12" font-family="Droid Sans Mono, Times, serif">#54be0d</text><text id="#box-text-3" x="35" y="228" fill="#770DBE" font-size="18" font-family="Droid Sans Mono, Times, serif">3</text>
<rect id="#box-4" x="5" y="265"  width="74" height="54" fill= "#f9ee98" stroke="#f9ee98" stroke-width="1px" /><rect id="#box-4" x="5" y="313"  width="74" height="6" fill= "#F6E668" stroke="#F6E668" stroke-width="1px" /><text id="#box-text-4" x="15" y="306" fill="#98A3F9" font-size="12" font-family="Droid Sans Mono, Times, serif">#f9ee98</text><text id="#box-text-4" x="35" y="288" fill="#98A3F9" font-size="18" font-family="Droid Sans Mono, Times, serif">4</text>
<rect id="#box-5" x="85" y="85"  width="74" height="54" fill= "#5ea6ea" stroke="#5ea6ea" stroke-width="1px" /><rect id="#box-5" x="85" y="133"  width="74" height="6" fill= "#318DE4" stroke="#318DE4" stroke-width="1px" /><text id="#box-text-5" x="95" y="126" fill="#EAA25E" font-size="12" font-family="Droid Sans Mono, Times, serif">#5ea6ea</text><text id="#box-text-5" x="115" y="108" fill="#EAA25E" font-size="18" font-family="Droid Sans Mono, Times, serif">5</text>
<rect id="#box-6" x="85" y="145"  width="74" height="54" fill= "#9b859d" stroke="#9b859d" stroke-width="1px" /><rect id="#box-6" x="85" y="193"  width="74" height="6" fill= "#826A85" stroke="#826A85" stroke-width="1px" /><text id="#box-text-6" x="95" y="186" fill="#879D85" font-size="12" font-family="Droid Sans Mono, Times, serif">#9b859d</text><text id="#box-text-6" x="115" y="168" fill="#879D85" font-size="18" font-family="Droid Sans Mono, Times, serif">6</text>
<rect id="#box-7" x="85" y="205"  width="74" height="54" fill= "#afc4db" stroke="#afc4db" stroke-width="1px" /><rect id="#box-7" x="85" y="253"  width="74" height="6" fill= "#8CAACB" stroke="#8CAACB" stroke-width="1px" /><text id="#box-text-7" x="95" y="246" fill="#DBC6AF" font-size="12" font-family="Droid Sans Mono, Times, serif">#afc4db</text><text id="#box-text-7" x="115" y="228" fill="#DBC6AF" font-size="18" font-family="Droid Sans Mono, Times, serif">7</text>
<rect id="#box-8" x="85" y="265"  width="74" height="54" fill= "#8a8986" stroke="#8a8986" stroke-width="1px" /><rect id="#box-8" x="85" y="313"  width="74" height="6" fill= "#706F6D" stroke="#706F6D" stroke-width="1px" /><text id="#box-text-8" x="95" y="306" fill="#86878A" font-size="12" font-family="Droid Sans Mono, Times, serif">#8a8986</text><text id="#box-text-8" x="115" y="288" fill="#86878A" font-size="18" font-family="Droid Sans Mono, Times, serif">8</text>
<rect id="#box-9" x="165" y="85"  width="74" height="54" fill= "#666666" stroke="#666666" stroke-width="1px" /><rect id="#box-9" x="165" y="133"  width="74" height="6" fill= "#4D4D4D" stroke="#4D4D4D" stroke-width="1px" /><text id="#box-text-9" x="175" y="126" fill="#666666" font-size="12" font-family="Droid Sans Mono, Times, serif">#666666</text><text id="#box-text-9" x="195" y="108" fill="#666666" font-size="18" font-family="Droid Sans Mono, Times, serif">9</text>
<rect id="#box-10" x="165" y="145"  width="74" height="54" fill= "#cf6a4c" stroke="#cf6a4c" stroke-width="1px" /><rect id="#box-10" x="165" y="193"  width="74" height="6" fill= "#B75031" stroke="#B75031" stroke-width="1px" /><text id="#box-text-10" x="175" y="186" fill="#4CB1CF" font-size="12" font-family="Droid Sans Mono, Times, serif">#cf6a4c</text><text id="#box-text-10" x="195" y="168" fill="#4CB1CF" font-size="18" font-family="Droid Sans Mono, Times, serif">10</text>
<rect id="#box-11" x="165" y="205"  width="74" height="54" fill= "#54be0d" stroke="#54be0d" stroke-width="1px" /><rect id="#box-11" x="165" y="253"  width="74" height="6" fill= "#3F8E0A" stroke="#3F8E0A" stroke-width="1px" /><text id="#box-text-11" x="175" y="246" fill="#770DBE" font-size="12" font-family="Droid Sans Mono, Times, serif">#54be0d</text><text id="#box-text-11" x="195" y="228" fill="#770DBE" font-size="18" font-family="Droid Sans Mono, Times, serif">11</text>
<rect id="#box-12" x="165" y="265"  width="74" height="54" fill= "#f9ee98" stroke="#f9ee98" stroke-width="1px" /><rect id="#box-12" x="165" y="313"  width="74" height="6" fill= "#F6E668" stroke="#F6E668" stroke-width="1px" /><text id="#box-text-12" x="175" y="306" fill="#98A3F9" font-size="12" font-family="Droid Sans Mono, Times, serif">#f9ee98</text><text id="#box-text-12" x="195" y="288" fill="#98A3F9" font-size="18" font-family="Droid Sans Mono, Times, serif">12</text>
<rect id="#box-13" x="245" y="85"  width="74" height="54" fill= "#5ea6ea" stroke="#5ea6ea" stroke-width="1px" /><rect id="#box-13" x="245" y="133"  width="74" height="6" fill= "#318DE4" stroke="#318DE4" stroke-width="1px" /><text id="#box-text-13" x="255" y="126" fill="#EAA25E" font-size="12" font-family="Droid Sans Mono, Times, serif">#5ea6ea</text><text id="#box-text-13" x="275" y="108" fill="#EAA25E" font-size="18" font-family="Droid Sans Mono, Times, serif">13</text>
<rect id="#box-14" x="245" y="145"  width="74" height="54" fill= "#9b859d" stroke="#9b859d" stroke-width="1px" /><rect id="#box-14" x="245" y="193"  width="74" height="6" fill= "#826A85" stroke="#826A85" stroke-width="1px" /><text id="#box-text-14" x="255" y="186" fill="#879D85" font-size="12" font-family="Droid Sans Mono, Times, serif">#9b859d</text><text id="#box-text-14" x="275" y="168" fill="#879D85" font-size="18" font-family="Droid Sans Mono, Times, serif">14</text>
<rect id="#box-15" x="245" y="205"  width="74" height="54" fill= "#afc4db" stroke="#afc4db" stroke-width="1px" /><rect id="#box-15" x="245" y="253"  width="74" height="6" fill= "#8CAACB" stroke="#8CAACB" stroke-width="1px" /><text id="#box-text-15" x="255" y="246" fill="#DBC6AF" font-size="12" font-family="Droid Sans Mono, Times, serif">#afc4db</text><text id="#box-text-15" x="275" y="228" fill="#DBC6AF" font-size="18" font-family="Droid Sans Mono, Times, serif">15</text>
<rect id="#box-16" x="245" y="265"  width="74" height="54" fill= "#baae9e" stroke="#baae9e" stroke-width="1px" /><rect id="#box-16" x="245" y="313"  width="74" height="6" fill= "#A59580" stroke="#A59580" stroke-width="1px" /><text id="#box-text-16" x="255" y="306" fill="#9EAABA" font-size="12" font-family="Droid Sans Mono, Times, serif">#baae9e</text><text id="#box-text-16" x="275" y="288" fill="#9EAABA" font-size="18" font-family="Droid Sans Mono, Times, serif">16</text>
</svg>