<svg width="330" height="330">
    <rect fill="#272822" x="0" y="0" width="330" height="330"></rect>
    <text x="180" y="35" fill="#f8f8f2" text-anchor="middle" alignment-baseline="central" font-size="24">Monokai (dark)</text>
    <text x="10" y="75" fill="#f8f8f2" text-anchor="start"  alignment-baseline="baseline" font-size="14">FG: #f8f8f2. BG: #272822</text>

<rect id="#box-1" x="5" y="85"  width="74" height="54" fill= "#272822" stroke="#272822" stroke-width="1px" /><rect id="#box-1" x="5" y="133"  width="74" height="6" fill= "#0C0C0B" stroke="#0C0C0B" stroke-width="1px" /><text id="#box-text-1" x="15" y="126" fill="#232228" font-size="12" font-family="Droid Sans Mono, Times, serif">#272822</text><text id="#box-text-1" x="35" y="108" fill="#232228" font-size="18" font-family="Droid Sans Mono, Times, serif">1</text>
<rect id="#box-2" x="5" y="145"  width="74" height="54" fill= "#f92672" stroke="#f92672" stroke-width="1px" /><rect id="#box-2" x="5" y="193"  width="74" height="6" fill= "#E60657" stroke="#E60657" stroke-width="1px" /><text id="#box-text-2" x="15" y="186" fill="#26F9AD" font-size="12" font-family="Droid Sans Mono, Times, serif">#f92672</text><text id="#box-text-2" x="35" y="168" fill="#26F9AD" font-size="18" font-family="Droid Sans Mono, Times, serif">2</text>
<rect id="#box-3" x="5" y="205"  width="74" height="54" fill= "#a6e22e" stroke="#a6e22e" stroke-width="1px" /><rect id="#box-3" x="5" y="253"  width="74" height="6" fill= "#8AC21B" stroke="#8AC21B" stroke-width="1px" /><text id="#box-text-3" x="15" y="246" fill="#6A2EE2" font-size="12" font-family="Droid Sans Mono, Times, serif">#a6e22e</text><text id="#box-text-3" x="35" y="228" fill="#6A2EE2" font-size="18" font-family="Droid Sans Mono, Times, serif">3</text>
<rect id="#box-4" x="5" y="265"  width="74" height="54" fill= "#f4bf75" stroke="#f4bf75" stroke-width="1px" /><rect id="#box-4" x="5" y="313"  width="74" height="6" fill= "#F0A946" stroke="#F0A946" stroke-width="1px" /><text id="#box-text-4" x="15" y="306" fill="#75AAF4" font-size="12" font-family="Droid Sans Mono, Times, serif">#f4bf75</text><text id="#box-text-4" x="35" y="288" fill="#75AAF4" font-size="18" font-family="Droid Sans Mono, Times, serif">4</text>
<rect id="#box-5" x="85" y="85"  width="74" height="54" fill= "#66d9ef" stroke="#66d9ef" stroke-width="1px" /><rect id="#box-5" x="85" y="133"  width="74" height="6" fill= "#38CEEA" stroke="#38CEEA" stroke-width="1px" /><text id="#box-text-5" x="95" y="126" fill="#EF7C66" font-size="12" font-family="Droid Sans Mono, Times, serif">#66d9ef</text><text id="#box-text-5" x="115" y="108" fill="#EF7C66" font-size="18" font-family="Droid Sans Mono, Times, serif">5</text>
<rect id="#box-6" x="85" y="145"  width="74" height="54" fill= "#ae81ff" stroke="#ae81ff" stroke-width="1px" /><rect id="#box-6" x="85" y="193"  width="74" height="6" fill= "#8D4EFF" stroke="#8D4EFF" stroke-width="1px" /><text id="#box-text-6" x="95" y="186" fill="#D2FF81" font-size="12" font-family="Droid Sans Mono, Times, serif">#ae81ff</text><text id="#box-text-6" x="115" y="168" fill="#D2FF81" font-size="18" font-family="Droid Sans Mono, Times, serif">6</text>
<rect id="#box-7" x="85" y="205"  width="74" height="54" fill= "#a1efe4" stroke="#a1efe4" stroke-width="1px" /><rect id="#box-7" x="85" y="253"  width="74" height="6" fill= "#75E8D7" stroke="#75E8D7" stroke-width="1px" /><text id="#box-text-7" x="95" y="246" fill="#EFA1AC" font-size="12" font-family="Droid Sans Mono, Times, serif">#a1efe4</text><text id="#box-text-7" x="115" y="228" fill="#EFA1AC" font-size="18" font-family="Droid Sans Mono, Times, serif">7</text>
<rect id="#box-8" x="85" y="265"  width="74" height="54" fill= "#f8f8f2" stroke="#f8f8f2" stroke-width="1px" /><rect id="#box-8" x="85" y="313"  width="74" height="6" fill= "#E6E6D1" stroke="#E6E6D1" stroke-width="1px" /><text id="#box-text-8" x="95" y="306" fill="#F2F2F8" font-size="12" font-family="Droid Sans Mono, Times, serif">#f8f8f2</text><text id="#box-text-8" x="115" y="288" fill="#F2F2F8" font-size="18" font-family="Droid Sans Mono, Times, serif">8</text>
<rect id="#box-9" x="165" y="85"  width="74" height="54" fill= "#75715e" stroke="#75715e" stroke-width="1px" /><rect id="#box-9" x="165" y="133"  width="74" height="6" fill= "#595647" stroke="#595647" stroke-width="1px" /><text id="#box-text-9" x="175" y="126" fill="#5E6275" font-size="12" font-family="Droid Sans Mono, Times, serif">#75715e</text><text id="#box-text-9" x="195" y="108" fill="#5E6275" font-size="18" font-family="Droid Sans Mono, Times, serif">9</text>
<rect id="#box-10" x="165" y="145"  width="74" height="54" fill= "#f92672" stroke="#f92672" stroke-width="1px" /><rect id="#box-10" x="165" y="193"  width="74" height="6" fill= "#E60657" stroke="#E60657" stroke-width="1px" /><text id="#box-text-10" x="175" y="186" fill="#26F9AD" font-size="12" font-family="Droid Sans Mono, Times, serif">#f92672</text><text id="#box-text-10" x="195" y="168" fill="#26F9AD" font-size="18" font-family="Droid Sans Mono, Times, serif">10</text>
<rect id="#box-11" x="165" y="205"  width="74" height="54" fill= "#a6e22e" stroke="#a6e22e" stroke-width="1px" /><rect id="#box-11" x="165" y="253"  width="74" height="6" fill= "#8AC21B" stroke="#8AC21B" stroke-width="1px" /><text id="#box-text-11" x="175" y="246" fill="#6A2EE2" font-size="12" font-family="Droid Sans Mono, Times, serif">#a6e22e</text><text id="#box-text-11" x="195" y="228" fill="#6A2EE2" font-size="18" font-family="Droid Sans Mono, Times, serif">11</text>
<rect id="#box-12" x="165" y="265"  width="74" height="54" fill= "#f4bf75" stroke="#f4bf75" stroke-width="1px" /><rect id="#box-12" x="165" y="313"  width="74" height="6" fill= "#F0A946" stroke="#F0A946" stroke-width="1px" /><text id="#box-text-12" x="175" y="306" fill="#75AAF4" font-size="12" font-family="Droid Sans Mono, Times, serif">#f4bf75</text><text id="#box-text-12" x="195" y="288" fill="#75AAF4" font-size="18" font-family="Droid Sans Mono, Times, serif">12</text>
<rect id="#box-13" x="245" y="85"  width="74" height="54" fill= "#66d9ef" stroke="#66d9ef" stroke-width="1px" /><rect id="#box-13" x="245" y="133"  width="74" height="6" fill= "#38CEEA" stroke="#38CEEA" stroke-width="1px" /><text id="#box-text-13" x="255" y="126" fill="#EF7C66" font-size="12" font-family="Droid Sans Mono, Times, serif">#66d9ef</text><text id="#box-text-13" x="275" y="108" fill="#EF7C66" font-size="18" font-family="Droid Sans Mono, Times, serif">13</text>
<rect id="#box-14" x="245" y="145"  width="74" height="54" fill= "#ae81ff" stroke="#ae81ff" stroke-width="1px" /><rect id="#box-14" x="245" y="193"  width="74" height="6" fill= "#8D4EFF" stroke="#8D4EFF" stroke-width="1px" /><text id="#box-text-14" x="255" y="186" fill="#D2FF81" font-size="12" font-family="Droid Sans Mono, Times, serif">#ae81ff</text><text id="#box-text-14" x="275" y="168" fill="#D2FF81" font-size="18" font-family="Droid Sans Mono, Times, serif">14</text>
<rect id="#box-15" x="245" y="205"  width="74" height="54" fill= "#a1efe4" stroke="#a1efe4" stroke-width="1px" /><rect id="#box-15" x="245" y="253"  width="74" height="6" fill= "#75E8D7" stroke="#75E8D7" stroke-width="1px" /><text id="#box-text-15" x="255" y="246" fill="#EFA1AC" font-size="12" font-family="Droid Sans Mono, Times, serif">#a1efe4</text><text id="#box-text-15" x="275" y="228" fill="#EFA1AC" font-size="18" font-family="Droid Sans Mono, Times, serif">15</text>
<rect id="#box-16" x="245" y="265"  width="74" height="54" fill= "#f9f8f5" stroke="#f9f8f5" stroke-width="1px" /><rect id="#box-16" x="245" y="313"  width="74" height="6" fill= "#E6E2D5" stroke="#E6E2D5" stroke-width="1px" /><text id="#box-text-16" x="255" y="306" fill="#F5F6F9" font-size="12" font-family="Droid Sans Mono, Times, serif">#f9f8f5</text><text id="#box-text-16" x="275" y="288" fill="#F5F6F9" font-size="18" font-family="Droid Sans Mono, Times, serif">16</text>
</svg>