<svg width="330" height="330">
    <rect fill="#00ff00" x="0" y="0" width="330" height="330"></rect>
    <text x="180" y="35" fill="#005500" text-anchor="middle" alignment-baseline="central" font-size="24">Greenscreen (light)</text>
    <text x="10" y="75" fill="#005500" text-anchor="start"  alignment-baseline="baseline" font-size="14">FG: #005500. BG: #00ff00</text>

<rect id="#box-1" x="5" y="85"  width="74" height="54" fill= "#001100" stroke="#001100" stroke-width="1px" /><rect id="#box-1" x="5" y="133"  width="74" height="6" fill= "#000000" stroke="#000000" stroke-width="1px" /><text id="#box-text-1" x="15" y="126" fill="#110011" font-size="12" font-family="Droid Sans Mono, Times, serif">#001100</text><text id="#box-text-1" x="35" y="108" fill="#110011" font-size="18" font-family="Droid Sans Mono, Times, serif">1</text>
<rect id="#box-2" x="5" y="145"  width="74" height="54" fill= "#007700" stroke="#007700" stroke-width="1px" /><rect id="#box-2" x="5" y="193"  width="74" height="6" fill= "#004400" stroke="#004400" stroke-width="1px" /><text id="#box-text-2" x="15" y="186" fill="#770077" font-size="12" font-family="Droid Sans Mono, Times, serif">#007700</text><text id="#box-text-2" x="35" y="168" fill="#770077" font-size="18" font-family="Droid Sans Mono, Times, serif">2</text>
<rect id="#box-3" x="5" y="205"  width="74" height="54" fill= "#00bb00" stroke="#00bb00" stroke-width="1px" /><rect id="#box-3" x="5" y="253"  width="74" height="6" fill= "#008800" stroke="#008800" stroke-width="1px" /><text id="#box-text-3" x="15" y="246" fill="#BB00BB" font-size="12" font-family="Droid Sans Mono, Times, serif">#00bb00</text><text id="#box-text-3" x="35" y="228" fill="#BB00BB" font-size="18" font-family="Droid Sans Mono, Times, serif">3</text>
<rect id="#box-4" x="5" y="265"  width="74" height="54" fill= "#007700" stroke="#007700" stroke-width="1px" /><rect id="#box-4" x="5" y="313"  width="74" height="6" fill= "#004400" stroke="#004400" stroke-width="1px" /><text id="#box-text-4" x="15" y="306" fill="#770077" font-size="12" font-family="Droid Sans Mono, Times, serif">#007700</text><text id="#box-text-4" x="35" y="288" fill="#770077" font-size="18" font-family="Droid Sans Mono, Times, serif">4</text>
<rect id="#box-5" x="85" y="85"  width="74" height="54" fill= "#009900" stroke="#009900" stroke-width="1px" /><rect id="#box-5" x="85" y="133"  width="74" height="6" fill= "#006600" stroke="#006600" stroke-width="1px" /><text id="#box-text-5" x="95" y="126" fill="#990099" font-size="12" font-family="Droid Sans Mono, Times, serif">#009900</text><text id="#box-text-5" x="115" y="108" fill="#990099" font-size="18" font-family="Droid Sans Mono, Times, serif">5</text>
<rect id="#box-6" x="85" y="145"  width="74" height="54" fill= "#00bb00" stroke="#00bb00" stroke-width="1px" /><rect id="#box-6" x="85" y="193"  width="74" height="6" fill= "#008800" stroke="#008800" stroke-width="1px" /><text id="#box-text-6" x="95" y="186" fill="#BB00BB" font-size="12" font-family="Droid Sans Mono, Times, serif">#00bb00</text><text id="#box-text-6" x="115" y="168" fill="#BB00BB" font-size="18" font-family="Droid Sans Mono, Times, serif">6</text>
<rect id="#box-7" x="85" y="205"  width="74" height="54" fill= "#005500" stroke="#005500" stroke-width="1px" /><rect id="#box-7" x="85" y="253"  width="74" height="6" fill= "#002200" stroke="#002200" stroke-width="1px" /><text id="#box-text-7" x="95" y="246" fill="#550055" font-size="12" font-family="Droid Sans Mono, Times, serif">#005500</text><text id="#box-text-7" x="115" y="228" fill="#550055" font-size="18" font-family="Droid Sans Mono, Times, serif">7</text>
<rect id="#box-8" x="85" y="265"  width="74" height="54" fill= "#00bb00" stroke="#00bb00" stroke-width="1px" /><rect id="#box-8" x="85" y="313"  width="74" height="6" fill= "#008800" stroke="#008800" stroke-width="1px" /><text id="#box-text-8" x="95" y="306" fill="#BB00BB" font-size="12" font-family="Droid Sans Mono, Times, serif">#00bb00</text><text id="#box-text-8" x="115" y="288" fill="#BB00BB" font-size="18" font-family="Droid Sans Mono, Times, serif">8</text>
<rect id="#box-9" x="165" y="85"  width="74" height="54" fill= "#007700" stroke="#007700" stroke-width="1px" /><rect id="#box-9" x="165" y="133"  width="74" height="6" fill= "#004400" stroke="#004400" stroke-width="1px" /><text id="#box-text-9" x="175" y="126" fill="#770077" font-size="12" font-family="Droid Sans Mono, Times, serif">#007700</text><text id="#box-text-9" x="195" y="108" fill="#770077" font-size="18" font-family="Droid Sans Mono, Times, serif">9</text>
<rect id="#box-10" x="165" y="145"  width="74" height="54" fill= "#007700" stroke="#007700" stroke-width="1px" /><rect id="#box-10" x="165" y="193"  width="74" height="6" fill= "#004400" stroke="#004400" stroke-width="1px" /><text id="#box-text-10" x="175" y="186" fill="#770077" font-size="12" font-family="Droid Sans Mono, Times, serif">#007700</text><text id="#box-text-10" x="195" y="168" fill="#770077" font-size="18" font-family="Droid Sans Mono, Times, serif">10</text>
<rect id="#box-11" x="165" y="205"  width="74" height="54" fill= "#00bb00" stroke="#00bb00" stroke-width="1px" /><rect id="#box-11" x="165" y="253"  width="74" height="6" fill= "#008800" stroke="#008800" stroke-width="1px" /><text id="#box-text-11" x="175" y="246" fill="#BB00BB" font-size="12" font-family="Droid Sans Mono, Times, serif">#00bb00</text><text id="#box-text-11" x="195" y="228" fill="#BB00BB" font-size="18" font-family="Droid Sans Mono, Times, serif">11</text>
<rect id="#box-12" x="165" y="265"  width="74" height="54" fill= "#007700" stroke="#007700" stroke-width="1px" /><rect id="#box-12" x="165" y="313"  width="74" height="6" fill= "#004400" stroke="#004400" stroke-width="1px" /><text id="#box-text-12" x="175" y="306" fill="#770077" font-size="12" font-family="Droid Sans Mono, Times, serif">#007700</text><text id="#box-text-12" x="195" y="288" fill="#770077" font-size="18" font-family="Droid Sans Mono, Times, serif">12</text>
<rect id="#box-13" x="245" y="85"  width="74" height="54" fill= "#009900" stroke="#009900" stroke-width="1px" /><rect id="#box-13" x="245" y="133"  width="74" height="6" fill= "#006600" stroke="#006600" stroke-width="1px" /><text id="#box-text-13" x="255" y="126" fill="#990099" font-size="12" font-family="Droid Sans Mono, Times, serif">#009900</text><text id="#box-text-13" x="275" y="108" fill="#990099" font-size="18" font-family="Droid Sans Mono, Times, serif">13</text>
<rect id="#box-14" x="245" y="145"  width="74" height="54" fill= "#00bb00" stroke="#00bb00" stroke-width="1px" /><rect id="#box-14" x="245" y="193"  width="74" height="6" fill= "#008800" stroke="#008800" stroke-width="1px" /><text id="#box-text-14" x="255" y="186" fill="#BB00BB" font-size="12" font-family="Droid Sans Mono, Times, serif">#00bb00</text><text id="#box-text-14" x="275" y="168" fill="#BB00BB" font-size="18" font-family="Droid Sans Mono, Times, serif">14</text>
<rect id="#box-15" x="245" y="205"  width="74" height="54" fill= "#005500" stroke="#005500" stroke-width="1px" /><rect id="#box-15" x="245" y="253"  width="74" height="6" fill= "#002200" stroke="#002200" stroke-width="1px" /><text id="#box-text-15" x="255" y="246" fill="#550055" font-size="12" font-family="Droid Sans Mono, Times, serif">#005500</text><text id="#box-text-15" x="275" y="228" fill="#550055" font-size="18" font-family="Droid Sans Mono, Times, serif">15</text>
<rect id="#box-16" x="245" y="265"  width="74" height="54" fill= "#00ff00" stroke="#00ff00" stroke-width="1px" /><rect id="#box-16" x="245" y="313"  width="74" height="6" fill= "#00CC00" stroke="#00CC00" stroke-width="1px" /><text id="#box-text-16" x="255" y="306" fill="#FF00FF" font-size="12" font-family="Droid Sans Mono, Times, serif">#00ff00</text><text id="#box-text-16" x="275" y="288" fill="#FF00FF" font-size="18" font-family="Droid Sans Mono, Times, serif">16</text>
</svg>