<svg width="330" height="330">
    <rect fill="#f0fff0" x="0" y="0" width="330" height="330"></rect>
    <text x="180" y="35" fill="#5e6e5e" text-anchor="middle" alignment-baseline="central" font-size="24">Atelierseaside (light)</text>
    <text x="10" y="75" fill="#5e6e5e" text-anchor="start"  alignment-baseline="baseline" font-size="14">FG: #5e6e5e. BG: #f0fff0</text>

<rect id="#box-1" x="5" y="85"  width="74" height="54" fill= "#131513" stroke="#131513" stroke-width="1px" /><rect id="#box-1" x="5" y="133"  width="74" height="6" fill= "#000000" stroke="#000000" stroke-width="1px" /><text id="#box-text-1" x="15" y="126" fill="#151315" font-size="12" font-family="Droid Sans Mono, Times, serif">#131513</text><text id="#box-text-1" x="35" y="108" fill="#151315" font-size="18" font-family="Droid Sans Mono, Times, serif">1</text>
<rect id="#box-2" x="5" y="145"  width="74" height="54" fill= "#e6193c" stroke="#e6193c" stroke-width="1px" /><rect id="#box-2" x="5" y="193"  width="74" height="6" fill= "#B81430" stroke="#B81430" stroke-width="1px" /><text id="#box-text-2" x="15" y="186" fill="#19E6C3" font-size="12" font-family="Droid Sans Mono, Times, serif">#e6193c</text><text id="#box-text-2" x="35" y="168" fill="#19E6C3" font-size="18" font-family="Droid Sans Mono, Times, serif">2</text>
<rect id="#box-3" x="5" y="205"  width="74" height="54" fill= "#29a329" stroke="#29a329" stroke-width="1px" /><rect id="#box-3" x="5" y="253"  width="74" height="6" fill= "#1F7A1F" stroke="#1F7A1F" stroke-width="1px" /><text id="#box-text-3" x="15" y="246" fill="#A329A3" font-size="12" font-family="Droid Sans Mono, Times, serif">#29a329</text><text id="#box-text-3" x="35" y="228" fill="#A329A3" font-size="18" font-family="Droid Sans Mono, Times, serif">3</text>
<rect id="#box-4" x="5" y="265"  width="74" height="54" fill= "#c3c322" stroke="#c3c322" stroke-width="1px" /><rect id="#box-4" x="5" y="313"  width="74" height="6" fill= "#98981A" stroke="#98981A" stroke-width="1px" /><text id="#box-text-4" x="15" y="306" fill="#2222C3" font-size="12" font-family="Droid Sans Mono, Times, serif">#c3c322</text><text id="#box-text-4" x="35" y="288" fill="#2222C3" font-size="18" font-family="Droid Sans Mono, Times, serif">4</text>
<rect id="#box-5" x="85" y="85"  width="74" height="54" fill= "#3d62f5" stroke="#3d62f5" stroke-width="1px" /><rect id="#box-5" x="85" y="133"  width="74" height="6" fill= "#0C3BF3" stroke="#0C3BF3" stroke-width="1px" /><text id="#box-text-5" x="95" y="126" fill="#F5D03D" font-size="12" font-family="Droid Sans Mono, Times, serif">#3d62f5</text><text id="#box-text-5" x="115" y="108" fill="#F5D03D" font-size="18" font-family="Droid Sans Mono, Times, serif">5</text>
<rect id="#box-6" x="85" y="145"  width="74" height="54" fill= "#ad2bee" stroke="#ad2bee" stroke-width="1px" /><rect id="#box-6" x="85" y="193"  width="74" height="6" fill= "#9411D5" stroke="#9411D5" stroke-width="1px" /><text id="#box-text-6" x="95" y="186" fill="#6CEE2B" font-size="12" font-family="Droid Sans Mono, Times, serif">#ad2bee</text><text id="#box-text-6" x="115" y="168" fill="#6CEE2B" font-size="18" font-family="Droid Sans Mono, Times, serif">6</text>
<rect id="#box-7" x="85" y="205"  width="74" height="54" fill= "#1999b3" stroke="#1999b3" stroke-width="1px" /><rect id="#box-7" x="85" y="253"  width="74" height="6" fill= "#137386" stroke="#137386" stroke-width="1px" /><text id="#box-text-7" x="95" y="246" fill="#B33319" font-size="12" font-family="Droid Sans Mono, Times, serif">#1999b3</text><text id="#box-text-7" x="115" y="228" fill="#B33319" font-size="18" font-family="Droid Sans Mono, Times, serif">7</text>
<rect id="#box-8" x="85" y="265"  width="74" height="54" fill= "#8ca68c" stroke="#8ca68c" stroke-width="1px" /><rect id="#box-8" x="85" y="313"  width="74" height="6" fill= "#6F906F" stroke="#6F906F" stroke-width="1px" /><text id="#box-text-8" x="95" y="306" fill="#A68CA6" font-size="12" font-family="Droid Sans Mono, Times, serif">#8ca68c</text><text id="#box-text-8" x="115" y="288" fill="#A68CA6" font-size="18" font-family="Droid Sans Mono, Times, serif">8</text>
<rect id="#box-9" x="165" y="85"  width="74" height="54" fill= "#687d68" stroke="#687d68" stroke-width="1px" /><rect id="#box-9" x="165" y="133"  width="74" height="6" fill= "#516151" stroke="#516151" stroke-width="1px" /><text id="#box-text-9" x="175" y="126" fill="#7D687D" font-size="12" font-family="Droid Sans Mono, Times, serif">#687d68</text><text id="#box-text-9" x="195" y="108" fill="#7D687D" font-size="18" font-family="Droid Sans Mono, Times, serif">9</text>
<rect id="#box-10" x="165" y="145"  width="74" height="54" fill= "#e6193c" stroke="#e6193c" stroke-width="1px" /><rect id="#box-10" x="165" y="193"  width="74" height="6" fill= "#B81430" stroke="#B81430" stroke-width="1px" /><text id="#box-text-10" x="175" y="186" fill="#19E6C3" font-size="12" font-family="Droid Sans Mono, Times, serif">#e6193c</text><text id="#box-text-10" x="195" y="168" fill="#19E6C3" font-size="18" font-family="Droid Sans Mono, Times, serif">10</text>
<rect id="#box-11" x="165" y="205"  width="74" height="54" fill= "#29a329" stroke="#29a329" stroke-width="1px" /><rect id="#box-11" x="165" y="253"  width="74" height="6" fill= "#1F7A1F" stroke="#1F7A1F" stroke-width="1px" /><text id="#box-text-11" x="175" y="246" fill="#A329A3" font-size="12" font-family="Droid Sans Mono, Times, serif">#29a329</text><text id="#box-text-11" x="195" y="228" fill="#A329A3" font-size="18" font-family="Droid Sans Mono, Times, serif">11</text>
<rect id="#box-12" x="165" y="265"  width="74" height="54" fill= "#c3c322" stroke="#c3c322" stroke-width="1px" /><rect id="#box-12" x="165" y="313"  width="74" height="6" fill= "#98981A" stroke="#98981A" stroke-width="1px" /><text id="#box-text-12" x="175" y="306" fill="#2222C3" font-size="12" font-family="Droid Sans Mono, Times, serif">#c3c322</text><text id="#box-text-12" x="195" y="288" fill="#2222C3" font-size="18" font-family="Droid Sans Mono, Times, serif">12</text>
<rect id="#box-13" x="245" y="85"  width="74" height="54" fill= "#3d62f5" stroke="#3d62f5" stroke-width="1px" /><rect id="#box-13" x="245" y="133"  width="74" height="6" fill= "#0C3BF3" stroke="#0C3BF3" stroke-width="1px" /><text id="#box-text-13" x="255" y="126" fill="#F5D03D" font-size="12" font-family="Droid Sans Mono, Times, serif">#3d62f5</text><text id="#box-text-13" x="275" y="108" fill="#F5D03D" font-size="18" font-family="Droid Sans Mono, Times, serif">13</text>
<rect id="#box-14" x="245" y="145"  width="74" height="54" fill= "#ad2bee" stroke="#ad2bee" stroke-width="1px" /><rect id="#box-14" x="245" y="193"  width="74" height="6" fill= "#9411D5" stroke="#9411D5" stroke-width="1px" /><text id="#box-text-14" x="255" y="186" fill="#6CEE2B" font-size="12" font-family="Droid Sans Mono, Times, serif">#ad2bee</text><text id="#box-text-14" x="275" y="168" fill="#6CEE2B" font-size="18" font-family="Droid Sans Mono, Times, serif">14</text>
<rect id="#box-15" x="245" y="205"  width="74" height="54" fill= "#1999b3" stroke="#1999b3" stroke-width="1px" /><rect id="#box-15" x="245" y="253"  width="74" height="6" fill= "#137386" stroke="#137386" stroke-width="1px" /><text id="#box-text-15" x="255" y="246" fill="#B33319" font-size="12" font-family="Droid Sans Mono, Times, serif">#1999b3</text><text id="#box-text-15" x="275" y="228" fill="#B33319" font-size="18" font-family="Droid Sans Mono, Times, serif">15</text>
<rect id="#box-16" x="245" y="265"  width="74" height="54" fill= "#f0fff0" stroke="#f0fff0" stroke-width="1px" /><rect id="#box-16" x="245" y="313"  width="74" height="6" fill= "#BDFFBD" stroke="#BDFFBD" stroke-width="1px" /><text id="#box-text-16" x="255" y="306" fill="#FFF0FF" font-size="12" font-family="Droid Sans Mono, Times, serif">#f0fff0</text><text id="#box-text-16" x="275" y="288" fill="#FFF0FF" font-size="18" font-family="Droid Sans Mono, Times, serif">16</text>
</svg>