<svg width="330" height="330">
    <rect fill="#2d2d2d" x="0" y="0" width="330" height="330"></rect>
    <text x="180" y="35" fill="#d3d0c8" text-anchor="middle" alignment-baseline="central" font-size="24">Eighties (dark)</text>
    <text x="10" y="75" fill="#d3d0c8" text-anchor="start"  alignment-baseline="baseline" font-size="14">FG: #d3d0c8. BG: #2d2d2d</text>

<rect id="#box-1" x="5" y="85"  width="74" height="54" fill= "#2d2d2d" stroke="#2d2d2d" stroke-width="1px" /><rect id="#box-1" x="5" y="133"  width="74" height="6" fill= "#141414" stroke="#141414" stroke-width="1px" /><text id="#box-text-1" x="15" y="126" fill="#2D2D2D" font-size="12" font-family="Droid Sans Mono, Times, serif">#2d2d2d</text><text id="#box-text-1" x="35" y="108" fill="#2D2D2D" font-size="18" font-family="Droid Sans Mono, Times, serif">1</text>
<rect id="#box-2" x="5" y="145"  width="74" height="54" fill= "#f2777a" stroke="#f2777a" stroke-width="1px" /><rect id="#box-2" x="5" y="193"  width="74" height="6" fill= "#EE484C" stroke="#EE484C" stroke-width="1px" /><text id="#box-text-2" x="15" y="186" fill="#77F2EF" font-size="12" font-family="Droid Sans Mono, Times, serif">#f2777a</text><text id="#box-text-2" x="35" y="168" fill="#77F2EF" font-size="18" font-family="Droid Sans Mono, Times, serif">2</text>
<rect id="#box-3" x="5" y="205"  width="74" height="54" fill= "#99cc99" stroke="#99cc99" stroke-width="1px" /><rect id="#box-3" x="5" y="253"  width="74" height="6" fill= "#77BB77" stroke="#77BB77" stroke-width="1px" /><text id="#box-text-3" x="15" y="246" fill="#CC99CC" font-size="12" font-family="Droid Sans Mono, Times, serif">#99cc99</text><text id="#box-text-3" x="35" y="228" fill="#CC99CC" font-size="18" font-family="Droid Sans Mono, Times, serif">3</text>
<rect id="#box-4" x="5" y="265"  width="74" height="54" fill= "#ffcc66" stroke="#ffcc66" stroke-width="1px" /><rect id="#box-4" x="5" y="313"  width="74" height="6" fill= "#FFBB33" stroke="#FFBB33" stroke-width="1px" /><text id="#box-text-4" x="15" y="306" fill="#6699FF" font-size="12" font-family="Droid Sans Mono, Times, serif">#ffcc66</text><text id="#box-text-4" x="35" y="288" fill="#6699FF" font-size="18" font-family="Droid Sans Mono, Times, serif">4</text>
<rect id="#box-5" x="85" y="85"  width="74" height="54" fill= "#6699cc" stroke="#6699cc" stroke-width="1px" /><rect id="#box-5" x="85" y="133"  width="74" height="6" fill= "#4080BF" stroke="#4080BF" stroke-width="1px" /><text id="#box-text-5" x="95" y="126" fill="#CC9966" font-size="12" font-family="Droid Sans Mono, Times, serif">#6699cc</text><text id="#box-text-5" x="115" y="108" fill="#CC9966" font-size="18" font-family="Droid Sans Mono, Times, serif">5</text>
<rect id="#box-6" x="85" y="145"  width="74" height="54" fill= "#cc99cc" stroke="#cc99cc" stroke-width="1px" /><rect id="#box-6" x="85" y="193"  width="74" height="6" fill= "#BB77BB" stroke="#BB77BB" stroke-width="1px" /><text id="#box-text-6" x="95" y="186" fill="#99CC99" font-size="12" font-family="Droid Sans Mono, Times, serif">#cc99cc</text><text id="#box-text-6" x="115" y="168" fill="#99CC99" font-size="18" font-family="Droid Sans Mono, Times, serif">6</text>
<rect id="#box-7" x="85" y="205"  width="74" height="54" fill= "#66cccc" stroke="#66cccc" stroke-width="1px" /><rect id="#box-7" x="85" y="253"  width="74" height="6" fill= "#40BFBF" stroke="#40BFBF" stroke-width="1px" /><text id="#box-text-7" x="95" y="246" fill="#CC6666" font-size="12" font-family="Droid Sans Mono, Times, serif">#66cccc</text><text id="#box-text-7" x="115" y="228" fill="#CC6666" font-size="18" font-family="Droid Sans Mono, Times, serif">7</text>
<rect id="#box-8" x="85" y="265"  width="74" height="54" fill= "#d3d0c8" stroke="#d3d0c8" stroke-width="1px" /><rect id="#box-8" x="85" y="313"  width="74" height="6" fill= "#BCB8AC" stroke="#BCB8AC" stroke-width="1px" /><text id="#box-text-8" x="95" y="306" fill="#C8CBD3" font-size="12" font-family="Droid Sans Mono, Times, serif">#d3d0c8</text><text id="#box-text-8" x="115" y="288" fill="#C8CBD3" font-size="18" font-family="Droid Sans Mono, Times, serif">8</text>
<rect id="#box-9" x="165" y="85"  width="74" height="54" fill= "#747369" stroke="#747369" stroke-width="1px" /><rect id="#box-9" x="165" y="133"  width="74" height="6" fill= "#595851" stroke="#595851" stroke-width="1px" /><text id="#box-text-9" x="175" y="126" fill="#696A74" font-size="12" font-family="Droid Sans Mono, Times, serif">#747369</text><text id="#box-text-9" x="195" y="108" fill="#696A74" font-size="18" font-family="Droid Sans Mono, Times, serif">9</text>
<rect id="#box-10" x="165" y="145"  width="74" height="54" fill= "#f2777a" stroke="#f2777a" stroke-width="1px" /><rect id="#box-10" x="165" y="193"  width="74" height="6" fill= "#EE484C" stroke="#EE484C" stroke-width="1px" /><text id="#box-text-10" x="175" y="186" fill="#77F2EF" font-size="12" font-family="Droid Sans Mono, Times, serif">#f2777a</text><text id="#box-text-10" x="195" y="168" fill="#77F2EF" font-size="18" font-family="Droid Sans Mono, Times, serif">10</text>
<rect id="#box-11" x="165" y="205"  width="74" height="54" fill= "#99cc99" stroke="#99cc99" stroke-width="1px" /><rect id="#box-11" x="165" y="253"  width="74" height="6" fill= "#77BB77" stroke="#77BB77" stroke-width="1px" /><text id="#box-text-11" x="175" y="246" fill="#CC99CC" font-size="12" font-family="Droid Sans Mono, Times, serif">#99cc99</text><text id="#box-text-11" x="195" y="228" fill="#CC99CC" font-size="18" font-family="Droid Sans Mono, Times, serif">11</text>
<rect id="#box-12" x="165" y="265"  width="74" height="54" fill= "#ffcc66" stroke="#ffcc66" stroke-width="1px" /><rect id="#box-12" x="165" y="313"  width="74" height="6" fill= "#FFBB33" stroke="#FFBB33" stroke-width="1px" /><text id="#box-text-12" x="175" y="306" fill="#6699FF" font-size="12" font-family="Droid Sans Mono, Times, serif">#ffcc66</text><text id="#box-text-12" x="195" y="288" fill="#6699FF" font-size="18" font-family="Droid Sans Mono, Times, serif">12</text>
<rect id="#box-13" x="245" y="85"  width="74" height="54" fill= "#6699cc" stroke="#6699cc" stroke-width="1px" /><rect id="#box-13" x="245" y="133"  width="74" height="6" fill= "#4080BF" stroke="#4080BF" stroke-width="1px" /><text id="#box-text-13" x="255" y="126" fill="#CC9966" font-size="12" font-family="Droid Sans Mono, Times, serif">#6699cc</text><text id="#box-text-13" x="275" y="108" fill="#CC9966" font-size="18" font-family="Droid Sans Mono, Times, serif">13</text>
<rect id="#box-14" x="245" y="145"  width="74" height="54" fill= "#cc99cc" stroke="#cc99cc" stroke-width="1px" /><rect id="#box-14" x="245" y="193"  width="74" height="6" fill= "#BB77BB" stroke="#BB77BB" stroke-width="1px" /><text id="#box-text-14" x="255" y="186" fill="#99CC99" font-size="12" font-family="Droid Sans Mono, Times, serif">#cc99cc</text><text id="#box-text-14" x="275" y="168" fill="#99CC99" font-size="18" font-family="Droid Sans Mono, Times, serif">14</text>
<rect id="#box-15" x="245" y="205"  width="74" height="54" fill= "#66cccc" stroke="#66cccc" stroke-width="1px" /><rect id="#box-15" x="245" y="253"  width="74" height="6" fill= "#40BFBF" stroke="#40BFBF" stroke-width="1px" /><text id="#box-text-15" x="255" y="246" fill="#CC6666" font-size="12" font-family="Droid Sans Mono, Times, serif">#66cccc</text><text id="#box-text-15" x="275" y="228" fill="#CC6666" font-size="18" font-family="Droid Sans Mono, Times, serif">15</text>
<rect id="#box-16" x="245" y="265"  width="74" height="54" fill= "#f2f0ec" stroke="#f2f0ec" stroke-width="1px" /><rect id="#box-16" x="245" y="313"  width="74" height="6" fill= "#DDD8CE" stroke="#DDD8CE" stroke-width="1px" /><text id="#box-text-16" x="255" y="306" fill="#ECEEF2" font-size="12" font-family="Droid Sans Mono, Times, serif">#f2f0ec</text><text id="#box-text-16" x="275" y="288" fill="#ECEEF2" font-size="18" font-family="Droid Sans Mono, Times, serif">16</text>
</svg>