<?xml version="1.0" encoding="UTF-8" standalone="no"?>
<!-- Created with Inkscape (http://www.inkscape.org/) -->

<svg
        xmlns:dc="http://purl.org/dc/elements/1.1/"
        xmlns:cc="http://creativecommons.org/ns#"
        xmlns:rdf="http://www.w3.org/1999/02/22-rdf-syntax-ns#"
        xmlns:xlink="http://www.w3.org/1999/xlink"
        xmlns:sodipodi="http://sodipodi.sourceforge.net/DTD/sodipodi-0.dtd"
        xmlns:inkscape="http://www.inkscape.org/namespaces/inkscape"
        xmlns="http://www.w3.org/2000/svg"
        id="svg4813"
        width="64"
        height="64"
        version="1.1"
        sodipodi:docname="cctheme.svg"
        inkscape:version="0.92.3 (2405546, 2018-03-11)">
    <sodipodi:namedview
            pagecolor="#ffffff"
            bordercolor="#666666"
            borderopacity="1"
            objecttolerance="10"
            gridtolerance="10"
            guidetolerance="10"
            inkscape:pageopacity="0"
            inkscape:pageshadow="2"
            inkscape:window-width="1920"
            inkscape:window-height="1015"
            id="namedview58"
            showgrid="false"
            inkscape:zoom="7.375"
            inkscape:cx="9.1462213"
            inkscape:cy="28.221992"
            inkscape:window-x="1920"
            inkscape:window-y="0"
            inkscape:window-maximized="1"
            inkscape:current-layer="svg4813"/>
    <metadata
            id="metadata69">
        <rdf:RDF>
            <cc:Work
                    rdf:about="">
                <dc:format>image/svg+xml</dc:format>
                <dc:type
                        rdf:resource="http://purl.org/dc/dcmitype/StillImage"/>
                <dc:title></dc:title>
            </cc:Work>
        </rdf:RDF>
    </metadata>
    <defs
            id="defs4815">
        <linearGradient
                id="linearGradient3680-6">
            <stop
                    id="stop3682-4"
                    style="stop-color:#dcdcdc"
                    offset="0"/>
            <stop
                    id="stop3684-8"
                    style="stop-color:#fff"
                    offset="1"/>
        </linearGradient>
        <linearGradient
                id="linearGradient5060-6-6-5">
            <stop
                    id="stop5062-3-0-3"
                    offset="0"/>
            <stop
                    id="stop5064-1-4-9"
                    style="stop-opacity:0"
                    offset="1"/>
        </linearGradient>
        <linearGradient
                id="linearGradient3652"
                x1="16.143"
                x2="16.143"
                y1="4"
                y2="44"
                gradientTransform="matrix(1.2052 0 0 .94879 3.0752 12.229)"
                gradientUnits="userSpaceOnUse">
            <stop
                    id="stop2225-6-4-7-2"
                    style="stop-color:#fff"
                    offset="0"/>
            <stop
                    id="stop2229-2-5-5-8"
                    style="stop-color:#fff;stop-opacity:0"
                    offset="1"/>
        </linearGradient>
        <linearGradient
                id="linearGradient3655"
                x1="16.626"
                x2="20.055"
                y1="15.298"
                y2="24.628"
                gradientTransform="matrix(1.2626,0,0,1.3398,2.274271,4.6299186)"
                gradientUnits="userSpaceOnUse">
            <stop
                    id="stop2687-1-9-0-2"
                    style="stop-color:#fff"
                    offset="0"/>
            <stop
                    id="stop2689-5-4-3-1"
                    style="stop-color:#fff;stop-opacity:0"
                    offset="1"/>
        </linearGradient>
        <linearGradient
                id="linearGradient3658"
                x1="16"
                x2="16"
                y1="27.045"
                y2="16"
                gradientTransform="matrix(0.81685996,0,0,0.96449758,3.8312622,23.128597)"
                gradientUnits="userSpaceOnUse"
                xlink:href="#linearGradient3680-6"/>
        <linearGradient
                id="linearGradient3662"
                x1="20"
                x2="20"
                y1="28"
                y2="26"
                gradientTransform="matrix(0.81900426,0,0,1.0609756,4.4056313,21.585366)"
                gradientUnits="userSpaceOnUse"
                xlink:href="#linearGradient3680-6"/>
        <linearGradient
                id="linearGradient3666"
                x1="12.579"
                x2="12.213"
                y1="2.9165"
                y2="47.279"
                gradientTransform="matrix(1.2655 0 0 1.2039 1.6269 7.3166)"
                gradientUnits="userSpaceOnUse">
            <stop
                    id="stop2240-1-6-7-0"
                    style="stop-color:#fff"
                    offset="0"/>
            <stop
                    id="stop2242-7-3-7-2"
                    style="stop-color:#fff;stop-opacity:0"
                    offset="1"/>
        </linearGradient>
        <linearGradient
                id="linearGradient3669"
                x1="23.071"
                x2="23.071"
                y1="36.047"
                y2="33.296"
                gradientTransform="matrix(1.296 0 0 1.3378 .90331 8.2994)"
                gradientUnits="userSpaceOnUse">
            <stop
                    id="stop2225-6-4-7"
                    style="stop-color:#fff"
                    offset="0"/>
            <stop
                    id="stop2229-2-5-5"
                    style="stop-color:#fff;stop-opacity:0"
                    offset="1"/>
        </linearGradient>
        <radialGradient
                id="radialGradient3672"
                cx="7.4957"
                cy="8.4498"
                r="20"
                gradientTransform="matrix(0 2.2999 -3.8677 -9.7048e-8 64.681 -1.1584)"
                gradientUnits="userSpaceOnUse">
            <stop
                    id="stop3790-0-0"
                    style="stop-color:#505050"
                    offset="0"/>
            <stop
                    id="stop3792-0-2"
                    style="stop-color:#141414"
                    offset="1"/>
        </radialGradient>
        <linearGradient
                id="linearGradient3674"
                x1="16.143"
                x2="16.143"
                y1="4"
                y2="44"
                gradientTransform="matrix(1.2565 0 0 1.0001 1.8444 10.998)"
                gradientUnits="userSpaceOnUse">
            <stop
                    id="stop3796-3-0"
                    style="stop-color:#323232"
                    offset="0"/>
            <stop
                    id="stop3798-8-6"
                    offset="1"/>
        </linearGradient>
        <linearGradient
                id="linearGradient3677"
                x1="24"
                x2="24"
                y1="7.96"
                y2="43.865"
                gradientTransform="matrix(1.3111 0 0 1.3243 .53297 .56708)"
                gradientUnits="userSpaceOnUse">
            <stop
                    id="stop4324-9-7"
                    style="stop-color:#f0f0f0"
                    offset="0"/>
            <stop
                    id="stop2860-4-4"
                    style="stop-color:#d7d7d8"
                    offset=".085525"/>
            <stop
                    id="stop2862-5-9"
                    style="stop-color:#b2b2b3"
                    offset=".92166"/>
            <stop
                    id="stop4326-1-1"
                    style="stop-color:#979798"
                    offset="1"/>
        </linearGradient>
        <linearGradient
                id="linearGradient3679"
                x1="10.014"
                x2="10.014"
                y1="44.96"
                y2="2.8765"
                gradientTransform="matrix(1.2553 0 0 1.1965 1.8719 6.2692)"
                gradientUnits="userSpaceOnUse">
            <stop
                    id="stop4334-7-6"
                    style="stop-color:#595959"
                    offset="0"/>
            <stop
                    id="stop4336-8-0"
                    style="stop-color:#b3b3b3"
                    offset="1"/>
        </linearGradient>
        <radialGradient
                id="radialGradient3682"
                cx="605.71"
                cy="486.65"
                r="117.14"
                gradientTransform="matrix(-.08745 0 0 .032941 63.59 42.589)"
                gradientUnits="userSpaceOnUse"
                xlink:href="#linearGradient5060-6-6-5"/>
        <radialGradient
                id="radialGradient3685"
                cx="605.71"
                cy="486.65"
                r="117.14"
                gradientTransform="matrix(.08745 0 0 .032941 .41038 42.589)"
                gradientUnits="userSpaceOnUse"
                xlink:href="#linearGradient5060-6-6-5"/>
        <linearGradient
                id="linearGradient3688"
                x1="302.86"
                x2="302.86"
                y1="366.65"
                y2="609.51"
                gradientTransform="matrix(.08745 0 0 .032941 .39317 42.589)"
                gradientUnits="userSpaceOnUse">
            <stop
                    id="stop5050-5-6-4"
                    style="stop-opacity:0"
                    offset="0"/>
            <stop
                    id="stop5056-9-0-1"
                    offset=".5"/>
            <stop
                    id="stop5052-6-9-5"
                    style="stop-opacity:0"
                    offset="1"/>
        </linearGradient>
    </defs>
    <rect
            id="rect2512-9-5"
            x="10.887"
            y="54.667"
            width="42.226"
            height="8"
            style="fill:url(#linearGradient3688);opacity:.40206"/>
    <path
            id="path2514-7-4"
            d="m53.113 54.667v7.9996c4.5034 0.01505 10.887-1.7923 10.887-4.0003 0-2.208-5.0255-3.9993-10.887-3.9993z"
            style="fill:url(#radialGradient3685);opacity:.40206"/>
    <path
            id="path2516-8-9"
            d="m10.887 54.667v7.9996c-4.5034 0.015054-10.887-1.7923-10.887-4.0003 0-2.208 5.0255-3.9993 10.887-3.9993z"
            style="fill:url(#radialGradient3682);opacity:.40206"/>
    <rect
            id="rect2551-5-8"
            x="2.5011"
            y="10.501"
            width="58.998"
            height="48.998"
            rx="1.4989"
            ry="1.4989"
            style="fill-rule:evenodd;fill:url(#linearGradient3677);stroke-linecap:round;stroke-linejoin:round;stroke-width:1.0021;stroke:url(#linearGradient3679)"/>
    <rect
            id="rect1314-3-3"
            x="7.5"
            y="15.5"
            width="49"
            height="39"
            rx="0"
            ry="0"
            style="color:#000000;fill:url(#radialGradient3672);stroke-linecap:round;stroke-linejoin:round;stroke:url(#linearGradient3674)"/>
    <rect
            id="rect2221-3-8"
            x="6.5011"
            y="14.501"
            width="50.998"
            height="40.998"
            rx="0"
            ry="0"
            style="fill:none;opacity:.4;stroke-linecap:round;stroke-linejoin:round;stroke-width:1.0021;stroke:url(#linearGradient3669)"/>
    <rect
            id="rect2556-8-5"
            x="3.5019"
            y="11.502"
            width="56.996"
            height="46.996"
            rx=".49813"
            ry=".49813"
            style="fill:none;opacity:.8;stroke-linecap:round;stroke-linejoin:round;stroke-width:1.0037;stroke:url(#linearGradient3666)"/>
    <path
            id="path3651-7-2"
            d="M 25.699748,52 V 49.878049 H 19.147714 V 52 Z"
            style="opacity:0.4;stroke-width:0.64908087"
            inkscape:connector-curvature="0"/>
    <path
            id="path3651-2"
            d="m 25.699748,51.292683 v -2.121951 h -6.552034 v 2.121951 z"
            style="fill:url(#linearGradient3662);stroke-width:0.64908087"
            inkscape:connector-curvature="0"/>
    <path
            id="path3653-3-2"
            d="M 13.633879,49.878049 12.0001,47.948983 15.676029,44.573171 12.0001,41.197358 l 1.633779,-1.929066 5.513895,5.304879 z"
            style="opacity:0.4;stroke-width:0.64908087"
            inkscape:connector-curvature="0"/>
    <path
            id="path3653-7"
            d="M 13.633879,49.170732 12.0001,47.241666 15.676029,43.865854 12.0001,40.490041 l 1.633779,-1.929066 5.513895,5.304879 z"
            style="fill:url(#linearGradient3658);stroke-width:0.64908087"
            inkscape:connector-curvature="0"/>
    <path
            id="path3333-3-0"
            d="m 6.338171,12.627119 c -1.5256,0 -2.7619,1.312 -2.7619,2.9309 v 21.438 c 0.004,0.18035 0.07804,0.3509 0.20549,0.47024 0.12747,0.11934 0.2962,0.17658 0.46525,0.15781 l 56.815999,-9.5464 c 0.29227,-0.04891 0.50884,-0.3141 0.51293,-0.62805 v -11.891 c 0,-1.6189 -1.2363,-2.9309 -2.7619,-2.9309 H 6.338041 Z"
            style="opacity:0.2;fill:url(#linearGradient3655);fill-rule:evenodd"
            inkscape:connector-curvature="0"/>
    <rect
            id="rect1314-3-3-9"
            x="8.5"
            y="16.5"
            width="47"
            height="37"
            rx="0"
            ry="0"
            style="color:#000000;fill:none;opacity:.1;stroke-linecap:round;stroke-linejoin:round;stroke:url(#linearGradient3652)"/>
    <g
            id="g1075"
            transform="matrix(0.03367108,-0.01944,0.01944,0.03367108,23.40716,18.116093)">
        <path
                style="fill:#ffff0c;fill-opacity:1;fill-rule:nonzero;stroke:none"
                d="m 412.21875,306.50005 c -32.50721,0 -72.54481,23.90236 -83.15625,34.59375 -10.61144,10.69139 -161.625,161.625 -161.625,161.625 l 161.625,161.625 c 0,0 -10.63154,-11.17271 0.0312,-0.0312 10.66279,11.14151 51.34622,36.15625 84.625,36.15625 64.69622,0 117.15625,-52.46003 117.15625,-117.15625 0,-31.25776 -12.23567,-59.65082 -32.1875,-80.65625 19.05026,-20.83294 30.6875,-48.57666 30.6875,-79.03125 0,-64.69622 -52.46003,-117.125 -117.15625,-117.125 z"
                id="use1051"
                inkscape:connector-curvature="0"
                sodipodi:nodetypes="czccssscssc"
                inkscape:transform-center-x="-181.92181"
                inkscape:tile-x0="-196"
                inkscape:tile-y0="-87.46875"
                inkscape:transform-center-y="0.63279128"/>
        <path
                style="fill:#0dff0c;fill-opacity:1;fill-rule:nonzero;stroke:none"
                d="m 459.77207,616.83849 c -16.2536,-28.15207 -56.97245,-50.87447 -71.53719,-54.71855 -14.56473,-3.84409 -220.78385,-59.15886 -220.78385,-59.15886 l -59.15886,220.78386 c 0,0 4.36008,-14.79354 0.0426,0.0115 -4.31744,14.805 -5.63912,62.54526 11.00027,91.36552 32.34811,56.02857 104.00984,75.23028 160.03841,42.88217 27.07001,-15.62888 45.54129,-40.42181 53.75661,-68.20332 27.56699,6.08154 57.41238,2.28782 83.78682,-12.93947 56.02857,-32.34811 75.20321,-103.99422 42.8551,-160.02279 z"
                id="use1053"
                inkscape:connector-curvature="0"
                sodipodi:nodetypes="czccssscssc"
                inkscape:transform-center-x="-181.92181"
                inkscape:tile-x0="-196"
                inkscape:tile-y0="-87.46875"
                inkscape:transform-center-y="0.63279128"/>
        <path
                style="fill:#0cfffd;fill-opacity:1;fill-rule:nonzero;stroke:none"
                d="m 214.78776,813.1901 c 16.25361,-28.15207 15.57235,-74.77683 11.61906,-89.3123 -3.95329,-14.53548 -59.15885,-220.78386 -59.15885,-220.78386 L -53.535888,562.2528 c 0,0 14.991622,-3.62083 0.0114,0.0427 -14.980226,3.66349 -56.985342,26.38901 -73.624722,55.20927 -32.34811,56.02857 -13.14641,127.69031 42.882155,160.03842 27.070014,15.62888 57.77696,19.22901 85.944111,12.45293 8.516724,26.91448 26.724874,50.86449 53.09932,66.09178 56.028574,32.34811 127.663234,13.13078 160.011344,-42.89779 z"
                id="use1055"
                inkscape:connector-curvature="0"
                sodipodi:nodetypes="czccssscssc"
                inkscape:transform-center-x="-181.92181"
                inkscape:tile-x0="-196"
                inkscape:tile-y0="-87.46875"
                inkscape:transform-center-y="0.63279128"/>
        <path
                style="fill:#0c0fff;fill-opacity:1;fill-rule:nonzero;stroke:none"
                d="m -77.74987,699.20327 c 32.507212,0 72.544806,-23.90236 83.15625,-34.59375 10.611444,-10.69139 161.625,-161.625 161.625,-161.625 l -161.625,-161.625 c 0,0 10.631541,11.17271 -0.03125,0.0312 -10.662791,-11.14151 -51.346222,-36.15625 -84.625,-36.15625 -64.69622,0 -117.15625,52.46003 -117.15625,117.15625 0,31.25776 12.23567,59.65082 32.1875,80.65625 -19.05026,20.83294 -30.6875,48.57666 -30.6875,79.03125 0,64.69622 52.46003,117.125 117.15625,117.125 z"
                id="use1057"
                inkscape:connector-curvature="0"
                sodipodi:nodetypes="czccssscssc"
                inkscape:transform-center-x="-181.92181"
                inkscape:tile-x0="-196"
                inkscape:tile-y0="-87.46875"
                inkscape:transform-center-y="0.63279128"/>
        <path
                style="fill:#fb0cff;fill-opacity:1;fill-rule:nonzero;stroke:none"
                d="m -125.3032,388.86482 c 16.25361,28.15207 56.972459,50.87447 71.537195,54.71855 14.564736,3.84409 220.783855,59.15886 220.783855,59.15886 l 59.15886,-220.78386 c 0,0 -4.36008,14.79354 -0.0427,-0.0115 4.31744,-14.805 5.63912,-62.54526 -11.00027,-91.36552 C 182.78568,134.55282 111.12395,115.35111 55.095378,147.69922 28.025364,163.3281 9.5540879,188.12103 1.338767,215.90254 c -27.566984,-6.08154 -57.412374,-2.28782 -83.78682,12.93947 -56.028567,32.34811 -75.203207,103.99422 -42.855097,160.02279 z"
                id="use1059"
                inkscape:connector-curvature="0"
                sodipodi:nodetypes="czccssscssc"
                inkscape:transform-center-x="-181.92181"
                inkscape:tile-x0="-196"
                inkscape:tile-y0="-87.46875"
                inkscape:transform-center-y="0.63279128"/>
        <path
                style="fill:#ff0c11;fill-opacity:1;fill-rule:nonzero;stroke:none"
                d="m 119.68112,192.51322 c -16.25361,28.15207 -15.57235,74.77683 -11.61906,89.3123 3.95329,14.53548 59.15885,220.78386 59.15885,220.78386 l 220.78386,-59.15886 c 0,0 -14.99162,3.62083 -0.0114,-0.0427 14.98023,-3.66349 56.98534,-26.38901 73.62473,-55.20927 32.34811,-56.02857 13.14641,-127.69031 -42.88216,-160.03842 -27.07001,-15.62888 -57.77696,-19.22901 -85.94411,-12.45293 -8.51673,-26.91448 -26.72488,-50.86449 -53.09932,-66.09178 -56.02857,-32.34811 -127.66324,-13.13078 -160.01135,42.89779 z"
                id="use1061"
                inkscape:connector-curvature="0"
                sodipodi:nodetypes="czccssscssc"
                inkscape:transform-center-x="-181.92181"
                inkscape:tile-x0="-196"
                inkscape:tile-y0="-87.46875"
                inkscape:transform-center-y="0.63279128"/>
    </g>
</svg>
