<svg width="330" height="330">
    <rect fill="#ffffff" x="0" y="0" width="330" height="330"></rect>
    <text x="180" y="35" fill="#373b41" text-anchor="middle" alignment-baseline="central" font-size="24">Tomorrow (light)</text>
    <text x="10" y="75" fill="#373b41" text-anchor="start"  alignment-baseline="baseline" font-size="14">FG: #373b41. BG: #ffffff</text>

<rect id="#box-1" x="5" y="85"  width="74" height="54" fill= "#1d1f21" stroke="#1d1f21" stroke-width="1px" /><rect id="#box-1" x="5" y="133"  width="74" height="6" fill= "#050606" stroke="#050606" stroke-width="1px" /><text id="#box-text-1" x="15" y="126" fill="#211F1D" font-size="12" font-family="Droid Sans Mono, Times, serif">#1d1f21</text><text id="#box-text-1" x="35" y="108" fill="#211F1D" font-size="18" font-family="Droid Sans Mono, Times, serif">1</text>
<rect id="#box-2" x="5" y="145"  width="74" height="54" fill= "#cc6666" stroke="#cc6666" stroke-width="1px" /><rect id="#box-2" x="5" y="193"  width="74" height="6" fill= "#BF4040" stroke="#BF4040" stroke-width="1px" /><text id="#box-text-2" x="15" y="186" fill="#66CCCC" font-size="12" font-family="Droid Sans Mono, Times, serif">#cc6666</text><text id="#box-text-2" x="35" y="168" fill="#66CCCC" font-size="18" font-family="Droid Sans Mono, Times, serif">2</text>
<rect id="#box-3" x="5" y="205"  width="74" height="54" fill= "#b5bd68" stroke="#b5bd68" stroke-width="1px" /><rect id="#box-3" x="5" y="253"  width="74" height="6" fill= "#9FA84A" stroke="#9FA84A" stroke-width="1px" /><text id="#box-text-3" x="15" y="246" fill="#7068BD" font-size="12" font-family="Droid Sans Mono, Times, serif">#b5bd68</text><text id="#box-text-3" x="35" y="228" fill="#7068BD" font-size="18" font-family="Droid Sans Mono, Times, serif">3</text>
<rect id="#box-4" x="5" y="265"  width="74" height="54" fill= "#f0c674" stroke="#f0c674" stroke-width="1px" /><rect id="#box-4" x="5" y="313"  width="74" height="6" fill= "#EBB346" stroke="#EBB346" stroke-width="1px" /><text id="#box-text-4" x="15" y="306" fill="#749EF0" font-size="12" font-family="Droid Sans Mono, Times, serif">#f0c674</text><text id="#box-text-4" x="35" y="288" fill="#749EF0" font-size="18" font-family="Droid Sans Mono, Times, serif">4</text>
<rect id="#box-5" x="85" y="85"  width="74" height="54" fill= "#81a2be" stroke="#81a2be" stroke-width="1px" /><rect id="#box-5" x="85" y="133"  width="74" height="6" fill= "#5F89AD" stroke="#5F89AD" stroke-width="1px" /><text id="#box-text-5" x="95" y="126" fill="#BE9D81" font-size="12" font-family="Droid Sans Mono, Times, serif">#81a2be</text><text id="#box-text-5" x="115" y="108" fill="#BE9D81" font-size="18" font-family="Droid Sans Mono, Times, serif">5</text>
<rect id="#box-6" x="85" y="145"  width="74" height="54" fill= "#b294bb" stroke="#b294bb" stroke-width="1px" /><rect id="#box-6" x="85" y="193"  width="74" height="6" fill= "#9C75A7" stroke="#9C75A7" stroke-width="1px" /><text id="#box-text-6" x="95" y="186" fill="#9DBB94" font-size="12" font-family="Droid Sans Mono, Times, serif">#b294bb</text><text id="#box-text-6" x="115" y="168" fill="#9DBB94" font-size="18" font-family="Droid Sans Mono, Times, serif">6</text>
<rect id="#box-7" x="85" y="205"  width="74" height="54" fill= "#8abeb7" stroke="#8abeb7" stroke-width="1px" /><rect id="#box-7" x="85" y="253"  width="74" height="6" fill= "#69ACA3" stroke="#69ACA3" stroke-width="1px" /><text id="#box-text-7" x="95" y="246" fill="#BE8A91" font-size="12" font-family="Droid Sans Mono, Times, serif">#8abeb7</text><text id="#box-text-7" x="115" y="228" fill="#BE8A91" font-size="18" font-family="Droid Sans Mono, Times, serif">7</text>
<rect id="#box-8" x="85" y="265"  width="74" height="54" fill= "#c5c8c6" stroke="#c5c8c6" stroke-width="1px" /><rect id="#box-8" x="85" y="313"  width="74" height="6" fill= "#ABAFAC" stroke="#ABAFAC" stroke-width="1px" /><text id="#box-text-8" x="95" y="306" fill="#C8C5C7" font-size="12" font-family="Droid Sans Mono, Times, serif">#c5c8c6</text><text id="#box-text-8" x="115" y="288" fill="#C8C5C7" font-size="18" font-family="Droid Sans Mono, Times, serif">8</text>
<rect id="#box-9" x="165" y="85"  width="74" height="54" fill= "#969896" stroke="#969896" stroke-width="1px" /><rect id="#box-9" x="165" y="133"  width="74" height="6" fill= "#7C7F7C" stroke="#7C7F7C" stroke-width="1px" /><text id="#box-text-9" x="175" y="126" fill="#989698" font-size="12" font-family="Droid Sans Mono, Times, serif">#969896</text><text id="#box-text-9" x="195" y="108" fill="#989698" font-size="18" font-family="Droid Sans Mono, Times, serif">9</text>
<rect id="#box-10" x="165" y="145"  width="74" height="54" fill= "#cc6666" stroke="#cc6666" stroke-width="1px" /><rect id="#box-10" x="165" y="193"  width="74" height="6" fill= "#BF4040" stroke="#BF4040" stroke-width="1px" /><text id="#box-text-10" x="175" y="186" fill="#66CCCC" font-size="12" font-family="Droid Sans Mono, Times, serif">#cc6666</text><text id="#box-text-10" x="195" y="168" fill="#66CCCC" font-size="18" font-family="Droid Sans Mono, Times, serif">10</text>
<rect id="#box-11" x="165" y="205"  width="74" height="54" fill= "#b5bd68" stroke="#b5bd68" stroke-width="1px" /><rect id="#box-11" x="165" y="253"  width="74" height="6" fill= "#9FA84A" stroke="#9FA84A" stroke-width="1px" /><text id="#box-text-11" x="175" y="246" fill="#7068BD" font-size="12" font-family="Droid Sans Mono, Times, serif">#b5bd68</text><text id="#box-text-11" x="195" y="228" fill="#7068BD" font-size="18" font-family="Droid Sans Mono, Times, serif">11</text>
<rect id="#box-12" x="165" y="265"  width="74" height="54" fill= "#f0c674" stroke="#f0c674" stroke-width="1px" /><rect id="#box-12" x="165" y="313"  width="74" height="6" fill= "#EBB346" stroke="#EBB346" stroke-width="1px" /><text id="#box-text-12" x="175" y="306" fill="#749EF0" font-size="12" font-family="Droid Sans Mono, Times, serif">#f0c674</text><text id="#box-text-12" x="195" y="288" fill="#749EF0" font-size="18" font-family="Droid Sans Mono, Times, serif">12</text>
<rect id="#box-13" x="245" y="85"  width="74" height="54" fill= "#81a2be" stroke="#81a2be" stroke-width="1px" /><rect id="#box-13" x="245" y="133"  width="74" height="6" fill= "#5F89AD" stroke="#5F89AD" stroke-width="1px" /><text id="#box-text-13" x="255" y="126" fill="#BE9D81" font-size="12" font-family="Droid Sans Mono, Times, serif">#81a2be</text><text id="#box-text-13" x="275" y="108" fill="#BE9D81" font-size="18" font-family="Droid Sans Mono, Times, serif">13</text>
<rect id="#box-14" x="245" y="145"  width="74" height="54" fill= "#b294bb" stroke="#b294bb" stroke-width="1px" /><rect id="#box-14" x="245" y="193"  width="74" height="6" fill= "#9C75A7" stroke="#9C75A7" stroke-width="1px" /><text id="#box-text-14" x="255" y="186" fill="#9DBB94" font-size="12" font-family="Droid Sans Mono, Times, serif">#b294bb</text><text id="#box-text-14" x="275" y="168" fill="#9DBB94" font-size="18" font-family="Droid Sans Mono, Times, serif">14</text>
<rect id="#box-15" x="245" y="205"  width="74" height="54" fill= "#8abeb7" stroke="#8abeb7" stroke-width="1px" /><rect id="#box-15" x="245" y="253"  width="74" height="6" fill= "#69ACA3" stroke="#69ACA3" stroke-width="1px" /><text id="#box-text-15" x="255" y="246" fill="#BE8A91" font-size="12" font-family="Droid Sans Mono, Times, serif">#8abeb7</text><text id="#box-text-15" x="275" y="228" fill="#BE8A91" font-size="18" font-family="Droid Sans Mono, Times, serif">15</text>
<rect id="#box-16" x="245" y="265"  width="74" height="54" fill= "#ffffff" stroke="#ffffff" stroke-width="1px" /><rect id="#box-16" x="245" y="313"  width="74" height="6" fill= "#E6E6E6" stroke="#E6E6E6" stroke-width="1px" /><text id="#box-text-16" x="255" y="306" fill="#FFFFFF" font-size="12" font-family="Droid Sans Mono, Times, serif">#ffffff</text><text id="#box-text-16" x="275" y="288" fill="#FFFFFF" font-size="18" font-family="Droid Sans Mono, Times, serif">16</text>
</svg>