<svg width="330" height="330">
    <rect fill="#f7f7f7" x="0" y="0" width="330" height="330"></rect>
    <text x="180" y="35" fill="#4a4543" text-anchor="middle" alignment-baseline="central" font-size="24">3024 (light)</text>
    <text x="10" y="75" fill="#4a4543" text-anchor="start"  alignment-baseline="baseline" font-size="14">FG: #4a4543. BG: #f7f7f7</text>

<rect id="#box-1" x="5" y="85"  width="74" height="54" fill= "#090300" stroke="#090300" stroke-width="1px" /><rect id="#box-1" x="5" y="133"  width="74" height="6" fill= "#000000" stroke="#000000" stroke-width="1px" /><text id="#box-text-1" x="15" y="126" fill="#000609" font-size="12" font-family="Droid Sans Mono, Times, serif">#090300</text><text id="#box-text-1" x="35" y="108" fill="#000609" font-size="18" font-family="Droid Sans Mono, Times, serif">1</text>
<rect id="#box-2" x="5" y="145"  width="74" height="54" fill= "#db2d20" stroke="#db2d20" stroke-width="1px" /><rect id="#box-2" x="5" y="193"  width="74" height="6" fill= "#AF2419" stroke="#AF2419" stroke-width="1px" /><text id="#box-text-2" x="15" y="186" fill="#20CEDB" font-size="12" font-family="Droid Sans Mono, Times, serif">#db2d20</text><text id="#box-text-2" x="35" y="168" fill="#20CEDB" font-size="18" font-family="Droid Sans Mono, Times, serif">2</text>
<rect id="#box-3" x="5" y="205"  width="74" height="54" fill= "#01a252" stroke="#01a252" stroke-width="1px" /><rect id="#box-3" x="5" y="253"  width="74" height="6" fill= "#016F38" stroke="#016F38" stroke-width="1px" /><text id="#box-text-3" x="15" y="246" fill="#A20151" font-size="12" font-family="Droid Sans Mono, Times, serif">#01a252</text><text id="#box-text-3" x="35" y="228" fill="#A20151" font-size="18" font-family="Droid Sans Mono, Times, serif">3</text>
<rect id="#box-4" x="5" y="265"  width="74" height="54" fill= "#fded02" stroke="#fded02" stroke-width="1px" /><rect id="#box-4" x="5" y="313"  width="74" height="6" fill= "#CABE02" stroke="#CABE02" stroke-width="1px" /><text id="#box-text-4" x="15" y="306" fill="#0212FD" font-size="12" font-family="Droid Sans Mono, Times, serif">#fded02</text><text id="#box-text-4" x="35" y="288" fill="#0212FD" font-size="18" font-family="Droid Sans Mono, Times, serif">4</text>
<rect id="#box-5" x="85" y="85"  width="74" height="54" fill= "#01a0e4" stroke="#01a0e4" stroke-width="1px" /><rect id="#box-5" x="85" y="133"  width="74" height="6" fill= "#017CB1" stroke="#017CB1" stroke-width="1px" /><text id="#box-text-5" x="95" y="126" fill="#E44501" font-size="12" font-family="Droid Sans Mono, Times, serif">#01a0e4</text><text id="#box-text-5" x="115" y="108" fill="#E44501" font-size="18" font-family="Droid Sans Mono, Times, serif">5</text>
<rect id="#box-6" x="85" y="145"  width="74" height="54" fill= "#a16a94" stroke="#a16a94" stroke-width="1px" /><rect id="#box-6" x="85" y="193"  width="74" height="6" fill= "#845479" stroke="#845479" stroke-width="1px" /><text id="#box-text-6" x="95" y="186" fill="#6AA177" font-size="12" font-family="Droid Sans Mono, Times, serif">#a16a94</text><text id="#box-text-6" x="115" y="168" fill="#6AA177" font-size="18" font-family="Droid Sans Mono, Times, serif">6</text>
<rect id="#box-7" x="85" y="205"  width="74" height="54" fill= "#b5e4f4" stroke="#b5e4f4" stroke-width="1px" /><rect id="#box-7" x="85" y="253"  width="74" height="6" fill= "#89D4ED" stroke="#89D4ED" stroke-width="1px" /><text id="#box-text-7" x="95" y="246" fill="#F4C5B5" font-size="12" font-family="Droid Sans Mono, Times, serif">#b5e4f4</text><text id="#box-text-7" x="115" y="228" fill="#F4C5B5" font-size="18" font-family="Droid Sans Mono, Times, serif">7</text>
<rect id="#box-8" x="85" y="265"  width="74" height="54" fill= "#a5a2a2" stroke="#a5a2a2" stroke-width="1px" /><rect id="#box-8" x="85" y="313"  width="74" height="6" fill= "#8C8888" stroke="#8C8888" stroke-width="1px" /><text id="#box-text-8" x="95" y="306" fill="#A2A5A5" font-size="12" font-family="Droid Sans Mono, Times, serif">#a5a2a2</text><text id="#box-text-8" x="115" y="288" fill="#A2A5A5" font-size="18" font-family="Droid Sans Mono, Times, serif">8</text>
<rect id="#box-9" x="165" y="85"  width="74" height="54" fill= "#5c5855" stroke="#5c5855" stroke-width="1px" /><rect id="#box-9" x="165" y="133"  width="74" height="6" fill= "#413F3D" stroke="#413F3D" stroke-width="1px" /><text id="#box-text-9" x="175" y="126" fill="#55595C" font-size="12" font-family="Droid Sans Mono, Times, serif">#5c5855</text><text id="#box-text-9" x="195" y="108" fill="#55595C" font-size="18" font-family="Droid Sans Mono, Times, serif">9</text>
<rect id="#box-10" x="165" y="145"  width="74" height="54" fill= "#db2d20" stroke="#db2d20" stroke-width="1px" /><rect id="#box-10" x="165" y="193"  width="74" height="6" fill= "#AF2419" stroke="#AF2419" stroke-width="1px" /><text id="#box-text-10" x="175" y="186" fill="#20CEDB" font-size="12" font-family="Droid Sans Mono, Times, serif">#db2d20</text><text id="#box-text-10" x="195" y="168" fill="#20CEDB" font-size="18" font-family="Droid Sans Mono, Times, serif">10</text>
<rect id="#box-11" x="165" y="205"  width="74" height="54" fill= "#01a252" stroke="#01a252" stroke-width="1px" /><rect id="#box-11" x="165" y="253"  width="74" height="6" fill= "#016F38" stroke="#016F38" stroke-width="1px" /><text id="#box-text-11" x="175" y="246" fill="#A20151" font-size="12" font-family="Droid Sans Mono, Times, serif">#01a252</text><text id="#box-text-11" x="195" y="228" fill="#A20151" font-size="18" font-family="Droid Sans Mono, Times, serif">11</text>
<rect id="#box-12" x="165" y="265"  width="74" height="54" fill= "#fded02" stroke="#fded02" stroke-width="1px" /><rect id="#box-12" x="165" y="313"  width="74" height="6" fill= "#CABE02" stroke="#CABE02" stroke-width="1px" /><text id="#box-text-12" x="175" y="306" fill="#0212FD" font-size="12" font-family="Droid Sans Mono, Times, serif">#fded02</text><text id="#box-text-12" x="195" y="288" fill="#0212FD" font-size="18" font-family="Droid Sans Mono, Times, serif">12</text>
<rect id="#box-13" x="245" y="85"  width="74" height="54" fill= "#01a0e4" stroke="#01a0e4" stroke-width="1px" /><rect id="#box-13" x="245" y="133"  width="74" height="6" fill= "#017CB1" stroke="#017CB1" stroke-width="1px" /><text id="#box-text-13" x="255" y="126" fill="#E44501" font-size="12" font-family="Droid Sans Mono, Times, serif">#01a0e4</text><text id="#box-text-13" x="275" y="108" fill="#E44501" font-size="18" font-family="Droid Sans Mono, Times, serif">13</text>
<rect id="#box-14" x="245" y="145"  width="74" height="54" fill= "#a16a94" stroke="#a16a94" stroke-width="1px" /><rect id="#box-14" x="245" y="193"  width="74" height="6" fill= "#845479" stroke="#845479" stroke-width="1px" /><text id="#box-text-14" x="255" y="186" fill="#6AA177" font-size="12" font-family="Droid Sans Mono, Times, serif">#a16a94</text><text id="#box-text-14" x="275" y="168" fill="#6AA177" font-size="18" font-family="Droid Sans Mono, Times, serif">14</text>
<rect id="#box-15" x="245" y="205"  width="74" height="54" fill= "#b5e4f4" stroke="#b5e4f4" stroke-width="1px" /><rect id="#box-15" x="245" y="253"  width="74" height="6" fill= "#89D4ED" stroke="#89D4ED" stroke-width="1px" /><text id="#box-text-15" x="255" y="246" fill="#F4C5B5" font-size="12" font-family="Droid Sans Mono, Times, serif">#b5e4f4</text><text id="#box-text-15" x="275" y="228" fill="#F4C5B5" font-size="18" font-family="Droid Sans Mono, Times, serif">15</text>
<rect id="#box-16" x="245" y="265"  width="74" height="54" fill= "#f7f7f7" stroke="#f7f7f7" stroke-width="1px" /><rect id="#box-16" x="245" y="313"  width="74" height="6" fill= "#DEDEDE" stroke="#DEDEDE" stroke-width="1px" /><text id="#box-text-16" x="255" y="306" fill="#F7F7F7" font-size="12" font-family="Droid Sans Mono, Times, serif">#f7f7f7</text><text id="#box-text-16" x="275" y="288" fill="#F7F7F7" font-size="18" font-family="Droid Sans Mono, Times, serif">16</text>
</svg>