<svg width="330" height="330">
    <rect fill="#201602" x="0" y="0" width="330" height="330"></rect>
    <text x="180" y="35" fill="#948e48" text-anchor="middle" alignment-baseline="central" font-size="24">Marrakesh (dark)</text>
    <text x="10" y="75" fill="#948e48" text-anchor="start"  alignment-baseline="baseline" font-size="14">FG: #948e48. BG: #201602</text>

<rect id="#box-1" x="5" y="85"  width="74" height="54" fill= "#201602" stroke="#201602" stroke-width="1px" /><rect id="#box-1" x="5" y="133"  width="74" height="6" fill= "#000000" stroke="#000000" stroke-width="1px" /><text id="#box-text-1" x="15" y="126" fill="#020C20" font-size="12" font-family="Droid Sans Mono, Times, serif">#201602</text><text id="#box-text-1" x="35" y="108" fill="#020C20" font-size="18" font-family="Droid Sans Mono, Times, serif">1</text>
<rect id="#box-2" x="5" y="145"  width="74" height="54" fill= "#c35359" stroke="#c35359" stroke-width="1px" /><rect id="#box-2" x="5" y="193"  width="74" height="6" fill= "#A83B41" stroke="#A83B41" stroke-width="1px" /><text id="#box-text-2" x="15" y="186" fill="#53C3BD" font-size="12" font-family="Droid Sans Mono, Times, serif">#c35359</text><text id="#box-text-2" x="35" y="168" fill="#53C3BD" font-size="18" font-family="Droid Sans Mono, Times, serif">2</text>
<rect id="#box-3" x="5" y="205"  width="74" height="54" fill= "#18974e" stroke="#18974e" stroke-width="1px" /><rect id="#box-3" x="5" y="253"  width="74" height="6" fill= "#116B37" stroke="#116B37" stroke-width="1px" /><text id="#box-text-3" x="15" y="246" fill="#971861" font-size="12" font-family="Droid Sans Mono, Times, serif">#18974e</text><text id="#box-text-3" x="35" y="228" fill="#971861" font-size="18" font-family="Droid Sans Mono, Times, serif">3</text>
<rect id="#box-4" x="5" y="265"  width="74" height="54" fill= "#a88339" stroke="#a88339" stroke-width="1px" /><rect id="#box-4" x="5" y="313"  width="74" height="6" fill= "#82652C" stroke="#82652C" stroke-width="1px" /><text id="#box-text-4" x="15" y="306" fill="#395EA8" font-size="12" font-family="Droid Sans Mono, Times, serif">#a88339</text><text id="#box-text-4" x="35" y="288" fill="#395EA8" font-size="18" font-family="Droid Sans Mono, Times, serif">4</text>
<rect id="#box-5" x="85" y="85"  width="74" height="54" fill= "#477ca1" stroke="#477ca1" stroke-width="1px" /><rect id="#box-5" x="85" y="133"  width="74" height="6" fill= "#37617E" stroke="#37617E" stroke-width="1px" /><text id="#box-text-5" x="95" y="126" fill="#A16C47" font-size="12" font-family="Droid Sans Mono, Times, serif">#477ca1</text><text id="#box-text-5" x="115" y="108" fill="#A16C47" font-size="18" font-family="Droid Sans Mono, Times, serif">5</text>
<rect id="#box-6" x="85" y="145"  width="74" height="54" fill= "#8868b3" stroke="#8868b3" stroke-width="1px" /><rect id="#box-6" x="85" y="193"  width="74" height="6" fill= "#6E4E9A" stroke="#6E4E9A" stroke-width="1px" /><text id="#box-text-6" x="95" y="186" fill="#93B368" font-size="12" font-family="Droid Sans Mono, Times, serif">#8868b3</text><text id="#box-text-6" x="115" y="168" fill="#93B368" font-size="18" font-family="Droid Sans Mono, Times, serif">6</text>
<rect id="#box-7" x="85" y="205"  width="74" height="54" fill= "#75a738" stroke="#75a738" stroke-width="1px" /><rect id="#box-7" x="85" y="253"  width="74" height="6" fill= "#5A812B" stroke="#5A812B" stroke-width="1px" /><text id="#box-text-7" x="95" y="246" fill="#6A38A7" font-size="12" font-family="Droid Sans Mono, Times, serif">#75a738</text><text id="#box-text-7" x="115" y="228" fill="#6A38A7" font-size="18" font-family="Droid Sans Mono, Times, serif">7</text>
<rect id="#box-8" x="85" y="265"  width="74" height="54" fill= "#948e48" stroke="#948e48" stroke-width="1px" /><rect id="#box-8" x="85" y="313"  width="74" height="6" fill= "#726D37" stroke="#726D37" stroke-width="1px" /><text id="#box-text-8" x="95" y="306" fill="#484E94" font-size="12" font-family="Droid Sans Mono, Times, serif">#948e48</text><text id="#box-text-8" x="115" y="288" fill="#484E94" font-size="18" font-family="Droid Sans Mono, Times, serif">8</text>
<rect id="#box-9" x="165" y="85"  width="74" height="54" fill= "#6c6823" stroke="#6c6823" stroke-width="1px" /><rect id="#box-9" x="165" y="133"  width="74" height="6" fill= "#454317" stroke="#454317" stroke-width="1px" /><text id="#box-text-9" x="175" y="126" fill="#23276C" font-size="12" font-family="Droid Sans Mono, Times, serif">#6c6823</text><text id="#box-text-9" x="195" y="108" fill="#23276C" font-size="18" font-family="Droid Sans Mono, Times, serif">9</text>
<rect id="#box-10" x="165" y="145"  width="74" height="54" fill= "#c35359" stroke="#c35359" stroke-width="1px" /><rect id="#box-10" x="165" y="193"  width="74" height="6" fill= "#A83B41" stroke="#A83B41" stroke-width="1px" /><text id="#box-text-10" x="175" y="186" fill="#53C3BD" font-size="12" font-family="Droid Sans Mono, Times, serif">#c35359</text><text id="#box-text-10" x="195" y="168" fill="#53C3BD" font-size="18" font-family="Droid Sans Mono, Times, serif">10</text>
<rect id="#box-11" x="165" y="205"  width="74" height="54" fill= "#18974e" stroke="#18974e" stroke-width="1px" /><rect id="#box-11" x="165" y="253"  width="74" height="6" fill= "#116B37" stroke="#116B37" stroke-width="1px" /><text id="#box-text-11" x="175" y="246" fill="#971861" font-size="12" font-family="Droid Sans Mono, Times, serif">#18974e</text><text id="#box-text-11" x="195" y="228" fill="#971861" font-size="18" font-family="Droid Sans Mono, Times, serif">11</text>
<rect id="#box-12" x="165" y="265"  width="74" height="54" fill= "#a88339" stroke="#a88339" stroke-width="1px" /><rect id="#box-12" x="165" y="313"  width="74" height="6" fill= "#82652C" stroke="#82652C" stroke-width="1px" /><text id="#box-text-12" x="175" y="306" fill="#395EA8" font-size="12" font-family="Droid Sans Mono, Times, serif">#a88339</text><text id="#box-text-12" x="195" y="288" fill="#395EA8" font-size="18" font-family="Droid Sans Mono, Times, serif">12</text>
<rect id="#box-13" x="245" y="85"  width="74" height="54" fill= "#477ca1" stroke="#477ca1" stroke-width="1px" /><rect id="#box-13" x="245" y="133"  width="74" height="6" fill= "#37617E" stroke="#37617E" stroke-width="1px" /><text id="#box-text-13" x="255" y="126" fill="#A16C47" font-size="12" font-family="Droid Sans Mono, Times, serif">#477ca1</text><text id="#box-text-13" x="275" y="108" fill="#A16C47" font-size="18" font-family="Droid Sans Mono, Times, serif">13</text>
<rect id="#box-14" x="245" y="145"  width="74" height="54" fill= "#8868b3" stroke="#8868b3" stroke-width="1px" /><rect id="#box-14" x="245" y="193"  width="74" height="6" fill= "#6E4E9A" stroke="#6E4E9A" stroke-width="1px" /><text id="#box-text-14" x="255" y="186" fill="#93B368" font-size="12" font-family="Droid Sans Mono, Times, serif">#8868b3</text><text id="#box-text-14" x="275" y="168" fill="#93B368" font-size="18" font-family="Droid Sans Mono, Times, serif">14</text>
<rect id="#box-15" x="245" y="205"  width="74" height="54" fill= "#75a738" stroke="#75a738" stroke-width="1px" /><rect id="#box-15" x="245" y="253"  width="74" height="6" fill= "#5A812B" stroke="#5A812B" stroke-width="1px" /><text id="#box-text-15" x="255" y="246" fill="#6A38A7" font-size="12" font-family="Droid Sans Mono, Times, serif">#75a738</text><text id="#box-text-15" x="275" y="228" fill="#6A38A7" font-size="18" font-family="Droid Sans Mono, Times, serif">15</text>
<rect id="#box-16" x="245" y="265"  width="74" height="54" fill= "#faf0a5" stroke="#faf0a5" stroke-width="1px" /><rect id="#box-16" x="245" y="313"  width="74" height="6" fill= "#F7E875" stroke="#F7E875" stroke-width="1px" /><text id="#box-text-16" x="255" y="306" fill="#A5AFFA" font-size="12" font-family="Droid Sans Mono, Times, serif">#faf0a5</text><text id="#box-text-16" x="275" y="288" fill="#A5AFFA" font-size="18" font-family="Droid Sans Mono, Times, serif">16</text>
</svg>