<svg width="330" height="330">
    <rect fill="#1b1918" x="0" y="0" width="330" height="330"></rect>
    <text x="180" y="35" fill="#a8a19f" text-anchor="middle" alignment-baseline="central" font-size="24">Atelierforest (dark)</text>
    <text x="10" y="75" fill="#a8a19f" text-anchor="start"  alignment-baseline="baseline" font-size="14">FG: #a8a19f. BG: #1b1918</text>

<rect id="#box-1" x="5" y="85"  width="74" height="54" fill= "#1b1918" stroke="#1b1918" stroke-width="1px" /><rect id="#box-1" x="5" y="133"  width="74" height="6" fill= "#000000" stroke="#000000" stroke-width="1px" /><text id="#box-text-1" x="15" y="126" fill="#181A1B" font-size="12" font-family="Droid Sans Mono, Times, serif">#1b1918</text><text id="#box-text-1" x="35" y="108" fill="#181A1B" font-size="18" font-family="Droid Sans Mono, Times, serif">1</text>
<rect id="#box-2" x="5" y="145"  width="74" height="54" fill= "#f22c40" stroke="#f22c40" stroke-width="1px" /><rect id="#box-2" x="5" y="193"  width="74" height="6" fill= "#DD0E23" stroke="#DD0E23" stroke-width="1px" /><text id="#box-text-2" x="15" y="186" fill="#2CF2DE" font-size="12" font-family="Droid Sans Mono, Times, serif">#f22c40</text><text id="#box-text-2" x="35" y="168" fill="#2CF2DE" font-size="18" font-family="Droid Sans Mono, Times, serif">2</text>
<rect id="#box-3" x="5" y="205"  width="74" height="54" fill= "#5ab738" stroke="#5ab738" stroke-width="1px" /><rect id="#box-3" x="5" y="253"  width="74" height="6" fill= "#47902C" stroke="#47902C" stroke-width="1px" /><text id="#box-text-3" x="15" y="246" fill="#9538B7" font-size="12" font-family="Droid Sans Mono, Times, serif">#5ab738</text><text id="#box-text-3" x="35" y="228" fill="#9538B7" font-size="18" font-family="Droid Sans Mono, Times, serif">3</text>
<rect id="#box-4" x="5" y="265"  width="74" height="54" fill= "#d5911a" stroke="#d5911a" stroke-width="1px" /><rect id="#box-4" x="5" y="313"  width="74" height="6" fill= "#A87214" stroke="#A87214" stroke-width="1px" /><text id="#box-text-4" x="15" y="306" fill="#1A5ED5" font-size="12" font-family="Droid Sans Mono, Times, serif">#d5911a</text><text id="#box-text-4" x="35" y="288" fill="#1A5ED5" font-size="18" font-family="Droid Sans Mono, Times, serif">4</text>
<rect id="#box-5" x="85" y="85"  width="74" height="54" fill= "#407ee7" stroke="#407ee7" stroke-width="1px" /><rect id="#box-5" x="85" y="133"  width="74" height="6" fill= "#1B62D9" stroke="#1B62D9" stroke-width="1px" /><text id="#box-text-5" x="95" y="126" fill="#E7A940" font-size="12" font-family="Droid Sans Mono, Times, serif">#407ee7</text><text id="#box-text-5" x="115" y="108" fill="#E7A940" font-size="18" font-family="Droid Sans Mono, Times, serif">5</text>
<rect id="#box-6" x="85" y="145"  width="74" height="54" fill= "#6666ea" stroke="#6666ea" stroke-width="1px" /><rect id="#box-6" x="85" y="193"  width="74" height="6" fill= "#3939E4" stroke="#3939E4" stroke-width="1px" /><text id="#box-text-6" x="95" y="186" fill="#EAEA66" font-size="12" font-family="Droid Sans Mono, Times, serif">#6666ea</text><text id="#box-text-6" x="115" y="168" fill="#EAEA66" font-size="18" font-family="Droid Sans Mono, Times, serif">6</text>
<rect id="#box-7" x="85" y="205"  width="74" height="54" fill= "#00ad9c" stroke="#00ad9c" stroke-width="1px" /><rect id="#box-7" x="85" y="253"  width="74" height="6" fill= "#007A6E" stroke="#007A6E" stroke-width="1px" /><text id="#box-text-7" x="95" y="246" fill="#AD0011" font-size="12" font-family="Droid Sans Mono, Times, serif">#00ad9c</text><text id="#box-text-7" x="115" y="228" fill="#AD0011" font-size="18" font-family="Droid Sans Mono, Times, serif">7</text>
<rect id="#box-8" x="85" y="265"  width="74" height="54" fill= "#a8a19f" stroke="#a8a19f" stroke-width="1px" /><rect id="#box-8" x="85" y="313"  width="74" height="6" fill= "#908784" stroke="#908784" stroke-width="1px" /><text id="#box-text-8" x="95" y="306" fill="#9FA6A8" font-size="12" font-family="Droid Sans Mono, Times, serif">#a8a19f</text><text id="#box-text-8" x="115" y="288" fill="#9FA6A8" font-size="18" font-family="Droid Sans Mono, Times, serif">8</text>
<rect id="#box-9" x="165" y="85"  width="74" height="54" fill= "#766e6b" stroke="#766e6b" stroke-width="1px" /><rect id="#box-9" x="165" y="133"  width="74" height="6" fill= "#5B5553" stroke="#5B5553" stroke-width="1px" /><text id="#box-text-9" x="175" y="126" fill="#6B7376" font-size="12" font-family="Droid Sans Mono, Times, serif">#766e6b</text><text id="#box-text-9" x="195" y="108" fill="#6B7376" font-size="18" font-family="Droid Sans Mono, Times, serif">9</text>
<rect id="#box-10" x="165" y="145"  width="74" height="54" fill= "#f22c40" stroke="#f22c40" stroke-width="1px" /><rect id="#box-10" x="165" y="193"  width="74" height="6" fill= "#DD0E23" stroke="#DD0E23" stroke-width="1px" /><text id="#box-text-10" x="175" y="186" fill="#2CF2DE" font-size="12" font-family="Droid Sans Mono, Times, serif">#f22c40</text><text id="#box-text-10" x="195" y="168" fill="#2CF2DE" font-size="18" font-family="Droid Sans Mono, Times, serif">10</text>
<rect id="#box-11" x="165" y="205"  width="74" height="54" fill= "#5ab738" stroke="#5ab738" stroke-width="1px" /><rect id="#box-11" x="165" y="253"  width="74" height="6" fill= "#47902C" stroke="#47902C" stroke-width="1px" /><text id="#box-text-11" x="175" y="246" fill="#9538B7" font-size="12" font-family="Droid Sans Mono, Times, serif">#5ab738</text><text id="#box-text-11" x="195" y="228" fill="#9538B7" font-size="18" font-family="Droid Sans Mono, Times, serif">11</text>
<rect id="#box-12" x="165" y="265"  width="74" height="54" fill= "#d5911a" stroke="#d5911a" stroke-width="1px" /><rect id="#box-12" x="165" y="313"  width="74" height="6" fill= "#A87214" stroke="#A87214" stroke-width="1px" /><text id="#box-text-12" x="175" y="306" fill="#1A5ED5" font-size="12" font-family="Droid Sans Mono, Times, serif">#d5911a</text><text id="#box-text-12" x="195" y="288" fill="#1A5ED5" font-size="18" font-family="Droid Sans Mono, Times, serif">12</text>
<rect id="#box-13" x="245" y="85"  width="74" height="54" fill= "#407ee7" stroke="#407ee7" stroke-width="1px" /><rect id="#box-13" x="245" y="133"  width="74" height="6" fill= "#1B62D9" stroke="#1B62D9" stroke-width="1px" /><text id="#box-text-13" x="255" y="126" fill="#E7A940" font-size="12" font-family="Droid Sans Mono, Times, serif">#407ee7</text><text id="#box-text-13" x="275" y="108" fill="#E7A940" font-size="18" font-family="Droid Sans Mono, Times, serif">13</text>
<rect id="#box-14" x="245" y="145"  width="74" height="54" fill= "#6666ea" stroke="#6666ea" stroke-width="1px" /><rect id="#box-14" x="245" y="193"  width="74" height="6" fill= "#3939E4" stroke="#3939E4" stroke-width="1px" /><text id="#box-text-14" x="255" y="186" fill="#EAEA66" font-size="12" font-family="Droid Sans Mono, Times, serif">#6666ea</text><text id="#box-text-14" x="275" y="168" fill="#EAEA66" font-size="18" font-family="Droid Sans Mono, Times, serif">14</text>
<rect id="#box-15" x="245" y="205"  width="74" height="54" fill= "#00ad9c" stroke="#00ad9c" stroke-width="1px" /><rect id="#box-15" x="245" y="253"  width="74" height="6" fill= "#007A6E" stroke="#007A6E" stroke-width="1px" /><text id="#box-text-15" x="255" y="246" fill="#AD0011" font-size="12" font-family="Droid Sans Mono, Times, serif">#00ad9c</text><text id="#box-text-15" x="275" y="228" fill="#AD0011" font-size="18" font-family="Droid Sans Mono, Times, serif">15</text>
<rect id="#box-16" x="245" y="265"  width="74" height="54" fill= "#f1efee" stroke="#f1efee" stroke-width="1px" /><rect id="#box-16" x="245" y="313"  width="74" height="6" fill= "#DAD5D2" stroke="#DAD5D2" stroke-width="1px" /><text id="#box-text-16" x="255" y="306" fill="#EEF0F1" font-size="12" font-family="Droid Sans Mono, Times, serif">#f1efee</text><text id="#box-text-16" x="275" y="288" fill="#EEF0F1" font-size="18" font-family="Droid Sans Mono, Times, serif">16</text>
</svg>