<svg width="330" height="330">
    <rect fill="#16130f" x="0" y="0" width="330" height="330"></rect>
    <text x="180" y="35" fill="#a39a90" text-anchor="middle" alignment-baseline="central" font-size="24">Embers (dark)</text>
    <text x="10" y="75" fill="#a39a90" text-anchor="start"  alignment-baseline="baseline" font-size="14">FG: #a39a90. BG: #16130f</text>

<rect id="#box-1" x="5" y="85"  width="74" height="54" fill= "#16130f" stroke="#16130f" stroke-width="1px" /><rect id="#box-1" x="5" y="133"  width="74" height="6" fill= "#000000" stroke="#000000" stroke-width="1px" /><text id="#box-text-1" x="15" y="126" fill="#0F1216" font-size="12" font-family="Droid Sans Mono, Times, serif">#16130f</text><text id="#box-text-1" x="35" y="108" fill="#0F1216" font-size="18" font-family="Droid Sans Mono, Times, serif">1</text>
<rect id="#box-2" x="5" y="145"  width="74" height="54" fill= "#826d57" stroke="#826d57" stroke-width="1px" /><rect id="#box-2" x="5" y="193"  width="74" height="6" fill= "#635343" stroke="#635343" stroke-width="1px" /><text id="#box-text-2" x="15" y="186" fill="#576C82" font-size="12" font-family="Droid Sans Mono, Times, serif">#826d57</text><text id="#box-text-2" x="35" y="168" fill="#576C82" font-size="18" font-family="Droid Sans Mono, Times, serif">2</text>
<rect id="#box-3" x="5" y="205"  width="74" height="54" fill= "#57826d" stroke="#57826d" stroke-width="1px" /><rect id="#box-3" x="5" y="253"  width="74" height="6" fill= "#436353" stroke="#436353" stroke-width="1px" /><text id="#box-text-3" x="15" y="246" fill="#82576C" font-size="12" font-family="Droid Sans Mono, Times, serif">#57826d</text><text id="#box-text-3" x="35" y="228" fill="#82576C" font-size="18" font-family="Droid Sans Mono, Times, serif">3</text>
<rect id="#box-4" x="5" y="265"  width="74" height="54" fill= "#6d8257" stroke="#6d8257" stroke-width="1px" /><rect id="#box-4" x="5" y="313"  width="74" height="6" fill= "#536343" stroke="#536343" stroke-width="1px" /><text id="#box-text-4" x="15" y="306" fill="#6C5782" font-size="12" font-family="Droid Sans Mono, Times, serif">#6d8257</text><text id="#box-text-4" x="35" y="288" fill="#6C5782" font-size="18" font-family="Droid Sans Mono, Times, serif">4</text>
<rect id="#box-5" x="85" y="85"  width="74" height="54" fill= "#6d5782" stroke="#6d5782" stroke-width="1px" /><rect id="#box-5" x="85" y="133"  width="74" height="6" fill= "#534363" stroke="#534363" stroke-width="1px" /><text id="#box-text-5" x="95" y="126" fill="#6C8257" font-size="12" font-family="Droid Sans Mono, Times, serif">#6d5782</text><text id="#box-text-5" x="115" y="108" fill="#6C8257" font-size="18" font-family="Droid Sans Mono, Times, serif">5</text>
<rect id="#box-6" x="85" y="145"  width="74" height="54" fill= "#82576d" stroke="#82576d" stroke-width="1px" /><rect id="#box-6" x="85" y="193"  width="74" height="6" fill= "#634353" stroke="#634353" stroke-width="1px" /><text id="#box-text-6" x="95" y="186" fill="#57826C" font-size="12" font-family="Droid Sans Mono, Times, serif">#82576d</text><text id="#box-text-6" x="115" y="168" fill="#57826C" font-size="18" font-family="Droid Sans Mono, Times, serif">6</text>
<rect id="#box-7" x="85" y="205"  width="74" height="54" fill= "#576d82" stroke="#576d82" stroke-width="1px" /><rect id="#box-7" x="85" y="253"  width="74" height="6" fill= "#435363" stroke="#435363" stroke-width="1px" /><text id="#box-text-7" x="95" y="246" fill="#826C57" font-size="12" font-family="Droid Sans Mono, Times, serif">#576d82</text><text id="#box-text-7" x="115" y="228" fill="#826C57" font-size="18" font-family="Droid Sans Mono, Times, serif">7</text>
<rect id="#box-8" x="85" y="265"  width="74" height="54" fill= "#a39a90" stroke="#a39a90" stroke-width="1px" /><rect id="#box-8" x="85" y="313"  width="74" height="6" fill= "#8C8174" stroke="#8C8174" stroke-width="1px" /><text id="#box-text-8" x="95" y="306" fill="#9099A3" font-size="12" font-family="Droid Sans Mono, Times, serif">#a39a90</text><text id="#box-text-8" x="115" y="288" fill="#9099A3" font-size="18" font-family="Droid Sans Mono, Times, serif">8</text>
<rect id="#box-9" x="165" y="85"  width="74" height="54" fill= "#5a5047" stroke="#5a5047" stroke-width="1px" /><rect id="#box-9" x="165" y="133"  width="74" height="6" fill= "#3D3731" stroke="#3D3731" stroke-width="1px" /><text id="#box-text-9" x="175" y="126" fill="#47515A" font-size="12" font-family="Droid Sans Mono, Times, serif">#5a5047</text><text id="#box-text-9" x="195" y="108" fill="#47515A" font-size="18" font-family="Droid Sans Mono, Times, serif">9</text>
<rect id="#box-10" x="165" y="145"  width="74" height="54" fill= "#826d57" stroke="#826d57" stroke-width="1px" /><rect id="#box-10" x="165" y="193"  width="74" height="6" fill= "#635343" stroke="#635343" stroke-width="1px" /><text id="#box-text-10" x="175" y="186" fill="#576C82" font-size="12" font-family="Droid Sans Mono, Times, serif">#826d57</text><text id="#box-text-10" x="195" y="168" fill="#576C82" font-size="18" font-family="Droid Sans Mono, Times, serif">10</text>
<rect id="#box-11" x="165" y="205"  width="74" height="54" fill= "#57826d" stroke="#57826d" stroke-width="1px" /><rect id="#box-11" x="165" y="253"  width="74" height="6" fill= "#436353" stroke="#436353" stroke-width="1px" /><text id="#box-text-11" x="175" y="246" fill="#82576C" font-size="12" font-family="Droid Sans Mono, Times, serif">#57826d</text><text id="#box-text-11" x="195" y="228" fill="#82576C" font-size="18" font-family="Droid Sans Mono, Times, serif">11</text>
<rect id="#box-12" x="165" y="265"  width="74" height="54" fill= "#6d8257" stroke="#6d8257" stroke-width="1px" /><rect id="#box-12" x="165" y="313"  width="74" height="6" fill= "#536343" stroke="#536343" stroke-width="1px" /><text id="#box-text-12" x="175" y="306" fill="#6C5782" font-size="12" font-family="Droid Sans Mono, Times, serif">#6d8257</text><text id="#box-text-12" x="195" y="288" fill="#6C5782" font-size="18" font-family="Droid Sans Mono, Times, serif">12</text>
<rect id="#box-13" x="245" y="85"  width="74" height="54" fill= "#6d5782" stroke="#6d5782" stroke-width="1px" /><rect id="#box-13" x="245" y="133"  width="74" height="6" fill= "#534363" stroke="#534363" stroke-width="1px" /><text id="#box-text-13" x="255" y="126" fill="#6C8257" font-size="12" font-family="Droid Sans Mono, Times, serif">#6d5782</text><text id="#box-text-13" x="275" y="108" fill="#6C8257" font-size="18" font-family="Droid Sans Mono, Times, serif">13</text>
<rect id="#box-14" x="245" y="145"  width="74" height="54" fill= "#82576d" stroke="#82576d" stroke-width="1px" /><rect id="#box-14" x="245" y="193"  width="74" height="6" fill= "#634353" stroke="#634353" stroke-width="1px" /><text id="#box-text-14" x="255" y="186" fill="#57826C" font-size="12" font-family="Droid Sans Mono, Times, serif">#82576d</text><text id="#box-text-14" x="275" y="168" fill="#57826C" font-size="18" font-family="Droid Sans Mono, Times, serif">14</text>
<rect id="#box-15" x="245" y="205"  width="74" height="54" fill= "#576d82" stroke="#576d82" stroke-width="1px" /><rect id="#box-15" x="245" y="253"  width="74" height="6" fill= "#435363" stroke="#435363" stroke-width="1px" /><text id="#box-text-15" x="255" y="246" fill="#826C57" font-size="12" font-family="Droid Sans Mono, Times, serif">#576d82</text><text id="#box-text-15" x="275" y="228" fill="#826C57" font-size="18" font-family="Droid Sans Mono, Times, serif">15</text>
<rect id="#box-16" x="245" y="265"  width="74" height="54" fill= "#dbd6d1" stroke="#dbd6d1" stroke-width="1px" /><rect id="#box-16" x="245" y="313"  width="74" height="6" fill= "#C5BDB4" stroke="#C5BDB4" stroke-width="1px" /><text id="#box-text-16" x="255" y="306" fill="#D1D6DB" font-size="12" font-family="Droid Sans Mono, Times, serif">#dbd6d1</text><text id="#box-text-16" x="275" y="288" fill="#D1D6DB" font-size="18" font-family="Droid Sans Mono, Times, serif">16</text>
</svg>