<svg width="330" height="330">
    <rect fill="#fefbec" x="0" y="0" width="330" height="330"></rect>
    <text x="180" y="35" fill="#6e6b5e" text-anchor="middle" alignment-baseline="central" font-size="24">Atelierdune (light)</text>
    <text x="10" y="75" fill="#6e6b5e" text-anchor="start"  alignment-baseline="baseline" font-size="14">FG: #6e6b5e. BG: #fefbec</text>

<rect id="#box-1" x="5" y="85"  width="74" height="54" fill= "#20201d" stroke="#20201d" stroke-width="1px" /><rect id="#box-1" x="5" y="133"  width="74" height="6" fill= "#050505" stroke="#050505" stroke-width="1px" /><text id="#box-text-1" x="15" y="126" fill="#1D1D20" font-size="12" font-family="Droid Sans Mono, Times, serif">#20201d</text><text id="#box-text-1" x="35" y="108" fill="#1D1D20" font-size="18" font-family="Droid Sans Mono, Times, serif">1</text>
<rect id="#box-2" x="5" y="145"  width="74" height="54" fill= "#d73737" stroke="#d73737" stroke-width="1px" /><rect id="#box-2" x="5" y="193"  width="74" height="6" fill= "#B72424" stroke="#B72424" stroke-width="1px" /><text id="#box-text-2" x="15" y="186" fill="#37D7D7" font-size="12" font-family="Droid Sans Mono, Times, serif">#d73737</text><text id="#box-text-2" x="35" y="168" fill="#37D7D7" font-size="18" font-family="Droid Sans Mono, Times, serif">2</text>
<rect id="#box-3" x="5" y="205"  width="74" height="54" fill= "#60ac39" stroke="#60ac39" stroke-width="1px" /><rect id="#box-3" x="5" y="253"  width="74" height="6" fill= "#4B862C" stroke="#4B862C" stroke-width="1px" /><text id="#box-text-3" x="15" y="246" fill="#8539AC" font-size="12" font-family="Droid Sans Mono, Times, serif">#60ac39</text><text id="#box-text-3" x="35" y="228" fill="#8539AC" font-size="18" font-family="Droid Sans Mono, Times, serif">3</text>
<rect id="#box-4" x="5" y="265"  width="74" height="54" fill= "#cfb017" stroke="#cfb017" stroke-width="1px" /><rect id="#box-4" x="5" y="313"  width="74" height="6" fill= "#A18912" stroke="#A18912" stroke-width="1px" /><text id="#box-text-4" x="15" y="306" fill="#1736CF" font-size="12" font-family="Droid Sans Mono, Times, serif">#cfb017</text><text id="#box-text-4" x="35" y="288" fill="#1736CF" font-size="18" font-family="Droid Sans Mono, Times, serif">4</text>
<rect id="#box-5" x="85" y="85"  width="74" height="54" fill= "#6684e1" stroke="#6684e1" stroke-width="1px" /><rect id="#box-5" x="85" y="133"  width="74" height="6" fill= "#3B62D9" stroke="#3B62D9" stroke-width="1px" /><text id="#box-text-5" x="95" y="126" fill="#E1C366" font-size="12" font-family="Droid Sans Mono, Times, serif">#6684e1</text><text id="#box-text-5" x="115" y="108" fill="#E1C366" font-size="18" font-family="Droid Sans Mono, Times, serif">5</text>
<rect id="#box-6" x="85" y="145"  width="74" height="54" fill= "#b854d4" stroke="#b854d4" stroke-width="1px" /><rect id="#box-6" x="85" y="193"  width="74" height="6" fill= "#A431C4" stroke="#A431C4" stroke-width="1px" /><text id="#box-text-6" x="95" y="186" fill="#70D454" font-size="12" font-family="Droid Sans Mono, Times, serif">#b854d4</text><text id="#box-text-6" x="115" y="168" fill="#70D454" font-size="18" font-family="Droid Sans Mono, Times, serif">6</text>
<rect id="#box-7" x="85" y="205"  width="74" height="54" fill= "#1fad83" stroke="#1fad83" stroke-width="1px" /><rect id="#box-7" x="85" y="253"  width="74" height="6" fill= "#178262" stroke="#178262" stroke-width="1px" /><text id="#box-text-7" x="95" y="246" fill="#AD1F49" font-size="12" font-family="Droid Sans Mono, Times, serif">#1fad83</text><text id="#box-text-7" x="115" y="228" fill="#AD1F49" font-size="18" font-family="Droid Sans Mono, Times, serif">7</text>
<rect id="#box-8" x="85" y="265"  width="74" height="54" fill= "#a6a28c" stroke="#a6a28c" stroke-width="1px" /><rect id="#box-8" x="85" y="313"  width="74" height="6" fill= "#908B6F" stroke="#908B6F" stroke-width="1px" /><text id="#box-text-8" x="95" y="306" fill="#8C90A6" font-size="12" font-family="Droid Sans Mono, Times, serif">#a6a28c</text><text id="#box-text-8" x="115" y="288" fill="#8C90A6" font-size="18" font-family="Droid Sans Mono, Times, serif">8</text>
<rect id="#box-9" x="165" y="85"  width="74" height="54" fill= "#7d7a68" stroke="#7d7a68" stroke-width="1px" /><rect id="#box-9" x="165" y="133"  width="74" height="6" fill= "#615F51" stroke="#615F51" stroke-width="1px" /><text id="#box-text-9" x="175" y="126" fill="#686B7D" font-size="12" font-family="Droid Sans Mono, Times, serif">#7d7a68</text><text id="#box-text-9" x="195" y="108" fill="#686B7D" font-size="18" font-family="Droid Sans Mono, Times, serif">9</text>
<rect id="#box-10" x="165" y="145"  width="74" height="54" fill= "#d73737" stroke="#d73737" stroke-width="1px" /><rect id="#box-10" x="165" y="193"  width="74" height="6" fill= "#B72424" stroke="#B72424" stroke-width="1px" /><text id="#box-text-10" x="175" y="186" fill="#37D7D7" font-size="12" font-family="Droid Sans Mono, Times, serif">#d73737</text><text id="#box-text-10" x="195" y="168" fill="#37D7D7" font-size="18" font-family="Droid Sans Mono, Times, serif">10</text>
<rect id="#box-11" x="165" y="205"  width="74" height="54" fill= "#60ac39" stroke="#60ac39" stroke-width="1px" /><rect id="#box-11" x="165" y="253"  width="74" height="6" fill= "#4B862C" stroke="#4B862C" stroke-width="1px" /><text id="#box-text-11" x="175" y="246" fill="#8539AC" font-size="12" font-family="Droid Sans Mono, Times, serif">#60ac39</text><text id="#box-text-11" x="195" y="228" fill="#8539AC" font-size="18" font-family="Droid Sans Mono, Times, serif">11</text>
<rect id="#box-12" x="165" y="265"  width="74" height="54" fill= "#cfb017" stroke="#cfb017" stroke-width="1px" /><rect id="#box-12" x="165" y="313"  width="74" height="6" fill= "#A18912" stroke="#A18912" stroke-width="1px" /><text id="#box-text-12" x="175" y="306" fill="#1736CF" font-size="12" font-family="Droid Sans Mono, Times, serif">#cfb017</text><text id="#box-text-12" x="195" y="288" fill="#1736CF" font-size="18" font-family="Droid Sans Mono, Times, serif">12</text>
<rect id="#box-13" x="245" y="85"  width="74" height="54" fill= "#6684e1" stroke="#6684e1" stroke-width="1px" /><rect id="#box-13" x="245" y="133"  width="74" height="6" fill= "#3B62D9" stroke="#3B62D9" stroke-width="1px" /><text id="#box-text-13" x="255" y="126" fill="#E1C366" font-size="12" font-family="Droid Sans Mono, Times, serif">#6684e1</text><text id="#box-text-13" x="275" y="108" fill="#E1C366" font-size="18" font-family="Droid Sans Mono, Times, serif">13</text>
<rect id="#box-14" x="245" y="145"  width="74" height="54" fill= "#b854d4" stroke="#b854d4" stroke-width="1px" /><rect id="#box-14" x="245" y="193"  width="74" height="6" fill= "#A431C4" stroke="#A431C4" stroke-width="1px" /><text id="#box-text-14" x="255" y="186" fill="#70D454" font-size="12" font-family="Droid Sans Mono, Times, serif">#b854d4</text><text id="#box-text-14" x="275" y="168" fill="#70D454" font-size="18" font-family="Droid Sans Mono, Times, serif">14</text>
<rect id="#box-15" x="245" y="205"  width="74" height="54" fill= "#1fad83" stroke="#1fad83" stroke-width="1px" /><rect id="#box-15" x="245" y="253"  width="74" height="6" fill= "#178262" stroke="#178262" stroke-width="1px" /><text id="#box-text-15" x="255" y="246" fill="#AD1F49" font-size="12" font-family="Droid Sans Mono, Times, serif">#1fad83</text><text id="#box-text-15" x="275" y="228" fill="#AD1F49" font-size="18" font-family="Droid Sans Mono, Times, serif">15</text>
<rect id="#box-16" x="245" y="265"  width="74" height="54" fill= "#fefbec" stroke="#fefbec" stroke-width="1px" /><rect id="#box-16" x="245" y="313"  width="74" height="6" fill= "#FBF1BC" stroke="#FBF1BC" stroke-width="1px" /><text id="#box-text-16" x="255" y="306" fill="#ECEFFE" font-size="12" font-family="Droid Sans Mono, Times, serif">#fefbec</text><text id="#box-text-16" x="275" y="288" fill="#ECEFFE" font-size="18" font-family="Droid Sans Mono, Times, serif">16</text>
</svg>