<svg width="330" height="330">
    <rect fill="#f9f9f9" x="0" y="0" width="330" height="330"></rect>
    <text x="180" y="35" fill="#102015" text-anchor="middle" alignment-baseline="central" font-size="24">Shapeshifter (light)</text>
    <text x="10" y="75" fill="#102015" text-anchor="start"  alignment-baseline="baseline" font-size="14">FG: #102015. BG: #f9f9f9</text>

<rect id="#box-1" x="5" y="85"  width="74" height="54" fill= "#000000" stroke="#000000" stroke-width="1px" /><rect id="#box-1" x="5" y="133"  width="74" height="6" fill= "#000000" stroke="#000000" stroke-width="1px" /><text id="#box-text-1" x="15" y="126" fill="#000000" font-size="12" font-family="Droid Sans Mono, Times, serif">#000000</text><text id="#box-text-1" x="35" y="108" fill="#000000" font-size="18" font-family="Droid Sans Mono, Times, serif">1</text>
<rect id="#box-2" x="5" y="145"  width="74" height="54" fill= "#e92f2f" stroke="#e92f2f" stroke-width="1px" /><rect id="#box-2" x="5" y="193"  width="74" height="6" fill= "#CF1616" stroke="#CF1616" stroke-width="1px" /><text id="#box-text-2" x="15" y="186" fill="#2FE9E9" font-size="12" font-family="Droid Sans Mono, Times, serif">#e92f2f</text><text id="#box-text-2" x="35" y="168" fill="#2FE9E9" font-size="18" font-family="Droid Sans Mono, Times, serif">2</text>
<rect id="#box-3" x="5" y="205"  width="74" height="54" fill= "#0ed839" stroke="#0ed839" stroke-width="1px" /><rect id="#box-3" x="5" y="253"  width="74" height="6" fill= "#0BA82C" stroke="#0BA82C" stroke-width="1px" /><text id="#box-text-3" x="15" y="246" fill="#D80EAD" font-size="12" font-family="Droid Sans Mono, Times, serif">#0ed839</text><text id="#box-text-3" x="35" y="228" fill="#D80EAD" font-size="18" font-family="Droid Sans Mono, Times, serif">3</text>
<rect id="#box-4" x="5" y="265"  width="74" height="54" fill= "#dddd13" stroke="#dddd13" stroke-width="1px" /><rect id="#box-4" x="5" y="313"  width="74" height="6" fill= "#AEAE0F" stroke="#AEAE0F" stroke-width="1px" /><text id="#box-text-4" x="15" y="306" fill="#1313DD" font-size="12" font-family="Droid Sans Mono, Times, serif">#dddd13</text><text id="#box-text-4" x="35" y="288" fill="#1313DD" font-size="18" font-family="Droid Sans Mono, Times, serif">4</text>
<rect id="#box-5" x="85" y="85"  width="74" height="54" fill= "#3b48e3" stroke="#3b48e3" stroke-width="1px" /><rect id="#box-5" x="85" y="133"  width="74" height="6" fill= "#1D2BCE" stroke="#1D2BCE" stroke-width="1px" /><text id="#box-text-5" x="95" y="126" fill="#E3D63B" font-size="12" font-family="Droid Sans Mono, Times, serif">#3b48e3</text><text id="#box-text-5" x="115" y="108" fill="#E3D63B" font-size="18" font-family="Droid Sans Mono, Times, serif">5</text>
<rect id="#box-6" x="85" y="145"  width="74" height="54" fill= "#f996e2" stroke="#f996e2" stroke-width="1px" /><rect id="#box-6" x="85" y="193"  width="74" height="6" fill= "#F666D5" stroke="#F666D5" stroke-width="1px" /><text id="#box-text-6" x="95" y="186" fill="#96F9AD" font-size="12" font-family="Droid Sans Mono, Times, serif">#f996e2</text><text id="#box-text-6" x="115" y="168" fill="#96F9AD" font-size="18" font-family="Droid Sans Mono, Times, serif">6</text>
<rect id="#box-7" x="85" y="205"  width="74" height="54" fill= "#23edda" stroke="#23edda" stroke-width="1px" /><rect id="#box-7" x="85" y="253"  width="74" height="6" fill= "#11CCBB" stroke="#11CCBB" stroke-width="1px" /><text id="#box-text-7" x="95" y="246" fill="#ED2336" font-size="12" font-family="Droid Sans Mono, Times, serif">#23edda</text><text id="#box-text-7" x="115" y="228" fill="#ED2336" font-size="18" font-family="Droid Sans Mono, Times, serif">7</text>
<rect id="#box-8" x="85" y="265"  width="74" height="54" fill= "#ababab" stroke="#ababab" stroke-width="1px" /><rect id="#box-8" x="85" y="313"  width="74" height="6" fill= "#929292" stroke="#929292" stroke-width="1px" /><text id="#box-text-8" x="95" y="306" fill="#ABABAB" font-size="12" font-family="Droid Sans Mono, Times, serif">#ababab</text><text id="#box-text-8" x="115" y="288" fill="#ABABAB" font-size="18" font-family="Droid Sans Mono, Times, serif">8</text>
<rect id="#box-9" x="165" y="85"  width="74" height="54" fill= "#343434" stroke="#343434" stroke-width="1px" /><rect id="#box-9" x="165" y="133"  width="74" height="6" fill= "#1B1B1B" stroke="#1B1B1B" stroke-width="1px" /><text id="#box-text-9" x="175" y="126" fill="#343434" font-size="12" font-family="Droid Sans Mono, Times, serif">#343434</text><text id="#box-text-9" x="195" y="108" fill="#343434" font-size="18" font-family="Droid Sans Mono, Times, serif">9</text>
<rect id="#box-10" x="165" y="145"  width="74" height="54" fill= "#e92f2f" stroke="#e92f2f" stroke-width="1px" /><rect id="#box-10" x="165" y="193"  width="74" height="6" fill= "#CF1616" stroke="#CF1616" stroke-width="1px" /><text id="#box-text-10" x="175" y="186" fill="#2FE9E9" font-size="12" font-family="Droid Sans Mono, Times, serif">#e92f2f</text><text id="#box-text-10" x="195" y="168" fill="#2FE9E9" font-size="18" font-family="Droid Sans Mono, Times, serif">10</text>
<rect id="#box-11" x="165" y="205"  width="74" height="54" fill= "#0ed839" stroke="#0ed839" stroke-width="1px" /><rect id="#box-11" x="165" y="253"  width="74" height="6" fill= "#0BA82C" stroke="#0BA82C" stroke-width="1px" /><text id="#box-text-11" x="175" y="246" fill="#D80EAD" font-size="12" font-family="Droid Sans Mono, Times, serif">#0ed839</text><text id="#box-text-11" x="195" y="228" fill="#D80EAD" font-size="18" font-family="Droid Sans Mono, Times, serif">11</text>
<rect id="#box-12" x="165" y="265"  width="74" height="54" fill= "#dddd13" stroke="#dddd13" stroke-width="1px" /><rect id="#box-12" x="165" y="313"  width="74" height="6" fill= "#AEAE0F" stroke="#AEAE0F" stroke-width="1px" /><text id="#box-text-12" x="175" y="306" fill="#1313DD" font-size="12" font-family="Droid Sans Mono, Times, serif">#dddd13</text><text id="#box-text-12" x="195" y="288" fill="#1313DD" font-size="18" font-family="Droid Sans Mono, Times, serif">12</text>
<rect id="#box-13" x="245" y="85"  width="74" height="54" fill= "#3b48e3" stroke="#3b48e3" stroke-width="1px" /><rect id="#box-13" x="245" y="133"  width="74" height="6" fill= "#1D2BCE" stroke="#1D2BCE" stroke-width="1px" /><text id="#box-text-13" x="255" y="126" fill="#E3D63B" font-size="12" font-family="Droid Sans Mono, Times, serif">#3b48e3</text><text id="#box-text-13" x="275" y="108" fill="#E3D63B" font-size="18" font-family="Droid Sans Mono, Times, serif">13</text>
<rect id="#box-14" x="245" y="145"  width="74" height="54" fill= "#f996e2" stroke="#f996e2" stroke-width="1px" /><rect id="#box-14" x="245" y="193"  width="74" height="6" fill= "#F666D5" stroke="#F666D5" stroke-width="1px" /><text id="#box-text-14" x="255" y="186" fill="#96F9AD" font-size="12" font-family="Droid Sans Mono, Times, serif">#f996e2</text><text id="#box-text-14" x="275" y="168" fill="#96F9AD" font-size="18" font-family="Droid Sans Mono, Times, serif">14</text>
<rect id="#box-15" x="245" y="205"  width="74" height="54" fill= "#23edda" stroke="#23edda" stroke-width="1px" /><rect id="#box-15" x="245" y="253"  width="74" height="6" fill= "#11CCBB" stroke="#11CCBB" stroke-width="1px" /><text id="#box-text-15" x="255" y="246" fill="#ED2336" font-size="12" font-family="Droid Sans Mono, Times, serif">#23edda</text><text id="#box-text-15" x="275" y="228" fill="#ED2336" font-size="18" font-family="Droid Sans Mono, Times, serif">15</text>
<rect id="#box-16" x="245" y="265"  width="74" height="54" fill= "#f9f9f9" stroke="#f9f9f9" stroke-width="1px" /><rect id="#box-16" x="245" y="313"  width="74" height="6" fill= "#E0E0E0" stroke="#E0E0E0" stroke-width="1px" /><text id="#box-text-16" x="255" y="306" fill="#F9F9F9" font-size="12" font-family="Droid Sans Mono, Times, serif">#f9f9f9</text><text id="#box-text-16" x="275" y="288" fill="#F9F9F9" font-size="18" font-family="Droid Sans Mono, Times, serif">16</text>
</svg>