<?xml version="1.0" encoding="UTF-8" standalone="no"?>
<svg
        xmlns="http://www.w3.org/2000/svg"
        version="1.1"
        width="330" height="330"
>
    <rect fill="#1e1e1e" x="0" y="0" width="330" height="330"></rect>
    <text x="180" y="35" fill="#a7a7a7" text-anchor="middle" alignment-baseline="central" font-size="24">Twilight (dark)</text>
    <text x="10" y="75" fill="#a7a7a7" text-anchor="start"  alignment-baseline="baseline" font-size="14">FG: #a7a7a7. BG: #1e1e1e</text>

<rect id="#box-1" x="5" y="85"  width="74" height="54" fill= "#1e1e1e" stroke="#1e1e1e" stroke-width="1px" /><rect id="#box-1" x="5" y="133"  width="74" height="6" fill= "#040404" stroke="#040404" stroke-width="1px" /><text id="#box-text-1" x="15" y="126" fill="#1E1E1E" font-size="12" font-family="Droid Sans Mono, Times, serif">#1e1e1e</text><text id="#box-text-1" x="35" y="108" fill="#1E1E1E" font-size="18" font-family="Droid Sans Mono, Times, serif">1</text>
<rect id="#box-2" x="5" y="145"  width="74" height="54" fill= "#cf6a4c" stroke="#cf6a4c" stroke-width="1px" /><rect id="#box-2" x="5" y="193"  width="74" height="6" fill= "#B75031" stroke="#B75031" stroke-width="1px" /><text id="#box-text-2" x="15" y="186" fill="#4CB1CF" font-size="12" font-family="Droid Sans Mono, Times, serif">#cf6a4c</text><text id="#box-text-2" x="35" y="168" fill="#4CB1CF" font-size="18" font-family="Droid Sans Mono, Times, serif">2</text>
<rect id="#box-3" x="5" y="205"  width="74" height="54" fill= "#8f9d6a" stroke="#8f9d6a" stroke-width="1px" /><rect id="#box-3" x="5" y="253"  width="74" height="6" fill= "#748054" stroke="#748054" stroke-width="1px" /><text id="#box-text-3" x="15" y="246" fill="#786A9D" font-size="12" font-family="Droid Sans Mono, Times, serif">#8f9d6a</text><text id="#box-text-3" x="35" y="228" fill="#786A9D" font-size="18" font-family="Droid Sans Mono, Times, serif">3</text>
<rect id="#box-4" x="5" y="265"  width="74" height="54" fill= "#f9ee98" stroke="#f9ee98" stroke-width="1px" /><rect id="#box-4" x="5" y="313"  width="74" height="6" fill= "#F6E668" stroke="#F6E668" stroke-width="1px" /><text id="#box-text-4" x="15" y="306" fill="#98A3F9" font-size="12" font-family="Droid Sans Mono, Times, serif">#f9ee98</text><text id="#box-text-4" x="35" y="288" fill="#98A3F9" font-size="18" font-family="Droid Sans Mono, Times, serif">4</text>
<rect id="#box-5" x="85" y="85"  width="74" height="54" fill= "#7587a6" stroke="#7587a6" stroke-width="1px" /><rect id="#box-5" x="85" y="133"  width="74" height="6" fill= "#5B6D8D" stroke="#5B6D8D" stroke-width="1px" /><text id="#box-text-5" x="95" y="126" fill="#A69475" font-size="12" font-family="Droid Sans Mono, Times, serif">#7587a6</text><text id="#box-text-5" x="115" y="108" fill="#A69475" font-size="18" font-family="Droid Sans Mono, Times, serif">5</text>
<rect id="#box-6" x="85" y="145"  width="74" height="54" fill= "#9b859d" stroke="#9b859d" stroke-width="1px" /><rect id="#box-6" x="85" y="193"  width="74" height="6" fill= "#826A85" stroke="#826A85" stroke-width="1px" /><text id="#box-text-6" x="95" y="186" fill="#879D85" font-size="12" font-family="Droid Sans Mono, Times, serif">#9b859d</text><text id="#box-text-6" x="115" y="168" fill="#879D85" font-size="18" font-family="Droid Sans Mono, Times, serif">6</text>
<rect id="#box-7" x="85" y="205"  width="74" height="54" fill= "#afc4db" stroke="#afc4db" stroke-width="1px" /><rect id="#box-7" x="85" y="253"  width="74" height="6" fill= "#8CAACB" stroke="#8CAACB" stroke-width="1px" /><text id="#box-text-7" x="95" y="246" fill="#DBC6AF" font-size="12" font-family="Droid Sans Mono, Times, serif">#afc4db</text><text id="#box-text-7" x="115" y="228" fill="#DBC6AF" font-size="18" font-family="Droid Sans Mono, Times, serif">7</text>
<rect id="#box-8" x="85" y="265"  width="74" height="54" fill= "#a7a7a7" stroke="#a7a7a7" stroke-width="1px" /><rect id="#box-8" x="85" y="313"  width="74" height="6" fill= "#8E8E8E" stroke="#8E8E8E" stroke-width="1px" /><text id="#box-text-8" x="95" y="306" fill="#A7A7A7" font-size="12" font-family="Droid Sans Mono, Times, serif">#a7a7a7</text><text id="#box-text-8" x="115" y="288" fill="#A7A7A7" font-size="18" font-family="Droid Sans Mono, Times, serif">8</text>
<rect id="#box-9" x="165" y="85"  width="74" height="54" fill= "#5f5a60" stroke="#5f5a60" stroke-width="1px" /><rect id="#box-9" x="165" y="133"  width="74" height="6" fill= "#454146" stroke="#454146" stroke-width="1px" /><text id="#box-text-9" x="175" y="126" fill="#5B605A" font-size="12" font-family="Droid Sans Mono, Times, serif">#5f5a60</text><text id="#box-text-9" x="195" y="108" fill="#5B605A" font-size="18" font-family="Droid Sans Mono, Times, serif">9</text>
<rect id="#box-10" x="165" y="145"  width="74" height="54" fill= "#cf6a4c" stroke="#cf6a4c" stroke-width="1px" /><rect id="#box-10" x="165" y="193"  width="74" height="6" fill= "#B75031" stroke="#B75031" stroke-width="1px" /><text id="#box-text-10" x="175" y="186" fill="#4CB1CF" font-size="12" font-family="Droid Sans Mono, Times, serif">#cf6a4c</text><text id="#box-text-10" x="195" y="168" fill="#4CB1CF" font-size="18" font-family="Droid Sans Mono, Times, serif">10</text>
<rect id="#box-11" x="165" y="205"  width="74" height="54" fill= "#8f9d6a" stroke="#8f9d6a" stroke-width="1px" /><rect id="#box-11" x="165" y="253"  width="74" height="6" fill= "#748054" stroke="#748054" stroke-width="1px" /><text id="#box-text-11" x="175" y="246" fill="#786A9D" font-size="12" font-family="Droid Sans Mono, Times, serif">#8f9d6a</text><text id="#box-text-11" x="195" y="228" fill="#786A9D" font-size="18" font-family="Droid Sans Mono, Times, serif">11</text>
<rect id="#box-12" x="165" y="265"  width="74" height="54" fill= "#f9ee98" stroke="#f9ee98" stroke-width="1px" /><rect id="#box-12" x="165" y="313"  width="74" height="6" fill= "#F6E668" stroke="#F6E668" stroke-width="1px" /><text id="#box-text-12" x="175" y="306" fill="#98A3F9" font-size="12" font-family="Droid Sans Mono, Times, serif">#f9ee98</text><text id="#box-text-12" x="195" y="288" fill="#98A3F9" font-size="18" font-family="Droid Sans Mono, Times, serif">12</text>
<rect id="#box-13" x="245" y="85"  width="74" height="54" fill= "#7587a6" stroke="#7587a6" stroke-width="1px" /><rect id="#box-13" x="245" y="133"  width="74" height="6" fill= "#5B6D8D" stroke="#5B6D8D" stroke-width="1px" /><text id="#box-text-13" x="255" y="126" fill="#A69475" font-size="12" font-family="Droid Sans Mono, Times, serif">#7587a6</text><text id="#box-text-13" x="275" y="108" fill="#A69475" font-size="18" font-family="Droid Sans Mono, Times, serif">13</text>
<rect id="#box-14" x="245" y="145"  width="74" height="54" fill= "#9b859d" stroke="#9b859d" stroke-width="1px" /><rect id="#box-14" x="245" y="193"  width="74" height="6" fill= "#826A85" stroke="#826A85" stroke-width="1px" /><text id="#box-text-14" x="255" y="186" fill="#879D85" font-size="12" font-family="Droid Sans Mono, Times, serif">#9b859d</text><text id="#box-text-14" x="275" y="168" fill="#879D85" font-size="18" font-family="Droid Sans Mono, Times, serif">14</text>
<rect id="#box-15" x="245" y="205"  width="74" height="54" fill= "#afc4db" stroke="#afc4db" stroke-width="1px" /><rect id="#box-15" x="245" y="253"  width="74" height="6" fill= "#8CAACB" stroke="#8CAACB" stroke-width="1px" /><text id="#box-text-15" x="255" y="246" fill="#DBC6AF" font-size="12" font-family="Droid Sans Mono, Times, serif">#afc4db</text><text id="#box-text-15" x="275" y="228" fill="#DBC6AF" font-size="18" font-family="Droid Sans Mono, Times, serif">15</text>
<rect id="#box-16" x="245" y="265"  width="74" height="54" fill= "#ffffff" stroke="#ffffff" stroke-width="1px" /><rect id="#box-16" x="245" y="313"  width="74" height="6" fill= "#E6E6E6" stroke="#E6E6E6" stroke-width="1px" /><text id="#box-text-16" x="255" y="306" fill="#FFFFFF" font-size="12" font-family="Droid Sans Mono, Times, serif">#ffffff</text><text id="#box-text-16" x="275" y="288" fill="#FFFFFF" font-size="18" font-family="Droid Sans Mono, Times, serif">16</text>
    <g>
        <path
                style="fill:#cf6a4c;stroke-width:0.0625"
                d="m 30.83227,12.787278 c -5.43694,0 -9.84125,4.4045 -9.84125,9.841252 0,5.43675 4.4045,9.84625 9.84125,9.84625 -2.71844,-4.7085 -1.10494,-10.72625 3.60356,-13.445002 1.55363,-0.897 3.25175,-1.32362 4.92538,-1.32175 -1.70244,-2.94138 -4.88594,-4.92069 -8.52875,-4.92069 z"/>
        <path
                style="fill:#8f9d6a;stroke-width:0.0625"
                d="m 47.88227,22.63103 c -2.71844,-4.708502 -8.735,-6.320632 -13.44375,-3.602192 -4.70875,2.718442 -6.325,8.737502 -3.60625,13.446252 2.71844,-4.7085 8.73687,-6.32 13.44562,-3.60168 1.55363,0.897 2.77213,2.15431 3.60738,3.60456 1.69606,-2.94506 1.8185,-6.69188 -0.003,-9.84688 z"/>
        <path
                style="fill:#f9ee98;stroke-width:0.0625"
                d="m 47.88227,42.31853 c 2.71844,-4.7085 1.10631,-10.725 -3.60219,-13.44375 -4.7085,-2.71875 -10.72937,-1.10862 -13.4475,3.59987 5.43694,0 9.84188,4.40638 9.84188,9.84313 0,1.794 -0.4796,3.47787 -1.318,4.92637 3.3985,-0.004 6.70437,-1.771 8.52562,-4.92593 z"/>
        <path
                style="fill:#7587a6;stroke-width:0.0625"
                d="m 30.83227,52.16228 c 5.43694,0 9.84125,-4.4045 9.84125,-9.84125 0,-5.43675 -4.4045,-9.84625 -9.84125,-9.84625 2.71844,4.7085 1.10494,10.72625 -3.60356,13.445 -1.55363,0.897 -3.25175,1.32362 -4.92538,1.32175 1.70244,2.94137 4.88594,4.92069 8.52875,4.92069 z"/>
        <path
                style="fill:#9b859d;stroke-width:0.0625"
                d="m 13.78258,42.31853 c 2.71844,4.7085 8.735,6.32062 13.44375,3.60219 4.70875,-2.71844 6.325,-8.7375 3.60625,-13.44625 -2.71844,4.7085 -8.73687,6.32 -13.44562,3.60168 -1.55363,-0.897 -2.77213,-2.15431 -3.60738,-3.60456 -1.69606,2.94506 -1.8185,6.69188 0.003,9.84688 z"/>
        <path
                style="fill:#afc4db;stroke-width:0.0625"
                d="m 13.78258,22.63103 c -2.71844,4.7085 -1.10631,10.725 3.60219,13.44375 4.7085,2.71875 10.72937,1.10862 13.4475,-3.59987 -5.43694,0 -9.84188,-4.40638 -9.84188,-9.84313 0,-1.794 0.4796,-3.477882 1.318,-4.926372 -3.3985,0.004 -6.70437,1.77099 -8.52562,4.925932 z"/>
    </g>
</svg>