<svg width="330" height="330">
    <rect fill="#f5eeeb" x="0" y="0" width="330" height="330"></rect>
    <text x="180" y="35" fill="#645240" text-anchor="middle" alignment-baseline="central" font-size="24">Mocha (light)</text>
    <text x="10" y="75" fill="#645240" text-anchor="start"  alignment-baseline="baseline" font-size="14">FG: #645240. BG: #f5eeeb</text>

<rect id="#box-1" x="5" y="85"  width="74" height="54" fill= "#3b3228" stroke="#3b3228" stroke-width="1px" /><rect id="#box-1" x="5" y="133"  width="74" height="6" fill= "#1D1813" stroke="#1D1813" stroke-width="1px" /><text id="#box-text-1" x="15" y="126" fill="#28313B" font-size="12" font-family="Droid Sans Mono, Times, serif">#3b3228</text><text id="#box-text-1" x="35" y="108" fill="#28313B" font-size="18" font-family="Droid Sans Mono, Times, serif">1</text>
<rect id="#box-2" x="5" y="145"  width="74" height="54" fill= "#cb6077" stroke="#cb6077" stroke-width="1px" /><rect id="#box-2" x="5" y="193"  width="74" height="6" fill= "#BB3D58" stroke="#BB3D58" stroke-width="1px" /><text id="#box-text-2" x="15" y="186" fill="#60CBB4" font-size="12" font-family="Droid Sans Mono, Times, serif">#cb6077</text><text id="#box-text-2" x="35" y="168" fill="#60CBB4" font-size="18" font-family="Droid Sans Mono, Times, serif">2</text>
<rect id="#box-3" x="5" y="205"  width="74" height="54" fill= "#beb55b" stroke="#beb55b" stroke-width="1px" /><rect id="#box-3" x="5" y="253"  width="74" height="6" fill= "#A59C41" stroke="#A59C41" stroke-width="1px" /><text id="#box-text-3" x="15" y="246" fill="#5B64BE" font-size="12" font-family="Droid Sans Mono, Times, serif">#beb55b</text><text id="#box-text-3" x="35" y="228" fill="#5B64BE" font-size="18" font-family="Droid Sans Mono, Times, serif">3</text>
<rect id="#box-4" x="5" y="265"  width="74" height="54" fill= "#f4bc87" stroke="#f4bc87" stroke-width="1px" /><rect id="#box-4" x="5" y="313"  width="74" height="6" fill= "#F0A258" stroke="#F0A258" stroke-width="1px" /><text id="#box-text-4" x="15" y="306" fill="#87BFF4" font-size="12" font-family="Droid Sans Mono, Times, serif">#f4bc87</text><text id="#box-text-4" x="35" y="288" fill="#87BFF4" font-size="18" font-family="Droid Sans Mono, Times, serif">4</text>
<rect id="#box-5" x="85" y="85"  width="74" height="54" fill= "#8ab3b5" stroke="#8ab3b5" stroke-width="1px" /><rect id="#box-5" x="85" y="133"  width="74" height="6" fill= "#6B9FA1" stroke="#6B9FA1" stroke-width="1px" /><text id="#box-text-5" x="95" y="126" fill="#B58C8A" font-size="12" font-family="Droid Sans Mono, Times, serif">#8ab3b5</text><text id="#box-text-5" x="115" y="108" fill="#B58C8A" font-size="18" font-family="Droid Sans Mono, Times, serif">5</text>
<rect id="#box-6" x="85" y="145"  width="74" height="54" fill= "#a89bb9" stroke="#a89bb9" stroke-width="1px" /><rect id="#box-6" x="85" y="193"  width="74" height="6" fill= "#8E7DA4" stroke="#8E7DA4" stroke-width="1px" /><text id="#box-text-6" x="95" y="186" fill="#ACB99B" font-size="12" font-family="Droid Sans Mono, Times, serif">#a89bb9</text><text id="#box-text-6" x="115" y="168" fill="#ACB99B" font-size="18" font-family="Droid Sans Mono, Times, serif">6</text>
<rect id="#box-7" x="85" y="205"  width="74" height="54" fill= "#7bbda4" stroke="#7bbda4" stroke-width="1px" /><rect id="#box-7" x="85" y="253"  width="74" height="6" fill= "#59AC8D" stroke="#59AC8D" stroke-width="1px" /><text id="#box-text-7" x="95" y="246" fill="#BD7B94" font-size="12" font-family="Droid Sans Mono, Times, serif">#7bbda4</text><text id="#box-text-7" x="115" y="228" fill="#BD7B94" font-size="18" font-family="Droid Sans Mono, Times, serif">7</text>
<rect id="#box-8" x="85" y="265"  width="74" height="54" fill= "#d0c8c6" stroke="#d0c8c6" stroke-width="1px" /><rect id="#box-8" x="85" y="313"  width="74" height="6" fill= "#B9ADAA" stroke="#B9ADAA" stroke-width="1px" /><text id="#box-text-8" x="95" y="306" fill="#C6CED0" font-size="12" font-family="Droid Sans Mono, Times, serif">#d0c8c6</text><text id="#box-text-8" x="115" y="288" fill="#C6CED0" font-size="18" font-family="Droid Sans Mono, Times, serif">8</text>
<rect id="#box-9" x="165" y="85"  width="74" height="54" fill= "#7e705a" stroke="#7e705a" stroke-width="1px" /><rect id="#box-9" x="165" y="133"  width="74" height="6" fill= "#605645" stroke="#605645" stroke-width="1px" /><text id="#box-text-9" x="175" y="126" fill="#5A687E" font-size="12" font-family="Droid Sans Mono, Times, serif">#7e705a</text><text id="#box-text-9" x="195" y="108" fill="#5A687E" font-size="18" font-family="Droid Sans Mono, Times, serif">9</text>
<rect id="#box-10" x="165" y="145"  width="74" height="54" fill= "#cb6077" stroke="#cb6077" stroke-width="1px" /><rect id="#box-10" x="165" y="193"  width="74" height="6" fill= "#BB3D58" stroke="#BB3D58" stroke-width="1px" /><text id="#box-text-10" x="175" y="186" fill="#60CBB4" font-size="12" font-family="Droid Sans Mono, Times, serif">#cb6077</text><text id="#box-text-10" x="195" y="168" fill="#60CBB4" font-size="18" font-family="Droid Sans Mono, Times, serif">10</text>
<rect id="#box-11" x="165" y="205"  width="74" height="54" fill= "#beb55b" stroke="#beb55b" stroke-width="1px" /><rect id="#box-11" x="165" y="253"  width="74" height="6" fill= "#A59C41" stroke="#A59C41" stroke-width="1px" /><text id="#box-text-11" x="175" y="246" fill="#5B64BE" font-size="12" font-family="Droid Sans Mono, Times, serif">#beb55b</text><text id="#box-text-11" x="195" y="228" fill="#5B64BE" font-size="18" font-family="Droid Sans Mono, Times, serif">11</text>
<rect id="#box-12" x="165" y="265"  width="74" height="54" fill= "#f4bc87" stroke="#f4bc87" stroke-width="1px" /><rect id="#box-12" x="165" y="313"  width="74" height="6" fill= "#F0A258" stroke="#F0A258" stroke-width="1px" /><text id="#box-text-12" x="175" y="306" fill="#87BFF4" font-size="12" font-family="Droid Sans Mono, Times, serif">#f4bc87</text><text id="#box-text-12" x="195" y="288" fill="#87BFF4" font-size="18" font-family="Droid Sans Mono, Times, serif">12</text>
<rect id="#box-13" x="245" y="85"  width="74" height="54" fill= "#8ab3b5" stroke="#8ab3b5" stroke-width="1px" /><rect id="#box-13" x="245" y="133"  width="74" height="6" fill= "#6B9FA1" stroke="#6B9FA1" stroke-width="1px" /><text id="#box-text-13" x="255" y="126" fill="#B58C8A" font-size="12" font-family="Droid Sans Mono, Times, serif">#8ab3b5</text><text id="#box-text-13" x="275" y="108" fill="#B58C8A" font-size="18" font-family="Droid Sans Mono, Times, serif">13</text>
<rect id="#box-14" x="245" y="145"  width="74" height="54" fill= "#a89bb9" stroke="#a89bb9" stroke-width="1px" /><rect id="#box-14" x="245" y="193"  width="74" height="6" fill= "#8E7DA4" stroke="#8E7DA4" stroke-width="1px" /><text id="#box-text-14" x="255" y="186" fill="#ACB99B" font-size="12" font-family="Droid Sans Mono, Times, serif">#a89bb9</text><text id="#box-text-14" x="275" y="168" fill="#ACB99B" font-size="18" font-family="Droid Sans Mono, Times, serif">14</text>
<rect id="#box-15" x="245" y="205"  width="74" height="54" fill= "#7bbda4" stroke="#7bbda4" stroke-width="1px" /><rect id="#box-15" x="245" y="253"  width="74" height="6" fill= "#59AC8D" stroke="#59AC8D" stroke-width="1px" /><text id="#box-text-15" x="255" y="246" fill="#BD7B94" font-size="12" font-family="Droid Sans Mono, Times, serif">#7bbda4</text><text id="#box-text-15" x="275" y="228" fill="#BD7B94" font-size="18" font-family="Droid Sans Mono, Times, serif">15</text>
<rect id="#box-16" x="245" y="265"  width="74" height="54" fill= "#f5eeeb" stroke="#f5eeeb" stroke-width="1px" /><rect id="#box-16" x="245" y="313"  width="74" height="6" fill= "#E4D1C9" stroke="#E4D1C9" stroke-width="1px" /><text id="#box-text-16" x="255" y="306" fill="#EBF2F5" font-size="12" font-family="Droid Sans Mono, Times, serif">#f5eeeb</text><text id="#box-text-16" x="275" y="288" fill="#EBF2F5" font-size="18" font-family="Droid Sans Mono, Times, serif">16</text>
</svg>