<?xml version="1.0" encoding="UTF-8" standalone="no"?>
<svg
        xmlns="http://www.w3.org/2000/svg"
        version="1.1"
        width="330" height="330"
>
    <rect fill="#f5eeeb" x="0" y="0" width="330" height="330"></rect>
    <text x="180" y="35" fill="#645240" text-anchor="middle" alignment-baseline="central" font-size="24">Mocha (light)</text>
    <text x="10" y="75" fill="#645240" text-anchor="start"  alignment-baseline="baseline" font-size="14">FG: #645240. BG: #f5eeeb</text>

<rect id="#box-1" x="5" y="85"  width="74" height="54" fill= "#3b3228" stroke="#3b3228" stroke-width="1px" /><rect id="#box-1" x="5" y="133"  width="74" height="6" fill= "#1D1813" stroke="#1D1813" stroke-width="1px" /><text id="#box-text-1" x="15" y="126" fill="#28313B" font-size="12" font-family="Droid Sans Mono, Times, serif">#3b3228</text><text id="#box-text-1" x="35" y="108" fill="#28313B" font-size="18" font-family="Droid Sans Mono, Times, serif">1</text>
<rect id="#box-2" x="5" y="145"  width="74" height="54" fill= "#cb6077" stroke="#cb6077" stroke-width="1px" /><rect id="#box-2" x="5" y="193"  width="74" height="6" fill= "#BB3D58" stroke="#BB3D58" stroke-width="1px" /><text id="#box-text-2" x="15" y="186" fill="#60CBB4" font-size="12" font-family="Droid Sans Mono, Times, serif">#cb6077</text><text id="#box-text-2" x="35" y="168" fill="#60CBB4" font-size="18" font-family="Droid Sans Mono, Times, serif">2</text>
<rect id="#box-3" x="5" y="205"  width="74" height="54" fill= "#beb55b" stroke="#beb55b" stroke-width="1px" /><rect id="#box-3" x="5" y="253"  width="74" height="6" fill= "#A59C41" stroke="#A59C41" stroke-width="1px" /><text id="#box-text-3" x="15" y="246" fill="#5B64BE" font-size="12" font-family="Droid Sans Mono, Times, serif">#beb55b</text><text id="#box-text-3" x="35" y="228" fill="#5B64BE" font-size="18" font-family="Droid Sans Mono, Times, serif">3</text>
<rect id="#box-4" x="5" y="265"  width="74" height="54" fill= "#f4bc87" stroke="#f4bc87" stroke-width="1px" /><rect id="#box-4" x="5" y="313"  width="74" height="6" fill= "#F0A258" stroke="#F0A258" stroke-width="1px" /><text id="#box-text-4" x="15" y="306" fill="#87BFF4" font-size="12" font-family="Droid Sans Mono, Times, serif">#f4bc87</text><text id="#box-text-4" x="35" y="288" fill="#87BFF4" font-size="18" font-family="Droid Sans Mono, Times, serif">4</text>
<rect id="#box-5" x="85" y="85"  width="74" height="54" fill= "#8ab3b5" stroke="#8ab3b5" stroke-width="1px" /><rect id="#box-5" x="85" y="133"  width="74" height="6" fill= "#6B9FA1" stroke="#6B9FA1" stroke-width="1px" /><text id="#box-text-5" x="95" y="126" fill="#B58C8A" font-size="12" font-family="Droid Sans Mono, Times, serif">#8ab3b5</text><text id="#box-text-5" x="115" y="108" fill="#B58C8A" font-size="18" font-family="Droid Sans Mono, Times, serif">5</text>
<rect id="#box-6" x="85" y="145"  width="74" height="54" fill= "#a89bb9" stroke="#a89bb9" stroke-width="1px" /><rect id="#box-6" x="85" y="193"  width="74" height="6" fill= "#8E7DA4" stroke="#8E7DA4" stroke-width="1px" /><text id="#box-text-6" x="95" y="186" fill="#ACB99B" font-size="12" font-family="Droid Sans Mono, Times, serif">#a89bb9</text><text id="#box-text-6" x="115" y="168" fill="#ACB99B" font-size="18" font-family="Droid Sans Mono, Times, serif">6</text>
<rect id="#box-7" x="85" y="205"  width="74" height="54" fill= "#7bbda4" stroke="#7bbda4" stroke-width="1px" /><rect id="#box-7" x="85" y="253"  width="74" height="6" fill= "#59AC8D" stroke="#59AC8D" stroke-width="1px" /><text id="#box-text-7" x="95" y="246" fill="#BD7B94" font-size="12" font-family="Droid Sans Mono, Times, serif">#7bbda4</text><text id="#box-text-7" x="115" y="228" fill="#BD7B94" font-size="18" font-family="Droid Sans Mono, Times, serif">7</text>
<rect id="#box-8" x="85" y="265"  width="74" height="54" fill= "#d0c8c6" stroke="#d0c8c6" stroke-width="1px" /><rect id="#box-8" x="85" y="313"  width="74" height="6" fill= "#B9ADAA" stroke="#B9ADAA" stroke-width="1px" /><text id="#box-text-8" x="95" y="306" fill="#C6CED0" font-size="12" font-family="Droid Sans Mono, Times, serif">#d0c8c6</text><text id="#box-text-8" x="115" y="288" fill="#C6CED0" font-size="18" font-family="Droid Sans Mono, Times, serif">8</text>
<rect id="#box-9" x="165" y="85"  width="74" height="54" fill= "#7e705a" stroke="#7e705a" stroke-width="1px" /><rect id="#box-9" x="165" y="133"  width="74" height="6" fill= "#605645" stroke="#605645" stroke-width="1px" /><text id="#box-text-9" x="175" y="126" fill="#5A687E" font-size="12" font-family="Droid Sans Mono, Times, serif">#7e705a</text><text id="#box-text-9" x="195" y="108" fill="#5A687E" font-size="18" font-family="Droid Sans Mono, Times, serif">9</text>
<rect id="#box-10" x="165" y="145"  width="74" height="54" fill= "#cb6077" stroke="#cb6077" stroke-width="1px" /><rect id="#box-10" x="165" y="193"  width="74" height="6" fill= "#BB3D58" stroke="#BB3D58" stroke-width="1px" /><text id="#box-text-10" x="175" y="186" fill="#60CBB4" font-size="12" font-family="Droid Sans Mono, Times, serif">#cb6077</text><text id="#box-text-10" x="195" y="168" fill="#60CBB4" font-size="18" font-family="Droid Sans Mono, Times, serif">10</text>
<rect id="#box-11" x="165" y="205"  width="74" height="54" fill= "#beb55b" stroke="#beb55b" stroke-width="1px" /><rect id="#box-11" x="165" y="253"  width="74" height="6" fill= "#A59C41" stroke="#A59C41" stroke-width="1px" /><text id="#box-text-11" x="175" y="246" fill="#5B64BE" font-size="12" font-family="Droid Sans Mono, Times, serif">#beb55b</text><text id="#box-text-11" x="195" y="228" fill="#5B64BE" font-size="18" font-family="Droid Sans Mono, Times, serif">11</text>
<rect id="#box-12" x="165" y="265"  width="74" height="54" fill= "#f4bc87" stroke="#f4bc87" stroke-width="1px" /><rect id="#box-12" x="165" y="313"  width="74" height="6" fill= "#F0A258" stroke="#F0A258" stroke-width="1px" /><text id="#box-text-12" x="175" y="306" fill="#87BFF4" font-size="12" font-family="Droid Sans Mono, Times, serif">#f4bc87</text><text id="#box-text-12" x="195" y="288" fill="#87BFF4" font-size="18" font-family="Droid Sans Mono, Times, serif">12</text>
<rect id="#box-13" x="245" y="85"  width="74" height="54" fill= "#8ab3b5" stroke="#8ab3b5" stroke-width="1px" /><rect id="#box-13" x="245" y="133"  width="74" height="6" fill= "#6B9FA1" stroke="#6B9FA1" stroke-width="1px" /><text id="#box-text-13" x="255" y="126" fill="#B58C8A" font-size="12" font-family="Droid Sans Mono, Times, serif">#8ab3b5</text><text id="#box-text-13" x="275" y="108" fill="#B58C8A" font-size="18" font-family="Droid Sans Mono, Times, serif">13</text>
<rect id="#box-14" x="245" y="145"  width="74" height="54" fill= "#a89bb9" stroke="#a89bb9" stroke-width="1px" /><rect id="#box-14" x="245" y="193"  width="74" height="6" fill= "#8E7DA4" stroke="#8E7DA4" stroke-width="1px" /><text id="#box-text-14" x="255" y="186" fill="#ACB99B" font-size="12" font-family="Droid Sans Mono, Times, serif">#a89bb9</text><text id="#box-text-14" x="275" y="168" fill="#ACB99B" font-size="18" font-family="Droid Sans Mono, Times, serif">14</text>
<rect id="#box-15" x="245" y="205"  width="74" height="54" fill= "#7bbda4" stroke="#7bbda4" stroke-width="1px" /><rect id="#box-15" x="245" y="253"  width="74" height="6" fill= "#59AC8D" stroke="#59AC8D" stroke-width="1px" /><text id="#box-text-15" x="255" y="246" fill="#BD7B94" font-size="12" font-family="Droid Sans Mono, Times, serif">#7bbda4</text><text id="#box-text-15" x="275" y="228" fill="#BD7B94" font-size="18" font-family="Droid Sans Mono, Times, serif">15</text>
<rect id="#box-16" x="245" y="265"  width="74" height="54" fill= "#f5eeeb" stroke="#f5eeeb" stroke-width="1px" /><rect id="#box-16" x="245" y="313"  width="74" height="6" fill= "#E4D1C9" stroke="#E4D1C9" stroke-width="1px" /><text id="#box-text-16" x="255" y="306" fill="#EBF2F5" font-size="12" font-family="Droid Sans Mono, Times, serif">#f5eeeb</text><text id="#box-text-16" x="275" y="288" fill="#EBF2F5" font-size="18" font-family="Droid Sans Mono, Times, serif">16</text>
    <g>
        <path
                style="fill:#cb6077;stroke-width:0.0625"
                d="m 30.83227,12.787278 c -5.43694,0 -9.84125,4.4045 -9.84125,9.841252 0,5.43675 4.4045,9.84625 9.84125,9.84625 -2.71844,-4.7085 -1.10494,-10.72625 3.60356,-13.445002 1.55363,-0.897 3.25175,-1.32362 4.92538,-1.32175 -1.70244,-2.94138 -4.88594,-4.92069 -8.52875,-4.92069 z"/>
        <path
                style="fill:#beb55b;stroke-width:0.0625"
                d="m 47.88227,22.63103 c -2.71844,-4.708502 -8.735,-6.320632 -13.44375,-3.602192 -4.70875,2.718442 -6.325,8.737502 -3.60625,13.446252 2.71844,-4.7085 8.73687,-6.32 13.44562,-3.60168 1.55363,0.897 2.77213,2.15431 3.60738,3.60456 1.69606,-2.94506 1.8185,-6.69188 -0.003,-9.84688 z"/>
        <path
                style="fill:#f4bc87;stroke-width:0.0625"
                d="m 47.88227,42.31853 c 2.71844,-4.7085 1.10631,-10.725 -3.60219,-13.44375 -4.7085,-2.71875 -10.72937,-1.10862 -13.4475,3.59987 5.43694,0 9.84188,4.40638 9.84188,9.84313 0,1.794 -0.4796,3.47787 -1.318,4.92637 3.3985,-0.004 6.70437,-1.771 8.52562,-4.92593 z"/>
        <path
                style="fill:#8ab3b5;stroke-width:0.0625"
                d="m 30.83227,52.16228 c 5.43694,0 9.84125,-4.4045 9.84125,-9.84125 0,-5.43675 -4.4045,-9.84625 -9.84125,-9.84625 2.71844,4.7085 1.10494,10.72625 -3.60356,13.445 -1.55363,0.897 -3.25175,1.32362 -4.92538,1.32175 1.70244,2.94137 4.88594,4.92069 8.52875,4.92069 z"/>
        <path
                style="fill:#a89bb9;stroke-width:0.0625"
                d="m 13.78258,42.31853 c 2.71844,4.7085 8.735,6.32062 13.44375,3.60219 4.70875,-2.71844 6.325,-8.7375 3.60625,-13.44625 -2.71844,4.7085 -8.73687,6.32 -13.44562,3.60168 -1.55363,-0.897 -2.77213,-2.15431 -3.60738,-3.60456 -1.69606,2.94506 -1.8185,6.69188 0.003,9.84688 z"/>
        <path
                style="fill:#7bbda4;stroke-width:0.0625"
                d="m 13.78258,22.63103 c -2.71844,4.7085 -1.10631,10.725 3.60219,13.44375 4.7085,2.71875 10.72937,1.10862 13.4475,-3.59987 -5.43694,0 -9.84188,-4.40638 -9.84188,-9.84313 0,-1.794 0.4796,-3.477882 1.318,-4.926372 -3.3985,0.004 -6.70437,1.77099 -8.52562,4.925932 z"/>
    </g>
</svg>